{
.appVersion = "3151";
.formatVersion = 3;
axes = (
{
name = Weight;
tag = wght;
},
{
name = Width;
tag = wdth;
},
{
name = Slant;
tag = slnt;
}
);
classes = (
{
code = "zero one two three four five six seven eight nine ";
name = Num;
},
{
code = "zero.canadian one.canadian two.canadian three.canadian four.canadian five.canadian six.canadian seven.canadian eight.canadian nine.canadian 
";
name = Num_can;
},
{

glyphs = (
{
glyphname = idotless;
lastChange = "2023-01-13 15:54:20 +0000";
layers = (
{
layerId = "96DCC2AB-F6C9-4D02-A366-260ACDE51568";
shapes = (
{
closed = 1;
nodes = (
(116,0,l),
(226,521,l),
(131,521,l),
(20,0,l)
);
}
);
width = 239;
}
);
note = dotlessi;
unicode = 305;
},
{
glyphname = "acuteFinal-canadian";
lastChange = "2023-01-13 15:54:20 +0000";
layers = (
{
layerId = "96DCC2AB-F6C9-4D02-A366-260ACDE51568";
shapes = (
{
closed = 1;
nodes = (
(144,345,l),
(373,690,l),
(292,690,l),
(63,345,l)
);
}
);
width = 318;
}
);
metricRight = "=|";
note = uni141F;
unicode = 5151;
},
{
glyphname = "graveFinal-canadian";
kernLeft = mwestleft;
kernRight = mwestright;
lastChange = "2023-01-13 15:54:24 +0000";
layers = (
{
layerId = "96DCC2AB-F6C9-4D02-A366-260ACDE51568";
shapes = (
{
closed = 1;
nodes = (
(300,345,l),
(210,690,l),
(137,690,l),
(228,345,l)
);
}
);
width = 319;
}
);
metricLeft = "=|acuteFinal-canadian";
metricRight = "=|acuteFinal-canadian";
note = uni1420;
unicode = 5152;
},
{
glyphname = "ringBottomhalfFinal-canadian";
kernLeft = mwestleft;
kernRight = mwestright;
lastChange = "2023-01-13 15:54:20 +0000";
layers = (
{
layerId = "96DCC2AB-F6C9-4D02-A366-260ACDE51568";
shapes = (
{
closed = 1;
nodes = (
(341,339,o),
(392,390,o),
(412,478,cs),
(456,690,l),
(388,690,l),
(346,491,ls),
(332,429,o),
(304,402,o),
(251,402,cs),
(195,402,o),
(174,434,o),
(186,496,cs),
(228,690,l),
(159,690,l),
(120,499,ls),
(99,400,o),
(145,339,o),
(246,339,cs)
);
}
);
width = 424;
}
);
metricLeft = "ai-canadian";
metricRight = "==|ai-canadian";
note = uni1421;
unicode = 5153;
},
{
glyphname = "ringTophalfFinal-canadian";
lastChange = "2023-01-13 15:54:24 +0000";
layers = (
{
layerId = "96DCC2AB-F6C9-4D02-A366-260ACDE51568";
shapes = (
{
closed = 1;
nodes = (
(154,345,l),
(196,544,ls),
(209,606,o),
(238,633,o),
(291,633,cs),
(347,633,o),
(368,601,o),
(354,539,cs),
(314,345,l),
(382,345,l),
(422,535,ls),
(443,635,o),
(397,696,o),
(296,696,cs),
(201,696,o),
(150,644,o),
(130,556,cs),
(85,345,l)
);
}
);
width = 423;
}
);
metricLeft = "ai-canadian";
metricRight = "==|ai-canadian";
note = uni1422;
unicode = 5154;
},
{
glyphname = "ringRighthalfFinal-canadian";
kernLeft = mwestleft;
kernRight = mwestright;
lastChange = "2023-01-13 15:54:24 +0000";
layers = (
{
layerId = "96DCC2AB-F6C9-4D02-A366-260ACDE51568";
shapes = (
{
closed = 1;
nodes = (
(161,345,ls),
(300,345,o),
(370,440,o),
(370,554,cs),
(370,638,o),
(317,690,o),
(226,690,cs),
(157,690,l),
(144,626,l),
(216,626,ls),
(273,626,o),
(301,598,o),
(301,548,cs),
(301,485,o),
(271,409,o),
(170,409,cs),
(98,409,l),
(84,345,l)
);
}
);
width = 369;
}
);
metricLeft = "=|t-canadian";
metricWidth = "t-canadian";
note = uni1423;
unicode = 5155;
},
{
glyphname = "ringFinal-canadian";
kernLeft = mwestleft;
kernRight = mwestright;
lastChange = "2023-01-13 15:54:20 +0000";
layers = (
{
layerId = "96DCC2AB-F6C9-4D02-A366-260ACDE51568";
shapes = (
{
closed = 1;
nodes = (
(395,355,o),
(469,428,o),
(469,526,cs),
(469,623,o),
(393,696,o),
(295,696,cs),
(196,696,o),
(122,623,o),
(122,526,cs),
(122,428,o),
(194,355,o),
(295,355,cs)
);
},
{
closed = 1;
nodes = (
(229,414,o),
(185,462,o),
(185,526,cs),
(185,589,o),
(230,637,o),
(295,637,cs),
(358,637,o),
(404,589,o),
(404,526,cs),
(404,462,o),
(359,414,o),
(295,414,cs)
);
}
);
width = 468;
}
);
note = uni1424;
unicode = 5156;
},
{
glyphname = "doubleacuteFinal-canadian";
lastChange = "2023-01-13 15:54:20 +0000";
layers = (
{
layerId = "96DCC2AB-F6C9-4D02-A366-260ACDE51568";
shapes = (
{
closed = 1;
nodes = (
(142,345,l),
(373,690,l),
(294,690,l),
(63,345,l)
);
},
{
closed = 1;
nodes = (
(294,345,l),
(524,690,l),
(444,690,l),
(213,345,l)
);
}
);
width = 469;
}
);
metricLeft = "acuteFinal-canadian";
metricRight = "=|";
note = uni1425;
unicode = 5157;
},
{
glyphname = "doubleshortverticalstrokesFinal-canadian";
kernLeft = mwestleft;
kernRight = mwestright;
lastChange = "2023-01-13 15:54:20 +0000";
layers = (
{
layerId = "96DCC2AB-F6C9-4D02-A366-260ACDE51568";
shapes = (
{
closed = 1;
nodes = (
(155,345,l),
(228,690,l),
(159,690,l),
(86,345,l)
);
},
{
closed = 1;
nodes = (
(289,345,l),
(362,690,l),
(295,690,l),
(221,345,l)
);
}
);
width = 330;
}
);
metricLeft = "pWestCree-canadian";
metricRight = "pWestCree-canadian";
note = uni1426;
unicode = 5158;
},
{
glyphname = "middledotFinal-canadian";
lastChange = "2023-01-13 15:54:20 +0000";
layers = (
{
layerId = "96DCC2AB-F6C9-4D02-A366-260ACDE51568";
shapes = (
{
closed = 1;
nodes = (
(167,299,o),
(191,324,o),
(191,355,cs),
(191,385,o),
(167,410,o),
(136,410,cs),
(106,410,o),
(82,385,o),
(82,355,cs),
(82,324,o),
(106,299,o),
(136,299,cs)
);
}
);
width = 224;
}
);
note = uni1427;
unicode = 5159;
},
{
glyphname = "shorthorizontalstrokeFinal-canadian";
kernLeft = mwestleft;
kernRight = mwestright;
lastChange = "2023-01-13 15:54:24 +0000";
layers = (
{
layerId = "96DCC2AB-F6C9-4D02-A366-260ACDE51568";
shapes = (
{
closed = 1;
nodes = (
(436,489,l),
(450,557,l),
(130,557,l),
(115,489,l)
);
}
);
width = 445;
}
);
metricRight = "=|";
note = uni1428;
unicode = 5160;
},
{
glyphname = "plusFinal-canadian";
kernLeft = mwestleft;
kernRight = mwestright;
lastChange = "2023-01-13 15:54:24 +0000";
layers = (
{
layerId = "96DCC2AB-F6C9-4D02-A366-260ACDE51568";
shapes = (
{
closed = 1;
nodes = (
(283,362,l),
(311,496,l),
(438,496,l),
(451,559,l),
(325,559,l),
(353,690,l),
(285,690,l),
(258,559,l),
(130,559,l),
(117,496,l),
(244,496,l),
(215,362,l)
);
}
);
width = 445;
}
);
metricLeft = "shorthorizontalstrokeFinal-canadian";
metricRight = "shorthorizontalstrokeFinal-canadian";
note = uni1429;
unicode = 5161;
},
{
glyphname = "downtackFinal-canadian";
kernLeft = mwestleft;
kernRight = mwestright;
lastChange = "2023-01-13 15:54:20 +0000";
layers = (
{
layerId = "96DCC2AB-F6C9-4D02-A366-260ACDE51568";
shapes = (
{
closed = 1;
nodes = (
(280,345,l),
(339,625,l),
(465,625,l),
(479,690,l),
(158,690,l),
(144,625,l),
(270,625,l),
(212,345,l)
);
}
);
width = 445;
}
);
metricLeft = "shorthorizontalstrokeFinal-canadian";
metricRight = "shorthorizontalstrokeFinal-canadian";
note = uni142A;
unicode = 5162;
},
{
glyphname = "thFinalWoodScree-canadian";
lastChange = "2023-01-13 15:54:24 +0000";
layers = (
{
layerId = "96DCC2AB-F6C9-4D02-A366-260ACDE51568";
shapes = (
{
closed = 1;
nodes = (
(282,345,l),
(298,420,l),
(422,420,l),
(435,476,l),
(310,476,l),
(327,558,l),
(452,558,l),
(464,614,l),
(340,614,l),
(355,690,l),
(287,690,l),
(271,614,l),
(144,614,l),
(132,558,l),
(259,558,l),
(242,476,l),
(115,476,l),
(102,420,l),
(230,420,l),
(213,345,l)
);
}
);
width = 449;
}
);
metricLeft = "hyphen-canadian";
metricRight = "hyphen-canadian";
note = uni167E;
unicode = 5758;
},
{
glyphname = "ringSmallFinal-canadian";
kernLeft = mwestleft;
kernRight = mwestright;
lastChange = "2023-01-13 15:54:20 +0000";
layers = (
{
layerId = "96DCC2AB-F6C9-4D02-A366-260ACDE51568";
shapes = (
{
closed = 1;
nodes = (
(301,499,o),
(350,541,o),
(350,601,cs),
(350,661,o),
(301,702,o),
(244,702,cs),
(188,702,o),
(141,661,o),
(141,601,cs),
(141,541,o),
(188,499,o),
(244,499,cs)
);
},
{
closed = 1;
nodes = (
(211,544,o),
(189,569,o),
(189,601,cs),
(189,633,o),
(213,658,o),
(245,658,cs),
(279,658,o),
(301,633,o),
(301,601,cs),
(301,569,o),
(279,544,o),
(245,544,cs)
);
}
);
width = 337;
}
);
note = g725;
unicode = 6366;
},
{
glyphname = "raiseddotFinal-canadian";
kernLeft = mwestleft;
kernRight = mwestright;
lastChange = "2023-01-13 15:54:20 +0000";
layers = (
{
layerId = "96DCC2AB-F6C9-4D02-A366-260ACDE51568";
shapes = (
{
closed = 1;
nodes = (
(231,593,o),
(255,617,o),
(255,648,cs),
(255,678,o),
(231,702,o),
(200,702,cs),
(169,702,o),
(145,678,o),
(145,648,cs),
(145,617,o),
(169,593,o),
(200,593,cs)
);
}
);
width = 226;
}
);
note = g725;
unicode = 6367;
},
{
glyphname = "plusFinal-canadian.base";
lastChange = "2023-01-13 15:54:24 +0000";
layers = (
{
layerId = "96DCC2AB-F6C9-4D02-A366-260ACDE51568";
shapes = (
{
closed = 1;
nodes = (
(206,0,l),
(234,133,l),
(360,133,l),
(374,197,l),
(248,197,l),
(275,327,l),
(209,327,l),
(181,197,l),
(53,197,l),
(40,133,l),
(167,133,l),
(139,0,l)
);
}
);
width = 445;
}
);
metricLeft = "shorthorizontalstrokeFinal-canadian";
metricRight = "shorthorizontalstrokeFinal-canadian";
note = uni1429;
},
{
glyphname = "e-canadian";
kernLeft = ecanleft;
kernRight = ecanright;
lastChange = "2023-01-13 15:54:24 +0000";
layers = (
{
anchors = (
{
name = middle_center_can;
pos = (401,454);
},
{
name = top_center_can;
pos = (452,690);
},
{
name = top_left_can;
pos = (225,690);
},
{
name = top_right_can;
pos = (679,690);
}
);
layerId = "96DCC2AB-F6C9-4D02-A366-260ACDE51568";
shapes = (
{
closed = 1;
nodes = (
(326,0,l),
(774,664,l),
(780,690,l),
(128,690,l),
(123,664,l),
(290,0,l)
);
},
{
closed = 1;
nodes = (
(343,113,l),
(221,633,l),
(206,611,l),
(668,611,l),
(650,633,l),
(309,113,l)
);
}
);
width = 716;
}
);
metricRight = "=|";
note = uni1401;
unicode = 5121;
},
{
glyphname = "i-canadian";
kernLeft = icanleft;
kernRight = icanright;
lastChange = "2023-01-13 15:54:24 +0000";
layers = (
{
anchors = (
{
name = middle_center_can;
pos = (388,355);
},
{
name = top_center_can;
pos = (454,690);
},
{
name = top_left_can;
pos = (227,690);
},
{
name = top_right_can;
pos = (681,690);
}
);
layerId = "96DCC2AB-F6C9-4D02-A366-260ACDE51568";
shapes = (
{
closed = 1;
nodes = (
(436,690,l),
(-13,26,l),
(-18,0,l),
(633,0,l),
(639,26,l),
(471,690,l)
);
},
{
closed = 1;
nodes = (
(418,577,l),
(540,57,l),
(555,79,l),
(93,79,l),
(111,57,l),
(452,577,l)
);
}
);
width = 716;
}
);
metricLeft = "e-canadian";
metricWidth = "e-canadian";
note = uni1403;
unicode = 5123;
},
{
glyphname = "o-canadian";
kernLeft = ocanleft;
kernRight = ocanright;
lastChange = "2023-01-13 15:54:20 +0000";
layers = (
{
anchors = (
{
name = middle_center_can;
pos = (298,354);
},
{
name = top_center_can;
pos = (455,690);
},
{
name = top_double;
pos = (550,690);
},
{
name = top_left_can;
pos = (213,690);
},
{
name = top_right_can;
pos = (695,690);
}
);
layerId = "96DCC2AB-F6C9-4D02-A366-260ACDE51568";
shapes = (
{
closed = 1;
nodes = (
(50,0,l),
(662,327,l),
(669,362,l),
(197,690,l),
(172,690,l),
(25,0,l)
);
},
{
closed = 1;
nodes = (
(232,588,l),
(203,592,l),
(560,342,l),
(563,363,l),
(102,114,l),
(129,106,l)
);
}
);
width = 677;
}
);
metricLeft = "nunavuth-canadian";
note = uni1405;
unicode = 5125;
},
{
glyphname = "eeCarrier-canadian";
lastChange = "2023-01-13 15:54:20 +0000";
layers = (
{
layerId = "96DCC2AB-F6C9-4D02-A366-260ACDE51568";
shapes = (
{
closed = 1;
nodes = (
(50,0,l),
(662,327,l),
(669,362,l),
(197,690,l),
(172,690,l),
(25,0,l)
);
},
{
closed = 1;
nodes = (
(230,588,l),
(208,589,l),
(562,342,l),
(567,364,l),
(106,116,l),
(128,106,l)
);
},
{
closed = 1;
nodes = (
(297,269,l),
(331,433,l),
(294,433,l),
(259,269,l)
);
}
);
width = 677;
}
);
metricLeft = "nunavuth-canadian";
metricRight = "o-canadian";
note = uni1408;
unicode = 5128;
},
{
glyphname = "a-canadian";
kernLeft = acanleft;
kernRight = acanright;
lastChange = "2023-01-13 15:54:25 +0000";
layers = (
{
anchors = (
{
name = middle_center_can;
pos = (413,341);
},
{
name = top_center_can;
pos = (409,690);
},
{
name = top_left_can;
pos = (173,690);
},
{
name = top_right_can;
pos = (655,690);
}
);
layerId = "96DCC2AB-F6C9-4D02-A366-260ACDE51568";
shapes = (
{
closed = 1;
nodes = (
(671,690,l),
(60,362,l),
(52,327,l),
(525,0,l),
(551,0,l),
(697,690,l)
);
},
{
closed = 1;
nodes = (
(490,101,l),
(519,98,l),
(161,348,l),
(158,327,l),
(619,576,l),
(592,583,l)
);
}
);
width = 678;
}
);
metricRight = "nunavuth-canadian";
note = uni140A;
unicode = 5130;
},
{
glyphname = "ai-canadian";
lastChange = "2023-01-13 15:54:24 +0000";
layers = (
{
layerId = "96DCC2AB-F6C9-4D02-A366-260ACDE51568";
shapes = (
{
closed = 1;
nodes = (
(296,339,o),
(336,368,o),
(365,427,c),
(346,430,l),
(351,370,o),
(388,339,o),
(455,339,cs),
(545,339,o),
(593,386,o),
(616,492,cs),
(658,690,l),
(593,690,l),
(552,490,ls),
(538,426,o),
(510,399,o),
(458,399,cs),
(405,399,o),
(385,428,o),
(399,491,cs),
(441,690,l),
(377,690,l),
(334,491,ls),
(321,427,o),
(292,399,o),
(242,399,cs),
(190,399,o),
(169,430,o),
(182,490,cs),
(224,690,l),
(159,690,l),
(118,492,ls),
(99,399,o),
(144,339,o),
(234,339,cs)
);
}
);
width = 625;
}
);
metricRight = "=|";
note = uni141C;
unicode = 5148;
},
{
glyphname = "ycreew-canadian";
lastChange = "2023-01-13 15:54:20 +0000";
layers = (
{
layerId = "96DCC2AB-F6C9-4D02-A366-260ACDE51568";
shapes = (
{
closed = 1;
nodes = (
(423,510,o),
(460,549,o),
(460,603,cs),
(460,658,o),
(424,696,o),
(375,696,cs),
(325,696,o),
(288,658,o),
(288,603,cs),
(288,549,o),
(325,510,o),
(374,510,cs)
);
},
{
closed = 1;
nodes = (
(241,339,o),
(276,378,o),
(276,432,cs),
(276,487,o),
(241,525,o),
(191,525,cs),
(142,525,o),
(104,487,o),
(104,432,cs),
(104,378,o),
(141,339,o),
(190,339,cs)
);
},
{
closed = 1;
nodes = (
(162,375,o),
(143,398,o),
(143,432,cs),
(143,466,o),
(162,489,o),
(190,489,cs),
(219,489,o),
(239,466,o),
(239,432,cs),
(239,398,o),
(219,375,o),
(190,375,cs)
);
},
{
closed = 1;
nodes = (
(345,546,o),
(327,569,o),
(327,603,cs),
(327,637,o),
(346,660,o),
(374,660,cs),
(402,660,o),
(421,637,o),
(421,603,cs),
(421,569,o),
(402,546,o),
(374,546,cs)
);
}
);
width = 446;
}
);
metricRight = "=|";
note = uni141D;
unicode = 5149;
},
{
glyphname = "glottalstop-canadian";
lastChange = "2023-01-13 15:54:20 +0000";
layers = (
{
layerId = "96DCC2AB-F6C9-4D02-A366-260ACDE51568";
shapes = (
{
closed = 1;
nodes = (
(403,345,l),
(407,359,l),
(323,690,l),
(304,690,l),
(80,359,l),
(77,345,l)
);
},
{
closed = 1;
nodes = (
(321,626,l),
(287,627,l),
(347,374,l),
(363,396,l),
(140,396,l),
(153,374,l)
);
}
);
width = 437;
}
);
metricRight = "=|";
note = uni141E;
unicode = 5150;
},
{
glyphname = "pe-canadian";
kernLeft = ecanleft;
kernRight = ecanright;
lastChange = "2023-01-13 15:54:24 +0000";
layers = (
{
anchors = (
{
name = middle_center_can;
pos = (397,454);
},
{
name = top_center_can;
pos = (454,690);
},
{
name = top_left_can;
pos = (225,690);
},
{
name = top_right_can;
pos = (679,690);
}
);
layerId = "96DCC2AB-F6C9-4D02-A366-260ACDE51568";
shapes = (
{
closed = 1;
nodes = (
(325,0,l),
(774,664,l),
(780,690,l),
(680,690,l),
(298,114,l),
(352,114,l),
(214,690,l),
(128,690,l),
(123,664,l),
(290,0,l)
);
}
);
width = 716;
}
);
metricLeft = "e-canadian";
metricRight = "e-canadian";
note = uni142F;
unicode = 5167;
},
{
glyphname = "pi-canadian";
kernLeft = icanleft;
kernRight = icanright;
lastChange = "2023-01-13 15:54:24 +0000";
layers = (
{
anchors = (
{
name = middle_center_can;
pos = (389,355);
},
{
name = top_center_can;
pos = (454,690);
},
{
name = top_left_can;
pos = (225,690);
},
{
name = top_right_can;
pos = (679,690);
}
);
layerId = "96DCC2AB-F6C9-4D02-A366-260ACDE51568";
shapes = (
{
closed = 1;
nodes = (
(437,690,l),
(-13,26,l),
(-18,0,l),
(81,0,l),
(464,576,l),
(410,576,l),
(547,0,l),
(633,0,l),
(639,26,l),
(471,690,l)
);
}
);
width = 716;
}
);
metricLeft = "e-canadian";
metricRight = "e-canadian";
note = uni1431;
unicode = 5169;
},
{
glyphname = "po-canadian";
kernLeft = ocanleft;
kernRight = ocanright;
lastChange = "2023-01-13 15:54:20 +0000";
layers = (
{
anchors = (
{
name = middle_center_can;
pos = (231,355);
},
{
name = top_center_can;
pos = (429,690);
},
{
name = top_double;
pos = (529,690);
},
{
name = top_left_can;
pos = (191,690);
},
{
name = top_right_can;
pos = (667,690);
}
);
layerId = "96DCC2AB-F6C9-4D02-A366-260ACDE51568";
name = "Thin Slanted";
shapes = (
{
closed = 1;
nodes = (
(28,0,l),
(635,327,l),
(641,362,l),
(175,690,l),
(149,690,l),
(132,610,l),
(526,332,l),
(535,376,l),
(23,99,l),
(3,0,l)
);
}
);
width = 650;
}
);
metricRight = "o-canadian";
note = uni1433;
unicode = 5171;
},
{
glyphname = "pa-canadian";
kernLeft = acanleft;
kernRight = acanright;
lastChange = "2023-01-13 15:54:20 +0000";
layers = (
{
anchors = (
{
name = middle_center_can;
pos = (348,345);
},
{
name = top_center_can;
pos = (412,690);
},
{
name = top_left_can;
pos = (174,690);
},
{
name = top_right_can;
pos = (650,690);
}
);
layerId = "96DCC2AB-F6C9-4D02-A366-260ACDE51568";
shapes = (
{
closed = 1;
nodes = (
(666,690,l),
(60,362,l),
(53,327,l),
(520,0,l),
(545,0,l),
(562,80,l),
(168,357,l),
(159,314,l),
(670,590,l),
(692,690,l)
);
}
);
width = 649;
}
);
metricRight = "=|po-canadian";
note = uni1438;
unicode = 5176;
},
{
glyphname = "p-canadian";
kernLeft = mwestleft;
kernRight = mwestright;
lastChange = "2023-01-13 15:54:20 +0000";
layers = (
{
layerId = "96DCC2AB-F6C9-4D02-A366-260ACDE51568";
shapes = (
{
closed = 1;
nodes = (
(366,345,l),
(378,401,l),
(186,536,l),
(175,487,l),
(425,621,l),
(440,690,l),
(424,690,l),
(125,527,l),
(121,508,l),
(351,345,l)
);
}
);
width = 409;
}
);
note = uni1449;
unicode = 5193;
},
{
glyphname = "pWestCree-canadian";
kernLeft = mwestleft;
kernRight = mwestright;
lastChange = "2023-01-13 15:54:20 +0000";
layers = (
{
layerId = "96DCC2AB-F6C9-4D02-A366-260ACDE51568";
shapes = (
{
closed = 1;
nodes = (
(155,345,l),
(228,690,l),
(159,690,l),
(86,345,l)
);
}
);
width = 196;
}
);
metricRight = "=|";
note = uni144A;
unicode = 5194;
},
{
color = 6;
glyphname = "hCarrier-canadian";
lastChange = "2023-01-13 15:54:20 +0000";
layers = (
{
layerId = "96DCC2AB-F6C9-4D02-A366-260ACDE51568";
shapes = (
{
closed = 1;
nodes = (
(120,183,l),
(146,308,ls),
(155,350,o),
(181,373,o),
(214,373,cs),
(255,373,o),
(271,348,o),
(262,303,cs),
(236,183,l),
(303,183,l),
(331,315,ls),
(347,386,o),
(309,435,o),
(239,435,cs),
(193,435,o),
(152,409,o),
(140,372,c),
(157,362,l),
(193,527,l),
(125,527,l),
(51,183,l)
);
}
);
width = 358;
}
);
metricLeft = "pWestCree-canadian";
note = uni144B;
unicode = 5195;
},
{
glyphname = "te-canadian";
lastChange = "2023-01-13 15:54:20 +0000";
layers = (
{
anchors = (
{
name = middle_center_can;
pos = (378,345);
},
{
name = top_center_can;
pos = (451,690);
},
{
name = top_left_can;
pos = (212,690);
},
{
name = top_right_can;
pos = (692,690);
}
);
layerId = "96DCC2AB-F6C9-4D02-A366-260ACDE51568";
shapes = (
{
closed = 1;
nodes = (
(509,-13,o),
(611,82,o),
(652,277,cs),
(740,690,l),
(644,690,l),
(557,280,ls),
(526,139,o),
(458,75,o),
(338,75,cs),
(200,75,o),
(145,150,o),
(178,300,cs),
(260,690,l),
(164,690,l),
(82,306,ls),
(40,103,o),
(136,-13,o),
(330,-13,cs)
);
}
);
width = 712;
}
);
metricRight = "=|";
note = uni144C;
unicode = 5196;
},
{
glyphname = "ti-canadian";
lastChange = "2023-01-13 15:54:24 +0000";
layers = (
{
anchors = (
{
name = middle_center_can;
pos = (379,345);
},
{
name = middle_right_can;
pos = (826,345);
},
{
name = top_center_can;
pos = (452,690);
},
{
name = top_left_can;
pos = (213,690);
},
{
name = top_right_can;
pos = (693,690);
}
);
layerId = "96DCC2AB-F6C9-4D02-A366-260ACDE51568";
shapes = (
{
closed = 1;
nodes = (
(113,0,l),
(201,410,ls),
(231,551,o),
(300,614,o),
(419,614,cs),
(557,614,o),
(612,540,o),
(580,389,cs),
(498,0,l),
(593,0,l),
(675,384,ls),
(718,586,o),
(621,702,o),
(427,702,cs),
(248,702,o),
(147,608,o),
(105,412,cs),
(17,0,l)
);
}
);
width = 712;
}
);
metricLeft = "te-canadian";
metricRight = "te-canadian";
note = uni144E;
unicode = 5198;
},
{
glyphname = "to-canadian";
kernLeft = toleft;
lastChange = "2023-01-13 15:54:20 +0000";
layers = (
{
anchors = (
{
name = middle_center_can;
pos = (276,345);
},
{
name = middle_right_can;
pos = (726,345);
},
{
name = top_center_can;
pos = (371,690);
},
{
name = top_double;
pos = (440,690);
},
{
name = top_left_can;
pos = (195,690);
},
{
name = top_right_can;
pos = (599,690);
}
);
layerId = "96DCC2AB-F6C9-4D02-A366-260ACDE51568";
shapes = (
{
closed = 1;
nodes = (
(169,0,ls),
(488,0,o),
(573,253,o),
(573,424,cs),
(573,591,o),
(472,690,o),
(294,690,cs),
(153,690,l),
(134,603,l),
(281,603,ls),
(410,603,o),
(477,538,o),
(477,417,cs),
(477,284,o),
(413,87,o),
(179,87,cs),
(24,87,l),
(6,0,l)
);
}
);
width = 607;
}
);
note = uni1450;
unicode = 5200;
},
{
glyphname = "ta-canadian";
kernRight = taright;
lastChange = "2023-01-13 15:54:24 +0000";
layers = (
{
anchors = (
{
name = middle_center_can;
pos = (376,345);
},
{
name = top_center_can;
pos = (428,690);
},
{
name = top_left_can;
pos = (199,690);
},
{
name = top_right_can;
pos = (603,690);
}
);
layerId = "96DCC2AB-F6C9-4D02-A366-260ACDE51568";
shapes = (
{
closed = 1;
nodes = (
(499,0,l),
(518,87,l),
(371,87,ls),
(242,87,o),
(176,152,o),
(176,272,cs),
(176,408,o),
(241,603,o),
(472,603,cs),
(628,603,l),
(646,690,l),
(482,690,ls),
(165,690,o),
(79,439,o),
(79,266,cs),
(79,99,o),
(179,0,o),
(357,0,cs)
);
}
);
width = 607;
}
);
metricLeft = "=|to-canadian";
metricRight = "=|to-canadian";
note = uni1455;
unicode = 5205;
},
{
glyphname = "t-canadian";
kernLeft = mwestleft;
kernRight = mwestright;
lastChange = "2023-01-13 15:54:20 +0000";
layers = (
{
layerId = "96DCC2AB-F6C9-4D02-A366-260ACDE51568";
shapes = (
{
closed = 1;
nodes = (
(329,345,l),
(344,409,l),
(270,409,ls),
(213,409,o),
(185,437,o),
(185,487,cs),
(185,551,o),
(216,626,o),
(317,626,cs),
(389,626,l),
(403,690,l),
(326,690,ls),
(187,690,o),
(117,595,o),
(117,481,cs),
(117,397,o),
(169,345,o),
(261,345,cs)
);
}
);
width = 369;
}
);
note = uni1466;
unicode = 5222;
},
{
glyphname = "ke-canadian";
lastChange = "2023-01-13 15:54:24 +0000";
layers = (
{
anchors = (
{
name = middle_center_can;
pos = (345,441);
},
{
name = top_center_can;
pos = (383,690);
},
{
name = top_left_can;
pos = (201,690);
},
{
name = top_right_can;
pos = (554,695);
}
);
layerId = "96DCC2AB-F6C9-4D02-A366-260ACDE51568";
shapes = (
{
closed = 1;
nodes = (
(467,0,l),
(554,412,ls),
(584,556,o),
(536,702,o),
(361,702,cs),
(184,702,o),
(102,538,o),
(102,400,cs),
(102,278,o),
(176,198,o),
(291,198,cs),
(364,198,o),
(423,235,o),
(451,298,c),
(437,312,l),
(371,0,l)
);
},
{
closed = 1;
nodes = (
(239,280,o),
(195,327,o),
(195,406,cs),
(195,484,o),
(236,620,o),
(354,620,cs),
(427,620,o),
(470,573,o),
(470,494,cs),
(470,414,o),
(430,280,o),
(312,280,cs)
);
}
);
width = 586;
}
);
metricRight = "te-canadian";
note = uni146B;
unicode = 5227;
},
{
glyphname = "ki-canadian";
lastChange = "2023-01-13 15:54:24 +0000";
layers = (
{
anchors = (
{
name = middle_center_can;
pos = (356,441);
},
{
name = top_center_can;
pos = (389,690);
},
{
name = top_left_can;
pos = (212,690);
},
{
name = top_right_can;
pos = (575,690);
}
);
layerId = "96DCC2AB-F6C9-4D02-A366-260ACDE51568";
shapes = (
{
closed = 1;
nodes = (
(113,0,l),
(184,330,l),
(171,325,l),
(169,259,o),
(233,198,o),
(326,198,cs),
(499,198,o),
(573,369,o),
(573,496,cs),
(573,623,o),
(495,702,o),
(369,702,cs),
(240,702,o),
(149,621,o),
(119,476,cs),
(17,0,l)
);
},
{
closed = 1;
nodes = (
(248,280,o),
(205,327,o),
(205,406,cs),
(205,483,o),
(244,620,o),
(362,620,cs),
(436,620,o),
(480,573,o),
(480,495,cs),
(480,417,o),
(440,280,o),
(322,280,cs)
);
}
);
width = 586;
}
);
metricLeft = "te-canadian";
metricRight = "=|ke-canadian";
note = uni146D;
unicode = 5229;
},
{
glyphname = "ko-canadian";
lastChange = "2023-01-13 15:54:24 +0000";
layers = (
{
anchors = (
{
name = middle_center_can;
pos = (329,355);
},
{
name = top_center_can;
pos = (384,690);
},
{
name = top_double;
pos = (566,690);
},
{
name = top_left_can;
pos = (203,690);
},
{
name = top_right_can;
pos = (566,690);
}
);
layerId = "96DCC2AB-F6C9-4D02-A366-260ACDE51568";
shapes = (
{
closed = 1;
nodes = (
(391,-13,o),
(482,69,o),
(513,213,cs),
(614,690,l),
(518,690,l),
(447,359,l),
(461,365,l),
(463,431,o),
(399,492,o),
(306,492,cs),
(130,492,o),
(58,320,o),
(58,194,cs),
(58,67,o),
(136,-13,o),
(266,-13,cs)
);
},
{
closed = 1;
nodes = (
(195,70,o),
(152,116,o),
(152,195,cs),
(152,272,o),
(193,410,o),
(310,410,cs),
(384,410,o),
(426,362,o),
(426,284,cs),
(426,206,o),
(387,70,o),
(269,70,cs)
);
}
);
width = 587;
}
);
metricLeft = "ke-canadian";
metricRight = "te-canadian";
note = uni146F;
unicode = 5231;
},
{
glyphname = "ka-canadian";
lastChange = "2023-01-13 15:54:24 +0000";
layers = (
{
anchors = (
{
name = middle_center_can;
pos = (337,357);
},
{
name = top_center_can;
pos = (393,690);
},
{
name = top_left_can;
pos = (212,690);
},
{
name = top_right_can;
pos = (575,690);
}
);
layerId = "96DCC2AB-F6C9-4D02-A366-260ACDE51568";
shapes = (
{
closed = 1;
nodes = (
(447,-13,o),
(529,152,o),
(529,289,cs),
(529,412,o),
(455,492,o),
(340,492,cs),
(267,492,o),
(209,455,o),
(180,392,c),
(194,378,l),
(260,690,l),
(164,690,l),
(76,278,ls),
(40,102,o),
(120,-13,o),
(272,-13,cs)
);
},
{
closed = 1;
nodes = (
(204,70,o),
(160,117,o),
(160,196,cs),
(160,275,o),
(201,410,o),
(319,410,cs),
(392,410,o),
(436,362,o),
(436,284,cs),
(436,207,o),
(395,70,o),
(277,70,cs)
);
}
);
width = 587;
}
);
metricLeft = "te-canadian";
metricRight = "==|ke-canadian";
note = uni1472;
unicode = 5234;
},
{
glyphname = "k-canadian";
kernLeft = mwestleft;
kernRight = mwestright;
lastChange = "2023-01-13 15:54:20 +0000";
layers = (
{
layerId = "96DCC2AB-F6C9-4D02-A366-260ACDE51568";
shapes = (
{
closed = 1;
nodes = (
(318,339,o),
(369,422,o),
(369,497,cs),
(369,559,o),
(331,601,o),
(270,601,cs),
(227,601,o),
(193,576,o),
(176,538,c),
(195,535,l),
(228,690,l),
(159,690,l),
(117,490,ls),
(101,413,o),
(129,339,o),
(226,339,cs)
);
},
{
closed = 1;
nodes = (
(196,390,o),
(175,413,o),
(175,449,cs),
(175,494,o),
(202,551,o),
(252,551,cs),
(286,551,o),
(307,528,o),
(307,492,cs),
(307,447,o),
(280,390,o),
(230,390,cs)
);
}
);
width = 373;
}
);
note = uni1483;
unicode = 5251;
},
{
glyphname = "kw-canadian";
kernLeft = mwestleft;
kernRight = mwestright;
lastChange = "2023-01-13 15:54:24 +0000";
layers = (
{
layerId = "96DCC2AB-F6C9-4D02-A366-260ACDE51568";
shapes = (
{
closed = 1;
nodes = (
(289,339,o),
(340,383,o),
(357,465,cs),
(406,690,l),
(337,690,l),
(303,531,l),
(319,531,l),
(318,571,o),
(283,601,o),
(236,601,cs),
(152,601,o),
(103,521,o),
(103,448,cs),
(103,383,o),
(148,339,o),
(217,339,cs)
);
},
{
closed = 1;
nodes = (
(185,390,o),
(164,412,o),
(164,449,cs),
(164,493,o),
(191,550,o),
(242,550,cs),
(275,550,o),
(298,526,o),
(298,491,cs),
(298,448,o),
(270,390,o),
(219,390,cs)
);
}
);
width = 373;
}
);
metricLeft = "=|k-canadian";
metricRight = "=|k-canadian";
note = uni1484;
unicode = 5252;
},
{
glyphname = "ce-canadian";
kernLeft = celeft;
lastChange = "2023-01-13 15:54:20 +0000";
layers = (
{
anchors = (
{
name = middle_center_can;
pos = (335,399);
},
{
name = top_center_can;
pos = (384,690);
},
{
name = top_left_can;
pos = (203,690);
},
{
name = top_right_can;
pos = (561,690);
}
);
layerId = "96DCC2AB-F6C9-4D02-A366-260ACDE51568";
shapes = (
{
closed = 1;
nodes = (
(462,0,l),
(554,435,ls),
(588,593,o),
(511,702,o),
(360,702,cs),
(224,702,o),
(142,623,o),
(107,465,cs),
(91,387,l),
(185,387,l),
(202,462,ls),
(224,570,o),
(272,618,o),
(353,618,cs),
(445,618,o),
(483,552,o),
(460,445,cs),
(366,0,l)
);
}
);
width = 581;
}
);
metricRight = "te-canadian";
note = uni1489;
unicode = 5257;
},
{
glyphname = "ci-canadian";
kernRight = ciright;
lastChange = "2023-01-13 15:54:20 +0000";
layers = (
{
anchors = (
{
name = middle_center_can;
pos = (338,399);
},
{
name = top_center_can;
pos = (394,690);
},
{
name = top_left_can;
pos = (212,690);
},
{
name = top_right_can;
pos = (571,690);
}
);
layerId = "96DCC2AB-F6C9-4D02-A366-260ACDE51568";
shapes = (
{
closed = 1;
nodes = (
(113,0,l),
(211,462,ls),
(234,570,o),
(282,618,o),
(362,618,cs),
(456,618,o),
(492,552,o),
(469,445,cs),
(458,387,l),
(553,387,l),
(563,435,ls),
(598,593,o),
(520,702,o),
(369,702,cs),
(233,702,o),
(151,623,o),
(116,465,cs),
(17,0,l)
);
}
);
width = 581;
}
);
metricLeft = "te-canadian";
metricRight = "=|ce-canadian";
note = uni148B;
unicode = 5259;
},
{
glyphname = "co-canadian";
kernLeft = coleft;
lastChange = "2023-01-13 15:54:20 +0000";
layers = (
{
anchors = (
{
name = middle_center_can;
pos = (335,399);
},
{
name = top_center_can;
pos = (384,690);
},
{
name = top_double;
pos = (561,690);
},
{
name = top_left_can;
pos = (203,690);
},
{
name = top_right_can;
pos = (561,690);
}
);
layerId = "96DCC2AB-F6C9-4D02-A366-260ACDE51568";
shapes = (
{
closed = 1;
nodes = (
(393,-13,o),
(475,67,o),
(509,225,cs),
(609,690,l),
(513,690,l),
(414,228,ls),
(392,120,o),
(344,71,o),
(264,71,cs),
(170,71,o),
(134,138,o),
(156,244,cs),
(168,302,l),
(72,302,l),
(63,255,ls),
(28,97,o),
(106,-13,o),
(257,-13,cs)
);
}
);
width = 581;
}
);
metricLeft = "ce-canadian";
metricRight = "te-canadian";
note = uni148D;
unicode = 5261;
},
{
glyphname = "ca-canadian";
kernRight = caright;
lastChange = "2023-01-13 15:54:24 +0000";
layers = (
{
anchors = (
{
name = middle_center_can;
pos = (339,399);
},
{
name = top_center_can;
pos = (394,690);
},
{
name = top_left_can;
pos = (213,690);
},
{
name = top_right_can;
pos = (570,690);
}
);
layerId = "96DCC2AB-F6C9-4D02-A366-260ACDE51568";
shapes = (
{
closed = 1;
nodes = (
(402,-13,o),
(484,67,o),
(518,225,cs),
(534,302,l),
(440,302,l),
(424,228,ls),
(401,120,o),
(354,71,o),
(273,71,cs),
(180,71,o),
(143,138,o),
(165,244,cs),
(260,690,l),
(164,690,l),
(72,255,ls),
(38,97,o),
(115,-13,o),
(266,-13,cs)
);
}
);
width = 580;
}
);
metricLeft = "te-canadian";
metricRight = "=|ce-canadian";
note = uni1490;
unicode = 5264;
},
{
glyphname = "c-canadian";
kernLeft = mwestleft;
kernRight = mwestright;
lastChange = "2023-01-13 15:54:20 +0000";
layers = (
{
layerId = "96DCC2AB-F6C9-4D02-A366-260ACDE51568";
shapes = (
{
closed = 1;
nodes = (
(298,339,o),
(350,382,o),
(366,458,cs),
(372,487,l),
(308,487,l),
(301,456,ls),
(292,414,o),
(268,393,o),
(231,393,cs),
(188,393,o),
(171,419,o),
(182,469,cs),
(228,690,l),
(160,690,l),
(115,479,ls),
(98,393,o),
(140,339,o),
(227,339,cs)
);
}
);
width = 363;
}
);
note = uni14A1;
unicode = 5281;
},
{
glyphname = "thSayisi-canadian";
lastChange = "2023-01-13 15:54:24 +0000";
layers = (
{
layerId = "96DCC2AB-F6C9-4D02-A366-260ACDE51568";
shapes = (
{
closed = 1;
nodes = (
(280,339,o),
(328,382,o),
(346,458,cs),
(395,690,l),
(327,690,l),
(277,458,ls),
(268,413,o),
(242,393,o),
(206,393,cs),
(163,393,o),
(146,421,o),
(155,464,cs),
(159,487,l),
(96,487,l),
(93,470,ls),
(76,395,o),
(119,339,o),
(203,339,cs)
);
}
);
width = 364;
}
);
metricLeft = "=|c-canadian";
metricRight = "=|c-canadian";
note = uni14A2;
unicode = 5282;
},
{
glyphname = "me-canadian";
kernLeft = meleft;
lastChange = "2023-01-13 15:54:25 +0000";
layers = (
{
anchors = (
{
name = middle_center_can;
pos = (220,345);
},
{
name = top_center_can;
pos = (344,690);
},
{
name = top_left_can;
pos = (184,690);
},
{
name = top_right_can;
pos = (499,690);
}
);
layerId = "96DCC2AB-F6C9-4D02-A366-260ACDE51568";
shapes = (
{
closed = 1;
nodes = (
(401,0,l),
(548,690,l),
(136,690,l),
(118,603,l),
(434,603,l),
(305,0,l)
);
}
);
width = 528;
}
);
metricRight = "nunavuth-canadian";
note = uni14A3;
unicode = 5283;
},
{
glyphname = "mi-canadian";
kernRight = miright;
lastChange = "2023-01-13 15:54:20 +0000";
layers = (
{
anchors = (
{
name = middle_center_can;
pos = (353,345);
},
{
name = top_center_can;
pos = (378,690);
},
{
name = top_left_can;
pos = (220,690);
},
{
name = top_right_can;
pos = (535,690);
}
);
layerId = "96DCC2AB-F6C9-4D02-A366-260ACDE51568";
shapes = (
{
closed = 1;
nodes = (
(121,0,l),
(249,603,l),
(565,603,l),
(583,690,l),
(172,690,l),
(25,0,l)
);
}
);
width = 528;
}
);
metricLeft = "nunavuth-canadian";
metricRight = "=|me-canadian";
note = uni14A5;
unicode = 5285;
},
{
glyphname = "mo-canadian";
kernLeft = moleft;
lastChange = "2023-01-13 15:54:25 +0000";
layers = (
{
anchors = (
{
name = middle_center_can;
pos = (221,345);
},
{
name = top_center_can;
pos = (344,690);
},
{
name = top_double;
pos = (500,690);
},
{
name = top_left_can;
pos = (184,690);
},
{
name = top_right_can;
pos = (500,690);
}
);
layerId = "96DCC2AB-F6C9-4D02-A366-260ACDE51568";
shapes = (
{
closed = 1;
nodes = (
(401,0,l),
(548,690,l),
(452,690,l),
(324,87,l),
(8,87,l),
(-11,0,l)
);
}
);
width = 528;
}
);
metricLeft = "me-canadian";
metricRight = "nunavuth-canadian";
note = uni14A7;
unicode = 5287;
},
{
glyphname = "ma-canadian";
kernRight = maright;
lastChange = "2023-01-13 15:54:20 +0000";
layers = (
{
anchors = (
{
name = middle_center_can;
pos = (353,345);
},
{
name = top_center_can;
pos = (378,690);
},
{
name = top_left_can;
pos = (220,690);
},
{
name = top_right_can;
pos = (535,690);
}
);
layerId = "96DCC2AB-F6C9-4D02-A366-260ACDE51568";
shapes = (
{
closed = 1;
nodes = (
(437,0,l),
(455,87,l),
(139,87,l),
(268,690,l),
(172,690,l),
(25,0,l)
);
}
);
width = 528;
}
);
metricLeft = "nunavuth-canadian";
metricRight = "=|me-canadian";
note = uni14AA;
unicode = 5290;
},
{
glyphname = "m-canadian";
kernLeft = mwestleft;
kernRight = mwestright;
lastChange = "2023-01-13 15:54:20 +0000";
layers = (
{
layerId = "96DCC2AB-F6C9-4D02-A366-260ACDE51568";
shapes = (
{
closed = 1;
nodes = (
(311,345,l),
(325,409,l),
(168,409,l),
(228,690,l),
(159,690,l),
(86,345,l)
);
}
);
width = 337;
}
);
metricLeft = "pWestCree-canadian";
note = uni14BB;
unicode = 5307;
},
{
glyphname = "mh-canadian";
kernLeft = mwestleft;
kernRight = mwestright;
lastChange = "2023-01-13 15:54:24 +0000";
layers = (
{
layerId = "96DCC2AB-F6C9-4D02-A366-260ACDE51568";
shapes = (
{
closed = 1;
nodes = (
(296,345,l),
(369,690,l),
(300,690,l),
(241,409,l),
(84,409,l),
(70,345,l)
);
}
);
width = 337;
}
);
metricLeft = "=|m-canadian";
metricRight = "=|m-canadian";
note = uni14BD;
unicode = 5309;
},
{
glyphname = "mAthapascan-canadian";
lastChange = "2023-01-13 15:54:20 +0000";
layers = (
{
layerId = "96DCC2AB-F6C9-4D02-A366-260ACDE51568";
shapes = (
{
closed = 1;
nodes = (
(326,345,l),
(338,400,l),
(169,400,l),
(167,370,l),
(299,482,ls),
(342,518,o),
(364,554,o),
(364,601,cs),
(364,657,o),
(324,696,o),
(259,696,cs),
(189,696,o),
(140,658,o),
(125,572,c),
(185,572,l),
(195,623,o),
(219,644,o),
(254,644,cs),
(285,644,o),
(303,627,o),
(303,598,cs),
(303,564,o),
(285,538,o),
(244,504,cs),
(98,379,l),
(90,345,l)
);
}
);
width = 353;
}
);
note = uni14BE;
unicode = 5310;
},
{
glyphname = "ne-canadian";
kernLeft = neleft;
lastChange = "2023-01-13 15:54:20 +0000";
layers = (
{
anchors = (
{
name = middle_center_can;
pos = (511,245);
},
{
name = top_center_can;
pos = (554,497);
},
{
name = top_left_can;
pos = (158,497);
},
{
name = top_right_can;
pos = (753,497);
}
);
layerId = "96DCC2AB-F6C9-4D02-A366-260ACDE51568";
shapes = (
{
closed = 1;
nodes = (
(655,-13,o),
(746,137,o),
(746,274,cs),
(746,398,o),
(664,479,o),
(528,479,cs),
(106,479,l),
(88,393,l),
(416,393,l),
(414,431,l),
(308,392,o),
(272,274,o),
(272,190,cs),
(272,69,o),
(355,-13,o),
(488,-13,cs)
);
},
{
closed = 1;
nodes = (
(412,70,o),
(365,119,o),
(365,195,cs),
(365,282,o),
(416,397,o),
(526,397,cs),
(607,397,o),
(652,348,o),
(652,271,cs),
(652,185,o),
(602,70,o),
(492,70,cs)
);
}
);
width = 806;
}
);
metricRight = "=|ke-canadian";
note = uni14C0;
unicode = 5312;
},
{
glyphname = "ni-canadian";
kernRight = niright;
lastChange = "2023-01-13 15:54:20 +0000";
layers = (
{
anchors = (
{
name = middle_center_can;
pos = (296,245);
},
{
name = top_center_can;
pos = (362,497);
},
{
name = top_left_can;
pos = (161,497);
},
{
name = top_right_can;
pos = (757,497);
}
);
layerId = "96DCC2AB-F6C9-4D02-A366-260ACDE51568";
shapes = (
{
closed = 1;
nodes = (
(440,-13,o),
(531,137,o),
(531,274,cs),
(531,332,o),
(506,380,o),
(469,404,c),
(453,393,l),
(783,393,l),
(802,479,l),
(322,479,ls),
(147,479,o),
(57,330,o),
(57,192,cs),
(57,69,o),
(141,-13,o),
(273,-13,cs)
);
},
{
closed = 1;
nodes = (
(197,70,o),
(151,119,o),
(151,195,cs),
(151,282,o),
(202,397,o),
(312,397,cs),
(392,397,o),
(438,348,o),
(438,271,cs),
(438,185,o),
(387,70,o),
(277,70,cs)
);
}
);
width = 806;
}
);
metricLeft = "ke-canadian";
metricRight = "=|ne-canadian";
note = uni14C2;
unicode = 5314;
},
{
glyphname = "no-canadian";
kernLeft = noleft;
lastChange = "2023-01-13 15:54:20 +0000";
layers = (
{
anchors = (
{
name = middle_center_can;
pos = (512,245);
},
{
name = top_center_can;
pos = (563,497);
},
{
name = top_double;
pos = (566,497);
},
{
name = top_left_can;
pos = (158,497);
},
{
name = top_right_can;
pos = (754,497);
}
);
layerId = "96DCC2AB-F6C9-4D02-A366-260ACDE51568";
shapes = (
{
closed = 1;
nodes = (
(484,0,ls),
(659,0,o),
(749,148,o),
(749,287,cs),
(749,411,o),
(665,492,o),
(532,492,cs),
(365,492,o),
(274,342,o),
(274,204,cs),
(274,147,o),
(299,99,o),
(336,75,c),
(353,86,l),
(22,86,l),
(4,0,l)
);
},
{
closed = 1;
nodes = (
(413,82,o),
(368,131,o),
(368,208,cs),
(368,295,o),
(418,410,o),
(528,410,cs),
(609,410,o),
(655,360,o),
(655,284,cs),
(655,197,o),
(604,82,o),
(494,82,cs)
);
}
);
width = 806;
}
);
metricLeft = "ne-canadian";
metricRight = "=|ke-canadian";
note = uni14C4;
unicode = 5316;
},
{
glyphname = "na-canadian";
kernRight = naright;
lastChange = "2023-01-13 15:54:20 +0000";
layers = (
{
anchors = (
{
name = middle_center_can;
pos = (297,245);
},
{
name = top_center_can;
pos = (352,497);
},
{
name = top_double;
pos = (508,497);
},
{
name = top_left_can;
pos = (161,497);
},
{
name = top_right_can;
pos = (757,497);
}
);
layerId = "96DCC2AB-F6C9-4D02-A366-260ACDE51568";
shapes = (
{
closed = 1;
nodes = (
(699,0,l),
(718,86,l),
(389,86,l),
(391,48,l),
(497,87,o),
(533,205,o),
(533,288,cs),
(533,411,o),
(450,492,o),
(318,492,cs),
(151,492,o),
(60,342,o),
(60,205,cs),
(60,81,o),
(142,0,o),
(277,0,cs)
);
},
{
closed = 1;
nodes = (
(199,82,o),
(154,131,o),
(154,208,cs),
(154,295,o),
(204,410,o),
(314,410,cs),
(394,410,o),
(440,360,o),
(440,284,cs),
(440,197,o),
(389,82,o),
(279,82,cs)
);
}
);
width = 806;
}
);
metricLeft = "ke-canadian";
metricRight = "=|ne-canadian";
note = uni14C7;
unicode = 5319;
},
{
glyphname = "n-canadian";
kernLeft = mwestleft;
kernRight = mwestright;
lastChange = "2023-01-13 15:54:24 +0000";
layers = (
{
layerId = "96DCC2AB-F6C9-4D02-A366-260ACDE51568";
shapes = (
{
closed = 1;
nodes = (
(471,435,l),
(486,497,l),
(309,497,l),
(304,459,l),
(356,478,o),
(378,543,o),
(378,585,cs),
(378,652,o),
(332,696,o),
(262,696,cs),
(175,696,o),
(124,623,o),
(124,547,cs),
(124,479,o),
(168,435,o),
(239,435,cs)
);
},
{
closed = 1;
nodes = (
(205,485,o),
(184,509,o),
(184,546,cs),
(184,584,o),
(205,645,o),
(261,645,cs),
(297,645,o),
(318,621,o),
(318,585,cs),
(318,547,o),
(297,485,o),
(241,485,cs)
);
}
);
width = 478;
}
);
metricLeft = "=|k-canadian";
note = uni14D0;
unicode = 5328;
},
{
glyphname = "nh-canadian";
kernLeft = mwestleft;
kernRight = mwestright;
lastChange = "2023-01-13 15:54:20 +0000";
layers = (
{
layerId = "96DCC2AB-F6C9-4D02-A366-260ACDE51568";
shapes = (
{
closed = 1;
nodes = (
(351,435,ls),
(442,435,o),
(493,507,o),
(493,585,cs),
(493,651,o),
(448,696,o),
(378,696,cs),
(291,696,o),
(240,623,o),
(240,547,cs),
(240,511,o),
(257,484,o),
(274,471,c),
(284,497,l),
(102,497,l),
(89,435,l)
);
},
{
closed = 1;
nodes = (
(321,485,o),
(299,509,o),
(299,546,cs),
(299,584,o),
(321,645,o),
(376,645,cs),
(412,645,o),
(433,621,o),
(433,585,cs),
(433,547,o),
(412,485,o),
(356,485,cs)
);
}
);
width = 478;
}
);
metricLeft = "=|n-canadian";
metricRight = "=|n-canadian";
note = uni14D2;
unicode = 5330;
},
{
glyphname = "le-canadian";
kernLeft = neleft;
lastChange = "2023-01-13 15:54:20 +0000";
layers = (
{
anchors = (
{
name = middle_center_can;
pos = (511,245);
},
{
name = top_center_can;
pos = (554,497);
},
{
name = top_left_can;
pos = (158,497);
},
{
name = top_right_can;
pos = (753,497);
}
);
layerId = "96DCC2AB-F6C9-4D02-A366-260ACDE51568";
shapes = (
{
closed = 1;
nodes = (
(445,0,ls),
(659,0,o),
(747,137,o),
(747,281,cs),
(747,402,o),
(667,479,o),
(533,479,cs),
(106,479,l),
(88,392,l),
(516,392,ls),
(604,392,o),
(651,349,o),
(651,273,cs),
(651,183,o),
(602,85,o),
(456,85,cs),
(410,85,l),
(391,0,l)
);
}
);
width = 806;
}
);
metricLeft = "ne-canadian";
metricRight = "=|ke-canadian";
note = uni14D3;
unicode = 5331;
},
{
glyphname = "li-canadian";
kernRight = niright;
lastChange = "2023-01-13 15:54:20 +0000";
layers = (
{
anchors = (
{
name = middle_center_can;
pos = (298,245);
},
{
name = top_center_can;
pos = (363,497);
},
{
name = top_left_can;
pos = (163,497);
},
{
name = top_right_can;
pos = (757,497);
}
);
layerId = "96DCC2AB-F6C9-4D02-A366-260ACDE51568";
shapes = (
{
closed = 1;
nodes = (
(313,0,l),
(331,85,l),
(288,85,ls),
(202,85,o),
(154,129,o),
(154,205,cs),
(154,294,o),
(204,392,o),
(350,392,cs),
(783,392,l),
(801,479,l),
(358,479,ls),
(152,479,o),
(59,348,o),
(59,202,cs),
(59,82,o),
(140,0,o),
(269,0,cs)
);
}
);
width = 806;
}
);
metricLeft = "ke-canadian";
metricRight = "=|ne-canadian";
note = uni14D5;
unicode = 5333;
},
{
glyphname = "lo-canadian";
kernLeft = noleft;
lastChange = "2023-01-13 15:54:24 +0000";
layers = (
{
anchors = (
{
name = middle_center_can;
pos = (511,245);
},
{
name = top_center_can;
pos = (562,497);
},
{
name = top_double;
pos = (551,497);
},
{
name = top_left_can;
pos = (157,497);
},
{
name = top_right_can;
pos = (753,497);
}
);
layerId = "96DCC2AB-F6C9-4D02-A366-260ACDE51568";
shapes = (
{
closed = 1;
nodes = (
(447,0,ls),
(654,0,o),
(747,131,o),
(747,277,cs),
(747,397,o),
(666,479,o),
(537,479,cs),
(493,479,l),
(474,394,l),
(518,394,ls),
(604,394,o),
(652,350,o),
(652,274,cs),
(652,185,o),
(602,87,o),
(456,87,cs),
(23,87,l),
(5,0,l)
);
}
);
width = 806;
}
);
metricLeft = "ne-canadian";
metricRight = "=|ke-canadian";
note = uni14D7;
unicode = 5335;
},
{
glyphname = "la-canadian";
kernRight = naright;
lastChange = "2023-01-13 15:54:24 +0000";
layers = (
{
anchors = (
{
name = middle_center_can;
pos = (298,245);
},
{
name = top_center_can;
pos = (353,497);
},
{
name = top_left_can;
pos = (163,497);
},
{
name = top_right_can;
pos = (757,497);
}
);
layerId = "96DCC2AB-F6C9-4D02-A366-260ACDE51568";
shapes = (
{
closed = 1;
nodes = (
(699,0,l),
(718,87,l),
(290,87,ls),
(202,87,o),
(156,129,o),
(156,206,cs),
(156,297,o),
(204,394,o),
(350,394,cs),
(396,394,l),
(414,479,l),
(361,479,ls),
(147,479,o),
(59,342,o),
(59,198,cs),
(59,77,o),
(139,0,o),
(272,0,cs)
);
}
);
width = 805;
}
);
metricLeft = "ke-canadian";
metricRight = "=|ne-canadian";
note = uni14DA;
unicode = 5338;
},
{
glyphname = "l-canadian";
kernLeft = mwestleft;
kernRight = mwestright;
lastChange = "2023-01-13 15:54:20 +0000";
layers = (
{
layerId = "96DCC2AB-F6C9-4D02-A366-260ACDE51568";
shapes = (
{
closed = 1;
nodes = (
(447,345,l),
(461,409,l),
(271,409,ls),
(215,409,o),
(185,437,o),
(185,487,cs),
(185,549,o),
(214,628,o),
(314,628,cs),
(336,628,l),
(349,690,l),
(321,690,ls),
(185,690,o),
(117,594,o),
(117,481,cs),
(117,396,o),
(172,345,o),
(267,345,cs)
);
}
);
width = 473;
}
);
metricLeft = "t-canadian";
metricRight = "m-canadian";
note = uni14EA;
unicode = 5354;
},
{
glyphname = "lWestCree-canadian";
kernLeft = mwestleft;
kernRight = mwestright;
lastChange = "2023-01-13 15:54:24 +0000";
layers = (
{
layerId = "96DCC2AB-F6C9-4D02-A366-260ACDE51568";
shapes = (
{
closed = 1;
nodes = (
(327,345,l),
(335,386,l),
(168,459,l),
(160,426,l),
(359,498,l),
(365,528,l),
(197,600,l),
(190,567,l),
(389,640,l),
(400,690,l),
(386,690,l),
(141,600,l),
(136,576,l),
(309,505,l),
(315,529,l),
(111,459,l),
(105,434,l),
(313,345,l)
);
}
);
width = 369;
}
);
metricRight = "=|";
note = uni14EB;
unicode = 5355;
},
{
glyphname = "mediall-canadian";
lastChange = "2023-01-13 15:54:24 +0000";
layers = (
{
layerId = "96DCC2AB-F6C9-4D02-A366-260ACDE51568";
shapes = (
{
closed = 1;
nodes = (
(515,-13,l),
(528,51,l),
(159,209,l),
(150,162,l),
(585,319,l),
(594,360,l),
(224,511,l),
(215,469,l),
(650,625,l),
(667,702,l),
(641,702,l),
(128,517,l),
(121,479,l),
(492,327,l),
(499,362,l),
(64,211,l),
(56,173,l),
(490,-13,l)
);
}
);
width = 638;
}
);
metricRight = "=|";
note = uni14EC;
unicode = 5356;
},
{
glyphname = "se-canadian";
kernRight = seright;
lastChange = "2023-01-13 15:54:20 +0000";
layers = (
{
anchors = (
{
name = top_left_can;
pos = (217,690);
},
{
name = top_right_can;
pos = (512,690);
}
);
layerId = "96DCC2AB-F6C9-4D02-A366-260ACDE51568";
shapes = (
{
closed = 1;
nodes = (
(412,0,l),
(483,332,l),
(444,332,ls),
(276,332,o),
(206,415,o),
(245,595,cs),
(266,690,l),
(169,690,l),
(148,588,ls),
(103,380,o),
(209,246,o),
(424,246,cs),
(445,246,l),
(376,279,l),
(317,0,l)
);
}
);
width = 539;
}
);
note = uni14ED;
unicode = 5357;
},
{
glyphname = "si-canadian";
kernLeft = sileft;
lastChange = "2023-01-13 15:54:24 +0000";
layers = (
{
anchors = (
{
name = top_left_can;
pos = (220,690);
},
{
name = top_right_can;
pos = (515,690);
}
);
layerId = "96DCC2AB-F6C9-4D02-A366-260ACDE51568";
shapes = (
{
closed = 1;
nodes = (
(122,0,l),
(182,281,l),
(102,246,l),
(144,246,ls),
(353,246,o),
(489,352,o),
(539,584,cs),
(562,690,l),
(466,690,l),
(445,593,ls),
(407,420,o),
(305,332,o),
(148,332,cs),
(96,332,l),
(25,0,l)
);
}
);
width = 539;
}
);
metricLeft = "=|se-canadian";
metricRight = "=|se-canadian";
note = uni14EF;
unicode = 5359;
},
{
glyphname = "so-canadian";
kernRight = soright;
lastChange = "2023-01-13 15:54:24 +0000";
layers = (
{
anchors = (
{
name = top_double;
pos = (512,690);
},
{
name = top_left_can;
pos = (217,690);
},
{
name = top_right_can;
pos = (512,690);
}
);
layerId = "96DCC2AB-F6C9-4D02-A366-260ACDE51568";
shapes = (
{
closed = 1;
nodes = (
(119,0,l),
(140,97,ls),
(178,270,o),
(279,357,o),
(437,357,cs),
(489,357,l),
(559,690,l),
(464,690,l),
(404,409,l),
(482,443,l),
(440,443,ls),
(233,443,o),
(96,338,o),
(45,105,cs),
(22,0,l)
);
}
);
width = 540;
}
);
metricLeft = "se-canadian";
metricRight = "se-canadian";
note = uni14F1;
unicode = 5361;
},
{
glyphname = "sa-canadian";
kernLeft = saleft;
kernRight = saright;
lastChange = "2023-01-13 15:54:24 +0000";
layers = (
{
anchors = (
{
name = top_left_can;
pos = (220,690);
},
{
name = top_right_can;
pos = (514,690);
}
);
layerId = "96DCC2AB-F6C9-4D02-A366-260ACDE51568";
shapes = (
{
closed = 1;
nodes = (
(415,0,l),
(437,101,ls),
(481,310,o),
(376,443,o),
(160,443,cs),
(139,443,l),
(209,411,l),
(268,690,l),
(172,690,l),
(101,357,l),
(140,357,ls),
(307,357,o),
(379,274,o),
(339,95,cs),
(319,0,l)
);
}
);
width = 539;
}
);
metricLeft = "=|se-canadian";
metricRight = "=|se-canadian";
note = uni14F4;
unicode = 5364;
},
{
glyphname = "s-canadian";
kernLeft = mwestleft;
kernRight = mwestright;
lastChange = "2023-01-13 15:54:20 +0000";
layers = (
{
layerId = "96DCC2AB-F6C9-4D02-A366-260ACDE51568";
shapes = (
{
closed = 1;
nodes = (
(315,345,l),
(327,395,ls),
(350,507,o),
(294,580,o),
(184,580,cs),
(163,580,l),
(198,549,l),
(228,690,l),
(159,690,l),
(125,525,l),
(159,525,ls),
(242,525,o),
(276,482,o),
(259,398,cs),
(247,345,l)
);
}
);
width = 357;
}
);
metricRight = "=|";
note = uni1505;
unicode = 5381;
},
{
color = 6;
glyphname = "sAthapascan-canadian";
lastChange = "2023-01-13 15:54:20 +0000";
layers = (
{
layerId = "96DCC2AB-F6C9-4D02-A366-260ACDE51568";
shapes = (
{
closed = 1;
nodes = (
(280,177,o),
(325,225,o),
(325,285,cs),
(325,324,o),
(302,352,o),
(263,366,cs),
(201,387,ls),
(177,396,o),
(167,411,o),
(167,429,cs),
(167,461,o),
(190,484,o),
(237,484,cs),
(280,484,o),
(301,464,o),
(294,424,c),
(354,424,l),
(365,492,o),
(318,533,o),
(241,533,cs),
(151,533,o),
(107,485,o),
(107,424,cs),
(107,384,o),
(133,355,o),
(168,342,cs),
(230,321,ls),
(255,311,o),
(265,298,o),
(265,279,cs),
(265,247,o),
(241,226,o),
(195,226,cs),
(145,226,o),
(127,247,o),
(133,288,c),
(73,288,l),
(62,220,o),
(103,177,o),
(192,177,cs)
);
}
);
width = 381;
}
);
metricRight = "=|";
note = uni1506;
unicode = 5382;
},
{
glyphname = "sw-canadian";
kernLeft = mwestleft;
kernRight = mwestright;
lastChange = "2023-01-13 15:54:24 +0000";
layers = (
{
layerId = "96DCC2AB-F6C9-4D02-A366-260ACDE51568";
shapes = (
{
closed = 1;
nodes = (
(153,345,l),
(163,395,ls),
(183,486,o),
(228,525,o),
(317,525,cs),
(352,525,l),
(386,690,l),
(319,690,l),
(289,550,l),
(337,580,l),
(302,580,ls),
(190,580,o),
(121,520,o),
(97,400,cs),
(85,345,l)
);
}
);
width = 354;
}
);
metricLeft = "=|s-canadian";
metricRight = "=|s-canadian";
note = uni1507;
unicode = 5383;
},
{
glyphname = "sBlackfoot-canadian";
lastChange = "2023-01-13 15:54:20 +0000";
layers = (
{
layerId = "96DCC2AB-F6C9-4D02-A366-260ACDE51568";
shapes = (
{
closed = 1;
nodes = (
(322,345,l),
(335,409,l),
(248,409,ls),
(196,409,o),
(174,435,o),
(185,492,cs),
(228,690,l),
(159,690,l),
(118,493,ls),
(99,401,o),
(142,345,o),
(238,345,cs)
);
}
);
width = 348;
}
);
metricLeft = "ai-canadian";
metricRight = "m-canadian";
note = uni1508;
unicode = 5384;
},
{
glyphname = "moosecreesk-canadian";
kernLeft = mwestleft;
kernRight = mwestright;
lastChange = "2023-01-13 15:54:24 +0000";
layers = (
{
layerId = "96DCC2AB-F6C9-4D02-A366-260ACDE51568";
shapes = (
{
closed = 1;
nodes = (
(307,217,o),
(350,321,o),
(350,421,cs),
(350,523,o),
(300,580,o),
(191,580,cs),
(174,580,l),
(199,550,l),
(229,690,l),
(160,690,l),
(126,525,l),
(173,525,ls),
(259,525,o),
(290,496,o),
(286,412,c),
(303,418,l),
(296,452,o),
(267,477,o),
(218,477,cs),
(130,477,o),
(87,397,o),
(87,328,cs),
(87,262,o),
(131,217,o),
(202,217,cs)
);
},
{
closed = 1;
nodes = (
(167,268,o),
(147,292,o),
(147,328,cs),
(147,372,o),
(174,429,o),
(225,429,cs),
(260,429,o),
(281,406,o),
(281,370,cs),
(281,323,o),
(251,268,o),
(205,268,cs)
);
}
);
width = 383;
}
);
metricRight = "=|";
note = uni1509;
unicode = 5385;
},
{
glyphname = "skwNaskapi-canadian";
kernLeft = mwestleft;
kernRight = mwestright;
lastChange = "2023-01-13 15:54:24 +0000";
layers = (
{
layerId = "96DCC2AB-F6C9-4D02-A366-260ACDE51568";
shapes = (
{
closed = 1;
nodes = (
(296,217,o),
(343,298,o),
(343,373,cs),
(343,436,o),
(305,477,o),
(246,477,cs),
(205,477,o),
(170,454,o),
(154,413,c),
(170,423,l),
(195,492,o),
(242,525,o),
(325,525,cs),
(377,525,l),
(411,690,l),
(343,690,l),
(313,549,l),
(353,580,l),
(321,580,ls),
(153,580,o),
(90,436,o),
(90,335,cs),
(90,265,o),
(132,217,o),
(205,217,cs)
);
},
{
closed = 1;
nodes = (
(170,268,o),
(151,292,o),
(151,328,cs),
(151,372,o),
(177,429,o),
(227,429,cs),
(262,429,o),
(282,406,o),
(282,370,cs),
(282,323,o),
(253,268,o),
(207,268,cs)
);
}
);
width = 383;
}
);
metricLeft = "=|moosecreesk-canadian";
metricRight = "=|moosecreesk-canadian";
note = uni150A;
unicode = 5386;
},
{
glyphname = "swNaskapi-canadian";
lastChange = "2023-01-13 15:54:24 +0000";
layers = (
{
layerId = "96DCC2AB-F6C9-4D02-A366-260ACDE51568";
shapes = (
{
closed = 1;
nodes = (
(298,183,l),
(308,227,ls),
(331,336,o),
(279,406,o),
(170,406,cs),
(146,406,l),
(173,375,l),
(202,508,l),
(133,508,l),
(100,351,l),
(144,351,ls),
(225,351,o),
(259,314,o),
(241,229,cs),
(231,183,l)
);
},
{
closed = 1;
nodes = (
(274,42,o),
(298,66,o),
(298,95,cs),
(298,124,o),
(274,148,o),
(245,148,cs),
(216,148,o),
(192,124,o),
(192,95,cs),
(192,66,o),
(216,42,o),
(245,42,cs)
);
},
{
closed = 1;
nodes = (
(216,542,o),
(240,566,o),
(240,595,cs),
(240,625,o),
(216,648,o),
(186,648,cs),
(158,648,o),
(134,625,o),
(134,595,cs),
(134,566,o),
(158,542,o),
(186,542,cs)
);
}
);
width = 387;
}
);
metricRight = "=|";
note = uni150B;
unicode = 5387;
},
{
glyphname = "spwaNaskapi-canadian";
lastChange = "2023-01-13 15:54:20 +0000";
layers = (
{
layerId = "96DCC2AB-F6C9-4D02-A366-260ACDE51568";
shapes = (
{
closed = 1;
nodes = (
(545,0,l),
(562,80,l),
(168,357,l),
(159,314,l),
(670,590,l),
(692,690,l),
(666,690,l),
(60,362,l),
(53,327,l),
(520,0,l)
);
},
{
closed = 1;
nodes = (
(220,492,o),
(243,516,o),
(243,545,cs),
(243,575,o),
(219,598,o),
(190,598,cs),
(161,598,o),
(137,575,o),
(137,545,cs),
(137,515,o),
(161,492,o),
(190,492,cs)
);
},
{
closed = 1;
nodes = (
(423,603,l),
(432,644,ls),
(448,724,o),
(411,776,o),
(334,776,cs),
(311,776,l),
(346,751,l),
(367,850,l),
(300,850,l),
(274,725,l),
(302,725,ls),
(357,725,o),
(377,697,o),
(364,640,cs),
(356,603,l)
);
},
{
closed = 1;
nodes = (
(618,704,o),
(641,728,o),
(641,758,cs),
(641,788,o),
(618,811,o),
(588,811,cs),
(559,811,o),
(535,788,o),
(535,758,cs),
(535,728,o),
(559,704,o),
(588,704,cs)
);
}
);
width = 649;
}
);
metricRight = "pa-canadian";
metricWidth = "pa-canadian";
note = uni150C;
unicode = 5388;
},
{
glyphname = "she-canadian";
kernRight = caright;
lastChange = "2023-01-13 15:54:24 +0000";
layers = (
{
anchors = (
{
name = top_left_can;
pos = (378,690);
},
{
name = top_right_can;
pos = (795,690);
}
);
layerId = "96DCC2AB-F6C9-4D02-A366-260ACDE51568";
shapes = (
{
closed = 1;
nodes = (
(729,-13,o),
(810,75,o),
(842,229,cs),
(858,302,l),
(762,302,l),
(748,231,ls),
(725,124,o),
(680,71,o),
(604,71,cs),
(521,71,o),
(489,128,o),
(506,243,cs),
(536,435,ls),
(562,608,o),
(495,702,o),
(352,702,cs),
(220,702,o),
(139,614,o),
(107,461,cs),
(92,387,l),
(187,387,l),
(203,459,ls),
(225,566,o),
(270,618,o),
(346,618,cs),
(429,618,o),
(461,561,o),
(443,446,cs),
(413,256,ls),
(387,82,o),
(455,-13,o),
(598,-13,cs)
);
}
);
width = 905;
}
);
metricRight = "=|";
note = uni1510;
unicode = 5392;
},
{
glyphname = "shi-canadian";
kernLeft = coleft;
lastChange = "2023-01-13 15:54:24 +0000";
layers = (
{
anchors = (
{
name = top_left_can;
pos = (303,690);
},
{
name = top_right_can;
pos = (721,690);
}
);
layerId = "96DCC2AB-F6C9-4D02-A366-260ACDE51568";
shapes = (
{
closed = 1;
nodes = (
(377,-13,o),
(449,66,o),
(494,236,cs),
(550,448,ls),
(581,567,o),
(621,618,o),
(697,618,cs),
(780,618,o),
(818,562,o),
(792,444,cs),
(781,387,l),
(876,387,l),
(885,432,ls),
(921,598,o),
(845,702,o),
(701,702,cs),
(573,702,o),
(500,623,o),
(456,454,cs),
(400,242,ls),
(369,124,o),
(328,71,o),
(251,71,cs),
(170,71,o),
(131,127,o),
(157,245,cs),
(169,302,l),
(73,302,l),
(64,258,ls),
(29,91,o),
(104,-13,o),
(248,-13,cs)
);
}
);
width = 905;
}
);
metricLeft = "she-canadian";
metricRight = "she-canadian";
note = uni1511;
unicode = 5393;
},
{
glyphname = "sho-canadian";
lastChange = "2023-01-13 15:54:20 +0000";
layers = (
{
anchors = (
{
name = top_center_can;
pos = (519,497);
},
{
name = top_left_can;
pos = (333,497);
},
{
name = top_right_can;
pos = (704,497);
}
);
layerId = "96DCC2AB-F6C9-4D02-A366-260ACDE51568";
shapes = (
{
closed = 1;
nodes = (
(306,69,l),
(200,69,o),
(142,106,o),
(142,167,cs),
(142,226,o),
(180,274,o),
(258,274,cs),
(394,274,o),
(505,121,o),
(679,121,cs),
(805,121,o),
(880,203,o),
(880,314,cs),
(880,421,o),
(790,491,o),
(639,492,c),
(623,411,l),
(729,410,o),
(787,373,o),
(787,311,cs),
(787,253,o),
(750,205,o),
(672,205,cs),
(535,205,o),
(424,358,o),
(250,358,cs),
(125,358,o),
(49,275,o),
(49,165,cs),
(49,57,o),
(140,-13,o),
(290,-13,c)
);
}
);
width = 929;
}
);
metricLeft = "ke-canadian";
metricRight = "=|ke-canadian";
note = uni1513;
unicode = 5395;
},
{
glyphname = "sha-canadian";
lastChange = "2023-01-13 15:54:24 +0000";
layers = (
{
anchors = (
{
name = top_center_can;
pos = (521,497);
},
{
name = top_left_can;
pos = (334,497);
},
{
name = top_right_can;
pos = (706,497);
}
);
layerId = "96DCC2AB-F6C9-4D02-A366-260ACDE51568";
shapes = (
{
closed = 1;
nodes = (
(715,-17,o),
(858,49,o),
(858,204,cs),
(858,296,o),
(792,358,o),
(682,358,cs),
(527,358,o),
(380,205,o),
(262,205,cs),
(202,205,o),
(167,235,o),
(167,283,cs),
(167,373,o),
(250,412,o),
(361,411,c),
(379,492,l),
(216,497,o),
(73,430,o),
(73,275,cs),
(73,184,o),
(139,121,o),
(249,121,cs),
(405,121,o),
(552,274,o),
(670,274,cs),
(730,274,o),
(764,243,o),
(764,196,cs),
(764,106,o),
(682,68,o),
(569,69,c),
(552,-13,l)
);
}
);
width = 931;
}
);
metricLeft = "ke-canadian";
metricRight = "=|ke-canadian";
note = uni1515;
unicode = 5397;
},
{
glyphname = "sh-canadian";
kernLeft = mwestleft;
kernRight = mwestright;
lastChange = "2023-01-13 15:54:24 +0000";
layers = (
{
layerId = "96DCC2AB-F6C9-4D02-A366-260ACDE51568";
shapes = (
{
closed = 1;
nodes = (
(595,282,o),
(702,340,o),
(702,459,cs),
(702,529,o),
(653,579,o),
(569,579,cs),
(455,579,o),
(353,472,o),
(264,472,cs),
(219,472,o),
(194,496,o),
(194,532,cs),
(194,602,o),
(257,639,o),
(350,637,c),
(362,697,l),
(233,704,o),
(125,647,o),
(125,526,cs),
(125,457,o),
(175,408,o),
(259,408,cs),
(373,408,o),
(475,514,o),
(564,514,cs),
(608,514,o),
(634,491,o),
(634,454,cs),
(634,385,o),
(572,347,o),
(478,350,c),
(467,289,l)
);
}
);
width = 719;
}
);
metricLeft = "t-canadian";
metricRight = "=|";
note = uni1525;
unicode = 5413;
},
{
glyphname = "ye-canadian";
kernLeft = yeleft;
lastChange = "2023-01-13 15:54:20 +0000";
layers = (
{
anchors = (
{
name = middle_right_can;
pos = (663,345);
},
{
name = top_left_can;
pos = (185,690);
},
{
name = top_right_can;
pos = (544,690);
}
);
layerId = "96DCC2AB-F6C9-4D02-A366-260ACDE51568";
shapes = (
{
closed = 1;
nodes = (
(443,0,l),
(513,326,l),
(178,326,l),
(179,276,l),
(592,639,l),
(534,701,l),
(48,270,l),
(43,241,l),
(399,241,l),
(348,0,l)
);
}
);
width = 570;
}
);
note = uni1526;
unicode = 5414;
},
{
glyphname = "yi-canadian";
kernRight = yiright;
lastChange = "2023-01-13 15:54:24 +0000";
layers = (
{
anchors = (
{
name = top_left_can;
pos = (223,690);
},
{
name = top_right_can;
pos = (581,690);
}
);
layerId = "96DCC2AB-F6C9-4D02-A366-260ACDE51568";
shapes = (
{
closed = 1;
nodes = (
(120,0,l),
(171,241,l),
(527,241,l),
(534,270,l),
(218,701,l),
(149,650,l),
(425,278,l),
(430,326,l),
(93,326,l),
(24,0,l)
);
}
);
width = 570;
}
);
metricRight = "=|ye-canadian";
metricWidth = "ye-canadian";
note = uni1528;
unicode = 5416;
},
{
glyphname = "yo-canadian";
kernLeft = yoleft;
lastChange = "2023-01-13 15:54:20 +0000";
layers = (
{
anchors = (
{
name = middle_right_can;
pos = (662,345);
},
{
name = top_double;
pos = (543,690);
},
{
name = top_left_can;
pos = (185,690);
},
{
name = top_right_can;
pos = (543,690);
}
);
layerId = "96DCC2AB-F6C9-4D02-A366-260ACDE51568";
shapes = (
{
closed = 1;
nodes = (
(466,40,l),
(189,412,l),
(185,364,l),
(522,364,l),
(590,690,l),
(495,690,l),
(443,449,l),
(87,449,l),
(80,419,l),
(396,-12,l)
);
}
);
width = 570;
}
);
metricLeft = "ye-canadian";
metricWidth = "ye-canadian";
note = uni152A;
unicode = 5418;
},
{
glyphname = "ya-canadian";
kernRight = yaright;
lastChange = "2023-01-13 15:54:20 +0000";
layers = (
{
anchors = (
{
name = top_left_can;
pos = (219,690);
},
{
name = top_right_can;
pos = (576,690);
}
);
layerId = "96DCC2AB-F6C9-4D02-A366-260ACDE51568";
shapes = (
{
closed = 1;
nodes = (
(566,419,l),
(573,449,l),
(215,449,l),
(268,690,l),
(171,690,l),
(101,364,l),
(438,364,l),
(436,413,l),
(22,50,l),
(80,-12,l)
);
}
);
width = 570;
}
);
metricRight = "=|ye-canadian";
metricWidth = "ye-canadian";
note = uni152D;
unicode = 5421;
},
{
glyphname = "y-canadian";
kernLeft = mwestleft;
kernRight = mwestright;
lastChange = "2023-01-13 15:54:20 +0000";
layers = (
{
layerId = "96DCC2AB-F6C9-4D02-A366-260ACDE51568";
shapes = (
{
closed = 1;
nodes = (
(371,550,l),
(376,569,l),
(204,569,l),
(229,690,l),
(161,690,l),
(124,514,l),
(294,514,l),
(290,554,l),
(95,378,l),
(136,335,l)
);
}
);
width = 342;
}
);
note = uni153E;
unicode = 5438;
},
{
glyphname = "biblecreey-canadian";
lastChange = "2023-01-13 15:54:20 +0000";
layers = (
{
layerId = "96DCC2AB-F6C9-4D02-A366-260ACDE51568";
shapes = (
{
closed = 1;
nodes = (
(143,345,l),
(266,618,l),
(228,618,l),
(265,345,l),
(306,345,l),
(462,618,l),
(419,618,l),
(429,345,l),
(488,345,l),
(492,361,l),
(482,690,l),
(437,690,l),
(277,408,l),
(315,408,l),
(277,690,l),
(232,690,l),
(82,361,l),
(78,345,l)
);
}
);
width = 522;
}
);
metricRight = "=|";
note = uni153F;
unicode = 5439;
},
{
glyphname = "yWestCree-canadian";
lastChange = "2023-01-13 15:54:20 +0000";
layers = (
{
layerId = "96DCC2AB-F6C9-4D02-A366-260ACDE51568";
shapes = (
{
closed = 1;
nodes = (
(246,191,l),
(274,324,l),
(401,324,l),
(415,388,l),
(288,388,l),
(316,519,l),
(249,519,l),
(221,388,l),
(94,388,l),
(80,324,l),
(208,324,l),
(179,191,l)
);
}
);
width = 445;
}
);
metricLeft = "shorthorizontalstrokeFinal-canadian";
metricRight = "shorthorizontalstrokeFinal-canadian";
note = uni1540;
unicode = 5440;
},
{
glyphname = "re-canadian";
kernRight = niright;
lastChange = "2023-01-13 15:54:20 +0000";
layers = (
{
anchors = (
{
name = top_center_can;
pos = (355,497);
},
{
name = top_left_can;
pos = (173,497);
},
{
name = top_right_can;
pos = (801,497);
}
);
layerId = "96DCC2AB-F6C9-4D02-A366-260ACDE51568";
shapes = (
{
closed = 1;
nodes = (
(406,-13,o),
(491,65,o),
(525,220,cs),
(561,393,l),
(828,393,l),
(846,479,l),
(486,479,l),
(431,224,ls),
(409,120,o),
(359,71,o),
(280,71,cs),
(185,71,o),
(144,128,o),
(167,236,cs),
(219,479,l),
(123,479,l),
(72,244,ls),
(40,88,o),
(121,-13,o),
(274,-13,cs)
);
}
);
width = 850;
}
);
metricRight = "=|ne-canadian";
note = uni1542;
unicode = 5442;
},
{
glyphname = "reRCree-canadian";
kernLeft = neleft;
lastChange = "2023-01-13 15:54:20 +0000";
layers = (
{
anchors = (
{
name = top_center_can;
pos = (604,497);
},
{
name = top_left_can;
pos = (157,497);
},
{
name = top_right_can;
pos = (785,497);
}
);
layerId = "96DCC2AB-F6C9-4D02-A366-260ACDE51568";
shapes = (
{
closed = 1;
nodes = (
(656,-13,o),
(741,65,o),
(774,220,cs),
(830,479,l),
(733,479,l),
(679,224,ls),
(657,120,o),
(608,71,o),
(528,71,cs),
(434,71,o),
(392,129,o),
(414,236,cs),
(467,479,l),
(106,479,l),
(88,393,l),
(355,393,l),
(323,244,ls),
(290,88,o),
(370,-13,o),
(525,-13,cs)
);
}
);
width = 850;
}
);
metricLeft = "ne-canadian";
metricRight = "=|re-canadian";
note = uni1543;
unicode = 5443;
},
{
glyphname = "leWestCree-canadian";
kernLeft = noleft;
lastChange = "2023-01-13 15:54:20 +0000";
layers = (
{
anchors = (
{
name = top_center_can;
pos = (604,497);
},
{
name = top_left_can;
pos = (157,497);
},
{
name = top_right_can;
pos = (785,497);
}
);
layerId = "96DCC2AB-F6C9-4D02-A366-260ACDE51568";
shapes = (
{
closed = 1;
nodes = (
(365,0,l),
(419,255,ls),
(441,358,o),
(491,409,o),
(570,409,cs),
(665,409,o),
(706,351,o),
(683,243,cs),
(632,0,l),
(727,0,l),
(778,235,ls),
(810,391,o),
(730,492,o),
(576,492,cs),
(444,492,o),
(359,414,o),
(327,259,cs),
(289,86,l),
(22,86,l),
(4,0,l)
);
}
);
width = 850;
}
);
metricLeft = "ne-canadian";
metricRight = "=|re-canadian";
note = uni1544;
unicode = 5444;
},
{
glyphname = "ri-canadian";
kernRight = naright;
lastChange = "2023-01-13 15:54:20 +0000";
layers = (
{
anchors = (
{
name = top_center_can;
pos = (355,497);
},
{
name = top_left_can;
pos = (174,497);
},
{
name = top_right_can;
pos = (802,497);
}
);
layerId = "96DCC2AB-F6C9-4D02-A366-260ACDE51568";
shapes = (
{
closed = 1;
nodes = (
(116,0,l),
(170,255,ls),
(192,358,o),
(242,409,o),
(326,409,cs),
(416,409,o),
(457,350,o),
(435,243,cs),
(383,0,l),
(743,0,l),
(761,86,l),
(495,86,l),
(526,235,ls),
(560,391,o),
(479,492,o),
(330,492,cs),
(193,492,o),
(108,414,o),
(75,259,cs),
(20,0,l)
);
}
);
width = 849;
}
);
metricLeft = "re-canadian";
metricRight = "=|ne-canadian";
note = uni1546;
unicode = 5446;
},
{
glyphname = "ro-canadian";
lastChange = "2023-01-13 15:54:20 +0000";
layers = (
{
anchors = (
{
name = top_center_can;
pos = (332,690);
}
);
layerId = "96DCC2AB-F6C9-4D02-A366-260ACDE51568";
shapes = (
{
closed = 1;
nodes = (
(121,0,l),
(181,283,l),
(129,241,l),
(247,241,ls),
(432,241,o),
(534,349,o),
(534,500,cs),
(534,614,o),
(454,690,o),
(326,690,cs),
(172,690,l),
(154,604,l),
(311,604,ls),
(393,604,o),
(440,562,o),
(440,494,cs),
(440,394,o),
(372,326,o),
(257,326,cs),
(95,326,l),
(25,0,l)
);
}
);
width = 543;
}
);
metricLeft = "nunavuth-canadian";
note = uni1548;
unicode = 5448;
},
{
glyphname = "loWestCree-canadian";
lastChange = "2023-01-13 15:54:20 +0000";
layers = (
{
anchors = (
{
name = top_center_can;
pos = (352,690);
},
{
name = top_left_can;
pos = (220,690);
}
);
layerId = "96DCC2AB-F6C9-4D02-A366-260ACDE51568";
shapes = (
{
closed = 1;
nodes = (
(197,0,ls),
(382,0,o),
(483,108,o),
(483,259,cs),
(483,374,o),
(404,449,o),
(275,449,cs),
(173,449,l),
(208,405,l),
(268,690,l),
(172,690,l),
(102,364,l),
(261,364,ls),
(343,364,o),
(389,322,o),
(389,254,cs),
(389,154,o),
(321,86,o),
(206,86,cs),
(43,86,l),
(25,0,l)
);
}
);
width = 543;
}
);
metricLeft = "nunavuth-canadian";
metricRight = "ro-canadian";
note = uni154A;
unicode = 5450;
},
{
glyphname = "ra-canadian";
lastChange = "2023-01-13 15:54:25 +0000";
layers = (
{
anchors = (
{
name = top_center_can;
pos = (402,690);
},
{
name = top_right_can;
pos = (515,690);
}
);
layerId = "96DCC2AB-F6C9-4D02-A366-260ACDE51568";
shapes = (
{
closed = 1;
nodes = (
(415,0,l),
(485,326,l),
(328,326,ls),
(245,326,o),
(199,368,o),
(199,436,cs),
(199,536,o),
(267,604,o),
(382,604,cs),
(544,604,l),
(562,690,l),
(391,690,ls),
(207,690,o),
(105,582,o),
(105,431,cs),
(105,316,o),
(185,241,o),
(313,241,cs),
(414,241,l),
(380,285,l),
(320,0,l)
);
}
);
width = 543;
}
);
metricLeft = "=|ro-canadian";
metricRight = "nunavuth-canadian";
note = uni154B;
unicode = 5451;
},
{
glyphname = "laWestCree-canadian";
lastChange = "2023-01-13 15:54:25 +0000";
layers = (
{
anchors = (
{
name = top_center_can;
pos = (515,690);
}
);
layerId = "96DCC2AB-F6C9-4D02-A366-260ACDE51568";
shapes = (
{
closed = 1;
nodes = (
(415,0,l),
(434,86,l),
(275,86,ls),
(193,86,o),
(148,128,o),
(148,196,cs),
(148,296,o),
(215,364,o),
(330,364,cs),
(493,364,l),
(562,690,l),
(467,690,l),
(407,407,l),
(458,449,l),
(339,449,ls),
(155,449,o),
(53,341,o),
(53,189,cs),
(53,75,o),
(132,0,o),
(261,0,cs)
);
}
);
width = 543;
}
);
metricLeft = "=|ro-canadian";
metricRight = "nunavuth-canadian";
note = uni154D;
unicode = 5453;
},
{
glyphname = "r-canadian";
kernLeft = mwestleft;
kernRight = mwestright;
lastChange = "2023-01-13 15:54:20 +0000";
layers = (
{
layerId = "96DCC2AB-F6C9-4D02-A366-260ACDE51568";
shapes = (
{
closed = 1;
nodes = (
(288,345,l),
(325,517,l),
(246,517,ls),
(208,517,o),
(189,533,o),
(189,563,cs),
(189,609,o),
(215,636,o),
(270,636,cs),
(350,636,l),
(361,690,l),
(282,690,ls),
(187,690,o),
(127,646,o),
(127,559,cs),
(127,501,o),
(166,463,o),
(235,463,cs),
(281,463,l),
(250,488,l),
(219,345,l)
);
}
);
width = 329;
}
);
metricLeft = "=|k-canadian";
note = uni1550;
unicode = 5456;
},
{
glyphname = "rWestCree-canadian";
kernLeft = mwestleft;
kernRight = mwestright;
lastChange = "2023-01-13 15:54:20 +0000";
layers = (
{
layerId = "96DCC2AB-F6C9-4D02-A366-260ACDE51568";
shapes = (
{
closed = 1;
nodes = (
(160,690,l),
(152,648,l),
(319,576,l),
(327,609,l),
(128,536,l),
(121,506,l),
(289,435,l),
(297,468,l),
(98,394,l),
(87,345,l),
(99,345,l),
(346,435,l),
(351,459,l),
(178,529,l),
(172,505,l),
(376,576,l),
(382,601,l),
(173,690,l)
);
}
);
width = 369;
}
);
metricLeft = "=|lWestCree-canadian";
metricRight = "=|lWestCree-canadian";
note = uni1551;
unicode = 5457;
},
{
glyphname = "rMedial-canadian";
lastChange = "2023-01-13 15:54:24 +0000";
layers = (
{
layerId = "96DCC2AB-F6C9-4D02-A366-260ACDE51568";
shapes = (
{
closed = 1;
nodes = (
(42,-13,l),
(553,173,l),
(561,211,l),
(191,362,l),
(184,327,l),
(619,479,l),
(627,517,l),
(193,702,l),
(168,702,l),
(154,639,l),
(523,481,l),
(532,527,l),
(98,371,l),
(89,329,l),
(458,179,l),
(468,221,l),
(32,65,l),
(15,-13,l)
);
}
);
width = 637;
}
);
metricLeft = "mediall-canadian";
metricRight = "mediall-canadian";
note = uni1552;
unicode = 5458;
},
{
glyphname = "fe-canadian";
kernLeft = ecanleft;
kernRight = ecanright;
lastChange = "2023-01-13 15:54:24 +0000";
layers = (
{
layerId = "96DCC2AB-F6C9-4D02-A366-260ACDE51568";
shapes = (
{
closed = 1;
nodes = (
(336,0,l),
(819,664,l),
(825,690,l),
(738,690,l),
(324,107,l),
(340,106,l),
(255,360,l),
(197,361,l),
(221,332,o),
(252,318,o),
(294,318,cs),
(420,318,o),
(485,448,o),
(485,549,cs),
(485,639,o),
(431,702,o),
(335,702,cs),
(205,702,o),
(142,575,o),
(142,469,cs),
(142,430,o),
(150,393,o),
(166,353,cs),
(300,0,l)
);
},
{
closed = 1;
nodes = (
(248,385,o),
(221,418,o),
(221,474,cs),
(221,530,o),
(249,631,o),
(331,631,cs),
(379,631,o),
(407,597,o),
(407,543,cs),
(407,486,o),
(379,385,o),
(297,385,cs)
);
}
);
width = 761;
}
);
metricRight = "e-canadian";
note = uni1553;
unicode = 5459;
},
{
glyphname = "fi-canadian";
kernLeft = icanleft;
kernRight = icanright;
lastChange = "2023-01-13 15:54:24 +0000";
layers = (
{
anchors = (
{
name = top_center_can;
pos = (460,690);
},
{
name = top_left_can;
pos = (227,690);
},
{
name = top_right_can;
pos = (720,690);
}
);
layerId = "96DCC2AB-F6C9-4D02-A366-260ACDE51568";
shapes = (
{
closed = 1;
nodes = (
(358,-13,o),
(414,120,o),
(414,215,cs),
(414,308,o),
(359,375,o),
(276,375,cs),
(246,375,o),
(217,363,o),
(191,341,c),
(256,338,l),
(452,582,l),
(427,583,l),
(604,0,l),
(678,0,l),
(684,26,l),
(478,690,l),
(442,690,l),
(152,342,ls),
(102,283,o),
(72,216,o),
(72,143,cs),
(72,50,o),
(130,-13,o),
(222,-13,cs)
);
},
{
closed = 1;
nodes = (
(178,59,o),
(151,92,o),
(151,148,cs),
(151,204,o),
(179,304,o),
(261,304,cs),
(309,304,o),
(336,270,o),
(336,215,cs),
(336,158,o),
(308,59,o),
(226,59,cs)
);
}
);
width = 761;
}
);
metricLeft = "fe-canadian";
metricRight = "e-canadian";
note = uni1555;
unicode = 5461;
},
{
glyphname = "fo-canadian";
kernLeft = ocanleft;
kernRight = ocanright;
lastChange = "2023-01-13 15:54:20 +0000";
layers = (
{
anchors = (
{
name = top_center_can;
pos = (320,690);
}
);
layerId = "96DCC2AB-F6C9-4D02-A366-260ACDE51568";
shapes = (
{
closed = 1;
nodes = (
(66,0,l),
(669,327,l),
(677,361,l),
(429,639,ls),
(392,681,o),
(353,702,o),
(300,702,cs),
(174,702,o),
(113,576,o),
(110,478,cs),
(107,381,o),
(163,315,o),
(253,315,cs),
(371,315,o),
(440,422,o),
(442,529,cs),
(443,556,o),
(440,582,o),
(433,603,c),
(398,558,l),
(582,352,l),
(586,369,l),
(58,85,l),
(40,0,l)
);
},
{
closed = 1;
nodes = (
(214,385,o),
(187,421,o),
(188,482,cs),
(190,540,o),
(218,632,o),
(298,632,cs),
(347,632,o),
(375,595,o),
(373,536,cs),
(372,476,o),
(344,385,o),
(264,385,cs)
);
}
);
width = 685;
}
);
metricRight = "o-canadian";
note = uni1557;
unicode = 5463;
},
{
glyphname = "fa-canadian";
kernLeft = acanleft;
kernRight = acanright;
lastChange = "2023-01-13 15:54:20 +0000";
layers = (
{
anchors = (
{
name = top_center_can;
pos = (555,690);
}
);
layerId = "96DCC2AB-F6C9-4D02-A366-260ACDE51568";
shapes = (
{
closed = 1;
nodes = (
(542,0,l),
(557,72,l),
(152,357,l),
(149,337,l),
(420,555,l),
(402,618,l),
(371,576,o),
(353,514,o),
(353,467,cs),
(353,377,o),
(412,313,o),
(504,313,cs),
(627,313,o),
(689,445,o),
(689,543,cs),
(689,639,o),
(632,702,o),
(541,702,cs),
(497,702,o),
(457,687,o),
(416,652,cs),
(60,361,l),
(53,327,l),
(516,0,l)
);
},
{
closed = 1;
nodes = (
(453,384,o),
(426,418,o),
(426,474,cs),
(426,529,o),
(454,631,o),
(536,631,cs),
(584,631,o),
(612,597,o),
(612,543,cs),
(612,486,o),
(584,384,o),
(501,384,cs)
);
}
);
width = 685;
}
);
metricRight = "=|fo-canadian";
note = uni1559;
unicode = 5465;
},
{
glyphname = "f-canadian";
kernLeft = mwestleft;
kernRight = mwestright;
lastChange = "2023-01-13 15:54:20 +0000";
layers = (
{
layerId = "96DCC2AB-F6C9-4D02-A366-260ACDE51568";
shapes = (
{
closed = 1;
nodes = (
(360,345,l),
(370,390,l),
(171,528,l),
(168,510,l),
(298,618,l),
(295,660,l),
(278,641,o),
(266,605,o),
(266,578,cs),
(266,533,o),
(296,501,o),
(339,501,cs),
(400,501,o),
(432,563,o),
(432,617,cs),
(432,667,o),
(405,696,o),
(361,696,cs),
(337,696,o),
(314,687,o),
(290,667,cs),
(119,526,l),
(115,507,l),
(345,345,l)
);
},
{
closed = 1;
nodes = (
(319,540,o),
(306,555,o),
(306,581,cs),
(306,616,o),
(327,656,o),
(358,656,cs),
(379,656,o),
(391,641,o),
(391,616,cs),
(391,582,o),
(373,540,o),
(340,540,cs)
);
}
);
width = 412;
}
);
note = uni155D;
unicode = 5469;
},
{
glyphname = "the-canadian";
lastChange = "2023-01-13 15:54:20 +0000";
layers = (
{
anchors = (
{
name = middle_right_can;
pos = (838,345);
},
{
name = top_center_can;
pos = (460,690);
},
{
name = top_left_can;
pos = (213,690);
},
{
name = top_right_can;
pos = (704,690);
}
);
layerId = "96DCC2AB-F6C9-4D02-A366-260ACDE51568";
shapes = (
{
closed = 1;
nodes = (
(517,-13,o),
(618,81,o),
(661,277,cs),
(749,690,l),
(652,690,l),
(565,278,ls),
(534,137,o),
(466,73,o),
(338,73,cs),
(178,73,o),
(147,167,o),
(175,298,cs),
(202,420,l),
(162,397,l),
(174,348,o),
(213,307,o),
(274,307,cs),
(402,307,o),
(461,435,o),
(465,538,cs),
(469,637,o),
(413,702,o),
(318,702,cs),
(215,702,o),
(151,632,o),
(126,510,cs),
(84,316,ls),
(43,128,o),
(112,-13,o),
(337,-13,cs)
);
},
{
closed = 1;
nodes = (
(228,379,o),
(201,412,o),
(201,469,cs),
(201,526,o),
(229,631,o),
(312,631,cs),
(359,631,o),
(386,597,o),
(386,542,cs),
(386,484,o),
(359,379,o),
(275,379,cs)
);
}
);
width = 721;
}
);
metricLeft = "te-canadian";
metricRight = "te-canadian";
note = uni155E;
unicode = 5470;
},
{
glyphname = "theNCree-canadian";
lastChange = "2023-01-13 15:54:20 +0000";
layers = (
{
layerId = "96DCC2AB-F6C9-4D02-A366-260ACDE51568";
shapes = (
{
closed = 1;
nodes = (
(519,-13,o),
(620,83,o),
(663,284,cs),
(703,471,ls),
(731,606,o),
(679,702,o),
(564,702,cs),
(433,702,o),
(371,572,o),
(371,464,cs),
(371,378,o),
(416,307,o),
(508,307,cs),
(556,307,o),
(598,331,o),
(623,372,c),
(594,404,l),
(567,276,ls),
(537,135,o),
(467,72,o),
(341,72,cs),
(193,72,o),
(147,156,o),
(178,302,cs),
(260,690,l),
(164,690,l),
(82,306,ls),
(40,104,o),
(135,-13,o),
(335,-13,cs)
);
},
{
closed = 1;
nodes = (
(476,379,o),
(449,412,o),
(449,469,cs),
(449,526,o),
(478,631,o),
(560,631,cs),
(608,631,o),
(635,597,o),
(635,542,cs),
(635,484,o),
(607,379,o),
(524,379,cs)
);
}
);
width = 722;
}
);
metricLeft = "te-canadian";
metricRight = "te-canadian";
note = uni155F;
unicode = 5471;
},
{
glyphname = "thi-canadian";
lastChange = "2023-01-13 15:54:20 +0000";
layers = (
{
anchors = (
{
name = top_center_can;
pos = (455,690);
}
);
layerId = "96DCC2AB-F6C9-4D02-A366-260ACDE51568";
shapes = (
{
closed = 1;
nodes = (
(334,-13,o),
(396,118,o),
(396,226,cs),
(396,312,o),
(350,383,o),
(258,383,cs),
(210,383,o),
(168,358,o),
(144,318,c),
(173,286,l),
(200,413,ls),
(230,554,o),
(300,617,o),
(426,617,cs),
(573,617,o),
(620,534,o),
(588,387,cs),
(506,0,l),
(603,0,l),
(684,384,ls),
(726,585,o),
(632,702,o),
(432,702,cs),
(248,702,o),
(147,607,o),
(103,406,cs),
(64,218,ls),
(36,84,o),
(87,-13,o),
(203,-13,cs)
);
},
{
closed = 1;
nodes = (
(159,59,o),
(132,93,o),
(132,148,cs),
(132,206,o),
(159,311,o),
(242,311,cs),
(290,311,o),
(317,277,o),
(317,220,cs),
(317,164,o),
(289,59,o),
(207,59,cs)
);
}
);
width = 722;
}
);
metricLeft = "te-canadian";
metricRight = "te-canadian";
note = uni1560;
unicode = 5472;
},
{
glyphname = "thiNCree-canadian";
lastChange = "2023-01-13 15:54:24 +0000";
layers = (
{
anchors = (
{
name = top_center_can;
pos = (455,690);
}
);
layerId = "96DCC2AB-F6C9-4D02-A366-260ACDE51568";
shapes = (
{
closed = 1;
nodes = (
(551,-13,o),
(614,58,o),
(640,180,cs),
(682,374,ls),
(723,562,o),
(654,702,o),
(429,702,cs),
(249,702,o),
(147,609,o),
(105,412,cs),
(17,0,l),
(113,0,l),
(201,412,ls),
(231,553,o),
(300,616,o),
(428,616,cs),
(588,616,o),
(619,523,o),
(590,391,cs),
(564,270,l),
(604,293,l),
(592,342,o),
(554,383,o),
(492,383,cs),
(364,383,o),
(305,255,o),
(301,152,cs),
(298,53,o),
(353,-13,o),
(447,-13,cs)
);
},
{
closed = 1;
nodes = (
(407,59,o),
(379,93,o),
(379,148,cs),
(379,206,o),
(407,311,o),
(490,311,cs),
(538,311,o),
(565,277,o),
(565,220,cs),
(565,164,o),
(536,59,o),
(454,59,cs)
);
}
);
width = 721;
}
);
metricLeft = "te-canadian";
metricRight = "te-canadian";
note = uni1561;
unicode = 5473;
},
{
glyphname = "tho-canadian";
lastChange = "2023-01-13 15:54:24 +0000";
layers = (
{
anchors = (
{
name = top_center_can;
pos = (401,690);
}
);
layerId = "96DCC2AB-F6C9-4D02-A366-260ACDE51568";
shapes = (
{
closed = 1;
nodes = (
(236,0,ls),
(524,0,o),
(638,221,o),
(638,421,cs),
(638,593,o),
(533,702,o),
(377,702,cs),
(209,702,o),
(116,581,o),
(116,442,cs),
(116,348,o),
(172,285,o),
(263,285,cs),
(384,285,o),
(449,408,o),
(449,511,cs),
(449,595,o),
(400,651,o),
(318,652,c),
(308,622,l),
(324,630,o),
(346,635,o),
(372,635,cs),
(471,634,o),
(545,557,o),
(545,426,cs),
(545,295,o),
(489,87,o),
(244,87,cs),
(69,87,l),
(50,0,l)
);
},
{
closed = 1;
nodes = (
(220,356,o),
(194,389,o),
(194,443,cs),
(194,499,o),
(222,611,o),
(306,611,cs),
(353,611,o),
(379,578,o),
(379,525,cs),
(379,469,o),
(350,356,o),
(267,356,cs)
);
}
);
width = 672;
}
);
metricRight = "to-canadian";
note = uni1564;
unicode = 5476;
},
{
glyphname = "tha-canadian";
lastChange = "2023-01-13 15:54:25 +0000";
layers = (
{
anchors = (
{
name = top_center_can;
pos = (465,690);
}
);
layerId = "96DCC2AB-F6C9-4D02-A366-260ACDE51568";
shapes = (
{
closed = 1;
nodes = (
(521,0,l),
(539,87,l),
(374,87,ls),
(244,87,o),
(174,156,o),
(174,279,cs),
(174,407,o),
(244,631,o),
(437,631,cs),
(470,631,o),
(505,624,o),
(531,611,c),
(511,649,l),
(389,661,o),
(322,542,o),
(322,435,cs),
(322,346,o),
(376,285,o),
(466,285,cs),
(588,285,o),
(658,404,o),
(658,516,cs),
(658,631,o),
(575,702,o),
(440,702,cs),
(185,702,o),
(78,448,o),
(78,269,cs),
(78,102,o),
(179,0,o),
(354,0,cs)
);
},
{
closed = 1;
nodes = (
(423,356,o),
(396,389,o),
(396,443,cs),
(396,499,o),
(424,611,o),
(508,611,cs),
(554,611,o),
(581,578,o),
(581,525,cs),
(581,469,o),
(553,356,o),
(469,356,cs)
);
}
);
width = 671;
}
);
metricLeft = "=|theCarrier-canadian";
metricRight = "=|tho-canadian";
note = uni1566;
unicode = 5478;
},
{
glyphname = "th-canadian";
kernLeft = mwestleft;
kernRight = mwestright;
lastChange = "2023-01-13 15:54:20 +0000";
layers = (
{
layerId = "96DCC2AB-F6C9-4D02-A366-260ACDE51568";
shapes = (
{
closed = 1;
nodes = (
(339,345,l),
(351,401,l),
(271,401,ls),
(209,401,o),
(178,431,o),
(178,487,cs),
(178,550,o),
(213,653,o),
(304,653,cs),
(319,653,o),
(338,649,o),
(350,643,c),
(331,666,l),
(266,669,o),
(242,608,o),
(242,564,cs),
(242,518,o),
(269,487,o),
(312,487,cs),
(378,487,o),
(407,556,o),
(407,604,cs),
(407,660,o),
(367,696,o),
(299,696,cs),
(173,696,o),
(117,571,o),
(117,481,cs),
(117,396,o),
(171,345,o),
(259,345,cs)
);
},
{
closed = 1;
nodes = (
(292,526,o),
(280,541,o),
(280,565,cs),
(280,594,o),
(294,641,o),
(330,641,cs),
(353,641,o),
(365,627,o),
(365,603,cs),
(365,574,o),
(352,526,o),
(314,526,cs)
);
}
);
width = 389;
}
);
metricLeft = "t-canadian";
note = uni156A;
unicode = 5482;
},
{
glyphname = "tthe-canadian";
lastChange = "2023-01-13 15:54:24 +0000";
layers = (
{
anchors = (
{
name = middle_right_can;
pos = (826,345);
},
{
name = top_center_can;
pos = (452,690);
},
{
name = top_left_can;
pos = (213,690);
},
{
name = top_right_can;
pos = (693,690);
}
);
layerId = "96DCC2AB-F6C9-4D02-A366-260ACDE51568";
shapes = (
{
closed = 1;
nodes = (
(508,-13,o),
(611,79,o),
(653,279,cs),
(740,690,l),
(646,690,l),
(559,280,ls),
(528,138,o),
(459,75,o),
(337,75,cs),
(199,75,o),
(143,150,o),
(176,300,cs),
(258,690,l),
(164,690,l),
(82,306,ls),
(40,103,o),
(136,-13,o),
(331,-13,cs)
);
},
{
closed = 1;
nodes = (
(427,387,l),
(492,690,l),
(412,690,l),
(348,387,l)
);
}
);
width = 713;
}
);
metricLeft = "te-canadian";
metricRight = "te-canadian";
note = uni156B;
unicode = 5483;
},
{
glyphname = "tthi-canadian";
lastChange = "2023-01-13 15:54:20 +0000";
layers = (
{
layerId = "96DCC2AB-F6C9-4D02-A366-260ACDE51568";
shapes = (
{
closed = 1;
nodes = (
(111,0,l),
(198,410,ls),
(229,552,o),
(298,614,o),
(420,614,cs),
(558,614,o),
(614,540,o),
(582,389,cs),
(499,0,l),
(593,0,l),
(675,384,ls),
(718,586,o),
(621,702,o),
(426,702,cs),
(249,702,o),
(147,611,o),
(104,411,cs),
(17,0,l)
);
},
{
closed = 1;
nodes = (
(345,0,l),
(410,302,l),
(330,302,l),
(266,0,l)
);
}
);
width = 712;
}
);
metricLeft = "te-canadian";
metricRight = "te-canadian";
note = uni156C;
unicode = 5484;
},
{
glyphname = "ttho-canadian";
lastChange = "2023-01-13 15:54:20 +0000";
layers = (
{
anchors = (
{
name = top_center_can;
pos = (396,690);
},
{
name = top_left_can;
pos = (210,690);
},
{
name = top_right_can;
pos = (613,690);
}
);
layerId = "96DCC2AB-F6C9-4D02-A366-260ACDE51568";
shapes = (
{
closed = 1;
nodes = (
(185,0,ls),
(504,0,o),
(589,253,o),
(589,424,cs),
(589,591,o),
(489,690,o),
(310,690,cs),
(168,690,l),
(151,603,l),
(297,603,ls),
(426,603,o),
(493,538,o),
(493,417,cs),
(493,284,o),
(430,87,o),
(195,87,cs),
(40,87,l),
(22,0,l)
);
},
{
closed = 1;
nodes = (
(323,306,l),
(339,385,l),
(103,385,l),
(87,306,l)
);
}
);
width = 623;
}
);
metricRight = "to-canadian";
note = uni156D;
unicode = 5485;
},
{
glyphname = "ttha-canadian";
lastChange = "2023-01-13 15:54:24 +0000";
layers = (
{
anchors = (
{
name = top_center_can;
pos = (413,690);
},
{
name = top_left_can;
pos = (204,690);
},
{
name = top_right_can;
pos = (597,690);
}
);
layerId = "96DCC2AB-F6C9-4D02-A366-260ACDE51568";
shapes = (
{
closed = 1;
nodes = (
(499,0,l),
(518,87,l),
(371,87,ls),
(242,87,o),
(176,152,o),
(176,272,cs),
(176,408,o),
(241,603,o),
(472,603,cs),
(628,603,l),
(646,690,l),
(482,690,ls),
(165,690,o),
(79,439,o),
(79,266,cs),
(79,99,o),
(179,0,o),
(357,0,cs)
);
},
{
closed = 1;
nodes = (
(563,306,l),
(580,385,l),
(344,385,l),
(328,306,l)
);
}
);
width = 623;
}
);
metricLeft = "=|to-canadian";
metricRight = "=|ttho-canadian";
note = uni156E;
unicode = 5486;
},
{
glyphname = "tth-canadian";
lastChange = "2023-01-13 15:54:24 +0000";
layers = (
{
layerId = "96DCC2AB-F6C9-4D02-A366-260ACDE51568";
shapes = (
{
closed = 1;
nodes = (
(282,477,l),
(256,477,l),
(323,347,l),
(376,375,l),
(307,510,l),
(293,485,l),
(454,538,l),
(437,592,l),
(286,542,l),
(305,527,l),
(339,690,l),
(280,690,l),
(245,527,l),
(270,540,l),
(130,592,l),
(110,539,l),
(242,490,l),
(239,515,l),
(119,387,l),
(162,347,l)
);
},
{
closed = 1;
nodes = (
(689,477,l),
(662,477,l),
(728,347,l),
(782,375,l),
(713,510,l),
(698,485,l),
(861,538,l),
(842,592,l),
(692,542,l),
(711,527,l),
(746,690,l),
(686,690,l),
(651,527,l),
(675,540,l),
(536,592,l),
(516,539,l),
(647,490,l),
(644,515,l),
(525,387,l),
(568,347,l)
);
}
);
width = 844;
}
);
metricRight = "=|";
note = uni156F;
unicode = 5487;
},
{
glyphname = "tye-canadian";
lastChange = "2023-01-13 15:54:24 +0000";
layers = (
{
layerId = "96DCC2AB-F6C9-4D02-A366-260ACDE51568";
shapes = (
{
closed = 1;
nodes = (
(510,-13,o),
(611,82,o),
(653,279,cs),
(740,690,l),
(647,690,l),
(561,289,ls),
(530,141,o),
(460,75,o),
(335,75,cs),
(198,75,o),
(143,150,o),
(175,300,cs),
(258,690,l),
(164,690,l),
(82,306,ls),
(40,103,o),
(135,-13,o),
(332,-13,cs)
);
},
{
closed = 1;
nodes = (
(472,412,o),
(514,451,o),
(532,532,cs),
(566,690,l),
(516,690,l),
(484,540,ls),
(472,486,o),
(448,462,o),
(405,462,cs),
(360,462,o),
(346,487,o),
(357,542,cs),
(388,690,l),
(338,690,l),
(307,541,ls),
(290,461,o),
(327,412,o),
(403,412,cs)
);
}
);
width = 713;
}
);
metricLeft = "te-canadian";
metricRight = "te-canadian";
note = uni1570;
unicode = 5488;
},
{
glyphname = "tyi-canadian";
lastChange = "2023-01-13 15:54:20 +0000";
layers = (
{
layerId = "96DCC2AB-F6C9-4D02-A366-260ACDE51568";
shapes = (
{
closed = 1;
nodes = (
(111,0,l),
(196,401,ls),
(227,549,o),
(298,614,o),
(422,614,cs),
(559,614,o),
(615,540,o),
(582,389,cs),
(500,0,l),
(593,0,l),
(675,384,ls),
(718,586,o),
(622,702,o),
(425,702,cs),
(247,702,o),
(147,608,o),
(104,411,cs),
(17,0,l)
);
},
{
closed = 1;
nodes = (
(242,0,l),
(273,150,ls),
(285,204,o),
(309,228,o),
(353,228,cs),
(397,228,o),
(412,203,o),
(400,148,cs),
(369,0,l),
(419,0,l),
(450,149,ls),
(468,229,o),
(431,278,o),
(355,278,cs),
(286,278,o),
(243,239,o),
(226,157,cs),
(192,0,l)
);
}
);
width = 712;
}
);
metricLeft = "te-canadian";
metricRight = "te-canadian";
note = uni1571;
unicode = 5489;
},
{
glyphname = "tyo-canadian";
lastChange = "2023-01-13 15:54:25 +0000";
layers = (
{
layerId = "96DCC2AB-F6C9-4D02-A366-260ACDE51568";
shapes = (
{
closed = 1;
nodes = (
(188,0,ls),
(507,0,o),
(593,253,o),
(593,424,cs),
(593,591,o),
(492,690,o),
(313,690,cs),
(173,690,l),
(155,604,l),
(300,604,ls),
(429,604,o),
(497,538,o),
(497,417,cs),
(497,273,o),
(423,86,o),
(198,86,cs),
(43,86,l),
(26,0,l)
);
},
{
closed = 1;
nodes = (
(163,213,ls),
(271,213,o),
(325,281,o),
(327,364,cs),
(329,434,o),
(286,476,o),
(211,476,cs),
(127,476,l),
(116,426,l),
(198,426,ls),
(246,426,o),
(271,403,o),
(270,362,cs),
(270,312,o),
(241,264,o),
(168,264,cs),
(82,264,l),
(71,213,l)
);
}
);
width = 627;
}
);
metricLeft = "nunavuth-canadian";
metricRight = "theCarrier-canadian";
note = uni1572;
unicode = 5490;
},
{
glyphname = "tya-canadian";
lastChange = "2023-01-13 15:54:25 +0000";
layers = (
{
layerId = "96DCC2AB-F6C9-4D02-A366-260ACDE51568";
shapes = (
{
closed = 1;
nodes = (
(498,0,l),
(516,86,l),
(371,86,ls),
(242,86,o),
(174,152,o),
(174,272,cs),
(174,416,o),
(248,604,o),
(473,604,cs),
(627,604,l),
(644,690,l),
(483,690,ls),
(164,690,o),
(78,437,o),
(78,266,cs),
(78,99,o),
(180,0,o),
(358,0,cs)
);
},
{
closed = 1;
nodes = (
(544,213,l),
(554,264,l),
(473,264,ls),
(425,264,o),
(400,287,o),
(401,327,cs),
(402,378,o),
(431,426,o),
(503,426,cs),
(589,426,l),
(600,476,l),
(508,476,ls),
(400,476,o),
(347,409,o),
(345,326,cs),
(342,256,o),
(385,213,o),
(461,213,cs)
);
}
);
width = 626;
}
);
metricLeft = "=|theCarrier-canadian";
metricRight = "nunavuth-canadian";
note = uni1573;
unicode = 5491;
},
{
glyphname = "heNunavik-canadian";
lastChange = "2023-01-13 15:54:20 +0000";
layers = (
{
layerId = "96DCC2AB-F6C9-4D02-A366-260ACDE51568";
shapes = (
{
closed = 1;
nodes = (
(456,0,l),
(734,194,l),
(686,265,l),
(451,102,l),
(483,77,l),
(554,412,ls),
(584,554,o),
(536,702,o),
(361,702,cs),
(184,702,o),
(102,538,o),
(102,400,cs),
(102,278,o),
(176,198,o),
(291,198,cs),
(365,198,o),
(424,236,o),
(452,298,c),
(433,292,l),
(371,0,l)
);
},
{
closed = 1;
nodes = (
(239,280,o),
(195,327,o),
(195,406,cs),
(195,483,o),
(236,620,o),
(354,620,cs),
(427,620,o),
(470,573,o),
(470,494,cs),
(470,414,o),
(430,280,o),
(312,280,cs)
);
}
);
width = 770;
}
);
metricLeft = "ke-canadian";
note = uni1574;
unicode = 5492;
},
{
glyphname = "hiNunavik-canadian";
lastChange = "2023-01-13 15:54:24 +0000";
layers = (
{
anchors = (
{
name = top_center_can;
pos = (579,690);
}
);
layerId = "96DCC2AB-F6C9-4D02-A366-260ACDE51568";
shapes = (
{
closed = 1;
nodes = (
(298,0,l),
(370,334,l),
(356,325,l),
(355,259,o),
(418,198,o),
(511,198,cs),
(685,198,o),
(758,370,o),
(758,496,cs),
(758,623,o),
(680,702,o),
(554,702,cs),
(425,702,o),
(334,621,o),
(303,476,cs),
(218,74,l),
(254,84,l),
(77,256,l),
(16,194,l),
(213,0,l)
);
},
{
closed = 1;
nodes = (
(434,280,o),
(390,327,o),
(390,406,cs),
(390,483,o),
(430,620,o),
(548,620,cs),
(621,620,o),
(665,573,o),
(665,495,cs),
(665,417,o),
(625,280,o),
(507,280,cs)
);
}
);
width = 771;
}
);
metricLeft = "=|heNunavik-canadian";
metricRight = "=|ke-canadian";
note = uni1575;
unicode = 5493;
},
{
glyphname = "hoNunavik-canadian";
lastChange = "2023-01-13 15:54:24 +0000";
layers = (
{
anchors = (
{
name = top_center_can;
pos = (384,690);
},
{
name = top_right_can;
pos = (566,690);
}
);
layerId = "96DCC2AB-F6C9-4D02-A366-260ACDE51568";
shapes = (
{
closed = 1;
nodes = (
(390,-13,o),
(481,69,o),
(512,213,cs),
(597,615,l),
(561,606,l),
(738,434,l),
(799,496,l),
(603,690,l),
(517,690,l),
(446,355,l),
(460,365,l),
(462,431,o),
(398,492,o),
(305,492,cs),
(130,492,o),
(58,320,o),
(58,194,cs),
(58,67,o),
(135,-13,o),
(261,-13,cs)
);
},
{
closed = 1;
nodes = (
(194,70,o),
(151,117,o),
(151,195,cs),
(151,272,o),
(191,410,o),
(309,410,cs),
(383,410,o),
(425,362,o),
(425,284,cs),
(425,207,o),
(385,70,o),
(268,70,cs)
);
}
);
width = 770;
}
);
metricLeft = "ke-canadian";
metricRight = "heNunavik-canadian";
note = uni1577;
unicode = 5495;
},
{
glyphname = "haNunavik-canadian";
lastChange = "2023-01-13 15:54:24 +0000";
layers = (
{
anchors = (
{
name = top_center_can;
pos = (579,690);
},
{
name = top_left_can;
pos = (397,690);
}
);
layerId = "96DCC2AB-F6C9-4D02-A366-260ACDE51568";
shapes = (
{
closed = 1;
nodes = (
(633,-13,o),
(714,152,o),
(714,290,cs),
(714,412,o),
(640,492,o),
(525,492,cs),
(450,492,o),
(391,454,o),
(364,391,c),
(383,398,l),
(445,690,l),
(359,690,l),
(81,496,l),
(129,425,l),
(364,587,l),
(332,612,l),
(262,277,ls),
(232,136,o),
(280,-13,o),
(454,-13,cs)
);
},
{
closed = 1;
nodes = (
(388,70,o),
(346,117,o),
(346,196,cs),
(346,275,o),
(386,410,o),
(503,410,cs),
(577,410,o),
(620,362,o),
(620,284,cs),
(620,207,o),
(581,70,o),
(463,70,cs)
);
}
);
width = 771;
}
);
metricLeft = "=|heNunavik-canadian";
metricRight = "=|ke-canadian";
note = uni1579;
unicode = 5497;
},
{
glyphname = "hNunavik-canadian";
kernLeft = mwestleft;
kernRight = mwestright;
lastChange = "2023-01-13 15:54:20 +0000";
layers = (
{
layerId = "96DCC2AB-F6C9-4D02-A366-260ACDE51568";
shapes = (
{
closed = 1;
nodes = (
(409,339,o),
(461,422,o),
(461,497,cs),
(461,558,o),
(422,601,o),
(363,601,cs),
(326,601,o),
(294,584,o),
(277,552,c),
(287,539,l),
(320,690,l),
(257,690,l),
(116,592,l),
(148,549,l),
(276,639,l),
(246,666,l),
(209,487,ls),
(190,404,o),
(232,339,o),
(317,339,cs)
);
},
{
closed = 1;
nodes = (
(287,390,o),
(266,412,o),
(266,449,cs),
(266,498,o),
(294,550,o),
(344,550,cs),
(378,550,o),
(400,527,o),
(400,491,cs),
(400,442,o),
(371,390,o),
(321,390,cs)
);
}
);
width = 465;
}
);
metricRight = "k-canadian";
note = uni157B;
unicode = 5499;
},
{
color = 4;
glyphname = "nunavuth-canadian";
lastChange = "2023-01-13 15:54:24 +0000";
layers = (
{
layerId = "96DCC2AB-F6C9-4D02-A366-260ACDE51568";
shapes = (
{
closed = 1;
nodes = (
(121,0,l),
(187,315,l),
(531,315,l),
(465,0,l),
(560,0,l),
(707,690,l),
(611,690,l),
(550,400,l),
(206,400,l),
(268,690,l),
(172,690,l),
(25,0,l)
);
}
);
width = 687;
}
);
metricRight = "=|";
note = uni157C;
unicode = 5500;
},
{
glyphname = "tlhe-canadian";
lastChange = "2023-01-13 15:54:20 +0000";
layers = (
{
anchors = (
{
name = top_center_can;
pos = (394,690);
}
);
layerId = "96DCC2AB-F6C9-4D02-A366-260ACDE51568";
shapes = (
{
closed = 1;
nodes = (
(142,0,l),
(336,270,l),
(270,233,l),
(279,233,o),
(291,232,o),
(300,232,cs),
(370,232,o),
(428,261,o),
(458,314,c),
(453,339,l),
(382,0,l),
(476,0,l),
(570,441,ls),
(601,586,o),
(530,702,o),
(372,702,cs),
(207,702,o),
(113,571,o),
(113,427,cs),
(113,346,o),
(155,280,o),
(224,254,c),
(41,0,l)
);
},
{
closed = 1;
nodes = (
(250,315,o),
(206,363,o),
(206,437,cs),
(206,520,o),
(258,620,o),
(363,620,cs),
(440,620,o),
(484,575,o),
(484,503,cs),
(484,417,o),
(430,315,o),
(324,315,cs)
);
}
);
width = 595;
}
);
metricRight = "te-canadian";
note = uni1586;
unicode = 5510;
},
{
glyphname = "tlhi-canadian";
lastChange = "2023-01-13 15:54:20 +0000";
layers = (
{
layerId = "96DCC2AB-F6C9-4D02-A366-260ACDE51568";
shapes = (
{
closed = 1;
nodes = (
(112,0,l),
(189,362,l),
(155,348,l),
(176,283,o),
(238,238,o),
(319,234,c),
(270,273,l),
(352,0,l),
(453,0,l),
(382,242,l),
(503,259,o),
(580,384,o),
(580,502,cs),
(580,621,o),
(498,702,o),
(368,702,cs),
(239,702,o),
(150,624,o),
(118,476,cs),
(17,0,l)
);
},
{
closed = 1;
nodes = (
(254,315,o),
(209,359,o),
(209,434,cs),
(209,517,o),
(260,620,o),
(366,620,cs),
(442,620,o),
(487,575,o),
(487,502,cs),
(487,419,o),
(435,315,o),
(328,315,cs)
);
}
);
width = 596;
}
);
metricLeft = "te-canadian";
metricRight = "=|tlhe-canadian";
note = uni1587;
unicode = 5511;
},
{
glyphname = "tlho-canadian";
lastChange = "2023-01-13 15:54:24 +0000";
layers = (
{
anchors = (
{
name = top_center_can;
pos = (410,690);
}
);
layerId = "96DCC2AB-F6C9-4D02-A366-260ACDE51568";
shapes = (
{
closed = 1;
nodes = (
(402,-13,o),
(491,66,o),
(523,213,cs),
(624,690,l),
(528,690,l),
(452,327,l),
(487,342,l),
(465,407,o),
(403,452,o),
(322,456,c),
(371,416,l),
(290,690,l),
(187,690,l),
(260,447,l),
(138,431,o),
(61,305,o),
(61,187,cs),
(61,69,o),
(142,-13,o),
(272,-13,cs)
);
},
{
closed = 1;
nodes = (
(198,70,o),
(155,115,o),
(155,187,cs),
(155,270,o),
(206,375,o),
(312,375,cs),
(387,375,o),
(432,330,o),
(432,256,cs),
(432,173,o),
(381,70,o),
(274,70,cs)
);
}
);
width = 597;
}
);
metricLeft = "tlhe-canadian";
metricRight = "te-canadian";
note = uni1588;
unicode = 5512;
},
{
glyphname = "tlha-canadian";
lastChange = "2023-01-13 15:54:24 +0000";
layers = (
{
layerId = "96DCC2AB-F6C9-4D02-A366-260ACDE51568";
shapes = (
{
closed = 1;
nodes = (
(434,-13,o),
(527,119,o),
(527,263,cs),
(527,344,o),
(486,410,o),
(416,436,c),
(600,690,l),
(498,690,l),
(304,420,l),
(371,457,l),
(361,457,o),
(350,458,o),
(340,458,cs),
(271,458,o),
(213,429,o),
(183,376,c),
(187,351,l),
(259,690,l),
(164,690,l),
(71,248,ls),
(40,103,o),
(110,-13,o),
(269,-13,cs)
);
},
{
closed = 1;
nodes = (
(200,70,o),
(157,115,o),
(157,186,cs),
(157,272,o),
(211,375,o),
(317,375,cs),
(390,375,o),
(435,327,o),
(435,253,cs),
(435,170,o),
(383,70,o),
(277,70,cs)
);
}
);
width = 596;
}
);
metricLeft = "te-canadian";
note = uni1589;
unicode = 5513;
},
{
glyphname = "reWestCree-canadian";
lastChange = "2023-01-13 15:54:24 +0000";
layers = (
{
layerId = "96DCC2AB-F6C9-4D02-A366-260ACDE51568";
shapes = (
{
closed = 1;
nodes = (
(451,0,l),
(729,195,l),
(679,266,l),
(446,103,l),
(478,78,l),
(554,435,ls),
(587,593,o),
(511,702,o),
(360,702,cs),
(224,702,o),
(142,623,o),
(107,465,cs),
(91,387,l),
(185,387,l),
(202,462,ls),
(224,570,o),
(272,618,o),
(353,618,cs),
(446,618,o),
(483,552,o),
(460,445,cs),
(366,0,l)
);
}
);
width = 764;
}
);
metricLeft = "ce-canadian";
metricRight = "heNunavik-canadian";
note = uni158A;
unicode = 5514;
},
{
glyphname = "riWestCree-canadian";
lastChange = "2023-01-13 15:54:24 +0000";
layers = (
{
layerId = "96DCC2AB-F6C9-4D02-A366-260ACDE51568";
shapes = (
{
closed = 1;
nodes = (
(299,0,l),
(396,462,ls),
(418,570,o),
(467,618,o),
(547,618,cs),
(640,618,o),
(678,552,o),
(655,445,cs),
(642,387,l),
(738,387,l),
(748,435,ls),
(782,593,o),
(704,702,o),
(554,702,cs),
(417,702,o),
(336,623,o),
(301,465,cs),
(219,76,l),
(257,88,l),
(83,260,l),
(17,195,l),
(213,0,l)
);
}
);
width = 766;
}
);
metricLeft = "=|heNunavik-canadian";
metricRight = "=|ce-canadian";
note = uni158B;
unicode = 5515;
},
{
glyphname = "roWestCree-canadian";
lastChange = "2023-01-13 15:54:20 +0000";
layers = (
{
layerId = "96DCC2AB-F6C9-4D02-A366-260ACDE51568";
shapes = (
{
closed = 1;
nodes = (
(393,-13,o),
(474,67,o),
(509,225,cs),
(591,613,l),
(554,602,l),
(727,430,l),
(793,495,l),
(598,690,l),
(513,690,l),
(414,228,ls),
(392,120,o),
(344,71,o),
(264,71,cs),
(170,71,o),
(132,138,o),
(156,244,cs),
(168,302,l),
(72,302,l),
(63,255,ls),
(28,97,o),
(106,-13,o),
(257,-13,cs)
);
}
);
width = 765;
}
);
metricLeft = "ce-canadian";
metricRight = "heNunavik-canadian";
note = uni158C;
unicode = 5516;
},
{
glyphname = "raWestCree-canadian";
lastChange = "2023-01-13 15:54:24 +0000";
layers = (
{
layerId = "96DCC2AB-F6C9-4D02-A366-260ACDE51568";
shapes = (
{
closed = 1;
nodes = (
(585,-13,o),
(668,67,o),
(702,225,cs),
(719,302,l),
(624,302,l),
(608,228,ls),
(585,120,o),
(537,71,o),
(457,71,cs),
(363,71,o),
(327,138,o),
(350,244,cs),
(443,690,l),
(358,690,l),
(80,495,l),
(130,424,l),
(363,586,l),
(331,611,l),
(256,255,ls),
(222,97,o),
(298,-13,o),
(449,-13,cs)
);
}
);
width = 765;
}
);
metricLeft = "=|heNunavik-canadian";
metricRight = "=|ce-canadian";
note = uni158D;
unicode = 5517;
},
{
glyphname = "ng-canadian";
kernLeft = mwestleft;
kernRight = mwestright;
lastChange = "2023-01-13 15:54:24 +0000";
layers = (
{
layerId = "96DCC2AB-F6C9-4D02-A366-260ACDE51568";
shapes = (
{
closed = 1;
nodes = (
(548,217,o),
(600,262,o),
(617,343,cs),
(622,365,l),
(558,365,l),
(553,339,ls),
(542,295,o),
(517,271,o),
(478,271,cs),
(437,271,o),
(419,298,o),
(430,345,cs),
(463,497,l),
(314,497,l),
(315,463,l),
(356,484,o),
(376,540,o),
(377,582,cs),
(379,649,o),
(334,696,o),
(262,696,cs),
(177,696,o),
(127,626,o),
(124,552,cs),
(122,481,o),
(167,435,o),
(239,435,cs),
(400,435,l),
(385,457,l),
(364,357,ls),
(347,274,o),
(389,217,o),
(472,217,cs)
);
},
{
closed = 1;
nodes = (
(205,485,o),
(184,510,o),
(185,550,cs),
(185,588,o),
(207,645,o),
(261,645,cs),
(297,645,o),
(318,620,o),
(317,582,cs),
(316,542,o),
(295,485,o),
(241,485,cs)
);
}
);
width = 638;
}
);
metricLeft = "n-canadian";
metricRight = "c-canadian";
note = uni1595;
unicode = 5525;
},
{
glyphname = "nng-canadian";
kernLeft = mwestleft;
kernRight = mwestright;
lastChange = "2023-01-13 15:54:24 +0000";
layers = (
{
layerId = "96DCC2AB-F6C9-4D02-A366-260ACDE51568";
shapes = (
{
closed = 1;
nodes = (
(838,217,o),
(888,262,o),
(905,343,cs),
(911,365,l),
(846,365,l),
(840,339,ls),
(830,295,o),
(805,271,o),
(767,271,cs),
(724,271,o),
(708,298,o),
(718,345,cs),
(751,497,l),
(609,497,l),
(607,463,l),
(649,485,o),
(669,545,o),
(669,584,cs),
(668,652,o),
(625,696,o),
(553,696,cs),
(467,696,o),
(415,623,o),
(415,547,cs),
(415,514,o),
(427,488,o),
(446,469,c),
(458,497,l),
(317,497,l),
(315,463,l),
(357,486,o),
(378,545,o),
(378,584,cs),
(378,651,o),
(332,696,o),
(262,696,cs),
(175,696,o),
(124,623,o),
(124,547,cs),
(124,479,o),
(168,435,o),
(239,435,cs),
(669,435,l),
(653,357,ls),
(635,273,o),
(680,217,o),
(763,217,cs)
);
},
{
closed = 1;
nodes = (
(205,485,o),
(184,509,o),
(184,546,cs),
(184,584,o),
(205,645,o),
(261,645,cs),
(297,645,o),
(318,621,o),
(318,585,cs),
(318,547,o),
(297,485,o),
(241,485,cs)
);
},
{
closed = 1;
nodes = (
(496,485,o),
(475,509,o),
(475,546,cs),
(475,584,o),
(496,645,o),
(553,645,cs),
(588,645,o),
(610,621,o),
(610,585,cs),
(610,547,o),
(588,485,o),
(532,485,cs)
);
}
);
width = 927;
}
);
metricLeft = "n-canadian";
metricRight = "c-canadian";
note = uni1596;
unicode = 5526;
},
{
glyphname = "sheSayisi-canadian";
lastChange = "2023-01-13 15:54:20 +0000";
layers = (
{
anchors = (
{
name = middle_right_can;
pos = (704,345);
},
{
name = top_center_can;
pos = (392,690);
}
);
layerId = "96DCC2AB-F6C9-4D02-A366-260ACDE51568";
shapes = (
{
closed = 1;
nodes = (
(473,0,l),
(564,428,ls),
(597,581,o),
(537,702,o),
(374,702,cs),
(177,702,o),
(97,512,o),
(97,371,cs),
(97,265,o),
(149,199,o),
(237,199,cs),
(327,199,o),
(381,268,o),
(407,412,c),
(351,412,l),
(333,320,o),
(303,279,o),
(255,279,cs),
(213,279,o),
(188,311,o),
(188,369,cs),
(188,456,o),
(232,620,o),
(364,620,cs),
(469,620,o),
(491,533,o),
(468,426,cs),
(378,0,l)
);
}
);
width = 592;
}
);
metricLeft = "ke-canadian";
metricRight = "te-canadian";
note = uni1597;
unicode = 5527;
},
{
glyphname = "shiSayisi-canadian";
lastChange = "2023-01-13 15:54:24 +0000";
layers = (
{
layerId = "96DCC2AB-F6C9-4D02-A366-260ACDE51568";
shapes = (
{
closed = 1;
nodes = (
(113,0,l),
(211,459,ls),
(234,566,o),
(287,620,o),
(368,620,cs),
(444,620,o),
(487,574,o),
(487,494,cs),
(487,429,o),
(452,279,o),
(369,279,cs),
(315,279,o),
(294,326,o),
(315,412,c),
(259,412,l),
(224,285,o),
(272,199,o),
(375,199,cs),
(521,199,o),
(579,387,o),
(579,496,cs),
(579,623,o),
(501,702,o),
(371,702,cs),
(239,702,o),
(149,621,o),
(118,472,cs),
(17,0,l)
);
}
);
width = 593;
}
);
metricLeft = "te-canadian";
metricRight = "=|ke-canadian";
note = uni1598;
unicode = 5528;
},
{
glyphname = "shoSayisi-canadian";
lastChange = "2023-01-13 15:54:24 +0000";
layers = (
{
anchors = (
{
name = top_center_can;
pos = (388,690);
},
{
name = top_left_can;
pos = (203,690);
},
{
name = top_right_can;
pos = (573,690);
}
);
layerId = "96DCC2AB-F6C9-4D02-A366-260ACDE51568";
shapes = (
{
closed = 1;
nodes = (
(399,-13,o),
(488,69,o),
(520,217,cs),
(620,690,l),
(524,690,l),
(426,231,ls),
(404,124,o),
(351,70,o),
(270,70,cs),
(193,70,o),
(151,116,o),
(151,196,cs),
(151,261,o),
(185,411,o),
(269,411,cs),
(323,411,o),
(344,364,o),
(323,278,c),
(379,278,l),
(413,405,o),
(365,491,o),
(263,491,cs),
(117,491,o),
(59,302,o),
(59,194,cs),
(59,67,o),
(136,-13,o),
(267,-13,cs)
);
}
);
width = 593;
}
);
metricLeft = "ke-canadian";
metricRight = "te-canadian";
note = uni1599;
unicode = 5529;
},
{
glyphname = "shaSayisi-canadian";
lastChange = "2023-01-13 15:54:24 +0000";
layers = (
{
layerId = "96DCC2AB-F6C9-4D02-A366-260ACDE51568";
shapes = (
{
closed = 1;
nodes = (
(462,-13,o),
(540,178,o),
(540,319,cs),
(540,425,o),
(489,491,o),
(401,491,cs),
(311,491,o),
(257,422,o),
(231,278,c),
(287,278,l),
(304,370,o),
(334,411,o),
(383,411,cs),
(425,411,o),
(449,379,o),
(449,321,cs),
(449,234,o),
(406,70,o),
(273,70,cs),
(169,70,o),
(147,156,o),
(170,264,cs),
(260,690,l),
(164,690,l),
(73,262,ls),
(41,109,o),
(100,-13,o),
(265,-13,cs)
);
}
);
width = 592;
}
);
metricLeft = "te-canadian";
metricRight = "=|ke-canadian";
note = uni159A;
unicode = 5530;
},
{
glyphname = "theWoodScree-canadian";
lastChange = "2023-01-13 15:54:20 +0000";
layers = (
{
layerId = "96DCC2AB-F6C9-4D02-A366-260ACDE51568";
shapes = (
{
closed = 1;
nodes = (
(668,-13,o),
(755,141,o),
(755,273,cs),
(755,396,o),
(673,479,o),
(540,479,cs),
(116,479,l),
(99,400,l),
(427,400,l),
(422,432,l),
(317,392,o),
(281,276,o),
(281,194,cs),
(281,71,o),
(364,-13,o),
(494,-13,cs)
);
},
{
closed = 1;
nodes = (
(422,70,o),
(375,122,o),
(375,199,cs),
(375,287,o),
(430,397,o),
(536,397,cs),
(614,397,o),
(662,347,o),
(662,270,cs),
(662,183,o),
(609,70,o),
(498,70,cs)
);
},
{
closed = 1;
nodes = (
(823,611,l),
(839,690,l),
(161,690,l),
(145,611,l)
);
}
);
width = 820;
}
);
note = uni159B;
unicode = 5531;
},
{
glyphname = "thiWoodScree-canadian";
kernRight = niright;
lastChange = "2023-01-13 15:54:20 +0000";
layers = (
{
layerId = "96DCC2AB-F6C9-4D02-A366-260ACDE51568";
shapes = (
{
closed = 1;
nodes = (
(448,-13,o),
(537,140,o),
(537,273,cs),
(537,331,o),
(514,380,o),
(475,408,c),
(459,400,l),
(788,400,l),
(805,479,l),
(329,479,ls),
(152,479,o),
(63,332,o),
(63,194,cs),
(63,71,o),
(146,-13,o),
(275,-13,cs)
);
},
{
closed = 1;
nodes = (
(204,70,o),
(156,122,o),
(156,199,cs),
(156,287,o),
(212,397,o),
(319,397,cs),
(396,397,o),
(443,347,o),
(443,270,cs),
(443,183,o),
(390,70,o),
(280,70,cs)
);
},
{
closed = 1;
nodes = (
(833,611,l),
(850,690,l),
(172,690,l),
(156,611,l)
);
}
);
width = 819;
}
);
metricLeft = "theWoodScree-canadian";
metricRight = "theWoodScree-canadian";
note = uni159C;
unicode = 5532;
},
{
glyphname = "thoWoodScree-canadian";
lastChange = "2023-01-13 15:54:20 +0000";
layers = (
{
layerId = "96DCC2AB-F6C9-4D02-A366-260ACDE51568";
shapes = (
{
closed = 1;
nodes = (
(491,0,ls),
(668,0,o),
(757,147,o),
(757,285,cs),
(757,408,o),
(673,492,o),
(544,492,cs),
(372,492,o),
(283,339,o),
(283,206,cs),
(283,147,o),
(306,99,o),
(345,71,c),
(361,79,l),
(31,79,l),
(14,0,l)
);
},
{
closed = 1;
nodes = (
(423,82,o),
(376,132,o),
(376,210,cs),
(376,297,o),
(430,410,o),
(540,410,cs),
(616,410,o),
(664,357,o),
(664,279,cs),
(664,191,o),
(609,82,o),
(501,82,cs)
);
},
{
closed = 1;
nodes = (
(822,611,l),
(839,690,l),
(161,690,l),
(144,611,l)
);
}
);
width = 820;
}
);
metricLeft = "theWoodScree-canadian";
metricRight = "theWoodScree-canadian";
note = uni159D;
unicode = 5533;
},
{
glyphname = "thaWoodScree-canadian";
lastChange = "2023-01-13 15:54:24 +0000";
layers = (
{
layerId = "96DCC2AB-F6C9-4D02-A366-260ACDE51568";
shapes = (
{
closed = 1;
nodes = (
(703,0,l),
(721,79,l),
(392,79,l),
(397,47,l),
(502,87,o),
(539,203,o),
(539,285,cs),
(539,407,o),
(456,492,o),
(327,492,cs),
(153,492,o),
(65,338,o),
(65,206,cs),
(65,83,o),
(147,0,o),
(280,0,cs)
);
},
{
closed = 1;
nodes = (
(206,82,o),
(158,132,o),
(158,210,cs),
(158,297,o),
(212,410,o),
(322,410,cs),
(398,410,o),
(445,357,o),
(445,279,cs),
(445,191,o),
(390,82,o),
(283,82,cs)
);
},
{
closed = 1;
nodes = (
(833,611,l),
(850,690,l),
(172,690,l),
(155,611,l)
);
}
);
width = 820;
}
);
metricLeft = "theWoodScree-canadian";
metricRight = "theWoodScree-canadian";
note = uni159E;
unicode = 5534;
},
{
glyphname = "thWoodScree-canadian";
lastChange = "2023-01-13 15:54:24 +0000";
layers = (
{
layerId = "96DCC2AB-F6C9-4D02-A366-260ACDE51568";
shapes = (
{
closed = 1;
nodes = (
(463,344,l),
(475,403,l),
(298,403,l),
(295,368,l),
(347,387,o),
(368,452,o),
(368,496,cs),
(368,561,o),
(323,607,o),
(252,607,cs),
(165,607,o),
(114,532,o),
(114,457,cs),
(114,389,o),
(159,344,o),
(229,344,cs)
);
},
{
closed = 1;
nodes = (
(195,395,o),
(174,419,o),
(174,456,cs),
(174,494,o),
(195,555,o),
(251,555,cs),
(287,555,o),
(308,531,o),
(308,495,cs),
(308,456,o),
(287,395,o),
(231,395,cs)
);
},
{
closed = 1;
nodes = (
(527,663,l),
(540,722,l),
(171,722,l),
(158,663,l)
);
}
);
width = 505;
}
);
metricRight = "=|";
note = uni159F;
unicode = 5535;
},
{
glyphname = "lhi-canadian";
kernRight = niright;
lastChange = "2023-01-13 15:54:20 +0000";
layers = (
{
anchors = (
{
name = top_center_can;
pos = (554,690);
},
{
name = top_right_can;
pos = (651,690);
}
);
layerId = "96DCC2AB-F6C9-4D02-A366-260ACDE51568";
shapes = (
{
closed = 1;
nodes = (
(313,0,l),
(331,85,l),
(288,85,ls),
(202,85,o),
(154,129,o),
(154,205,cs),
(154,294,o),
(203,392,o),
(350,392,cs),
(783,392,l),
(799,469,l),
(676,728,l),
(592,688,l),
(710,440,l),
(736,479,l),
(358,479,ls),
(152,479,o),
(59,348,o),
(59,202,cs),
(59,82,o),
(140,0,o),
(269,0,cs)
);
}
);
width = 806;
}
);
metricLeft = "ke-canadian";
metricRight = "=|ne-canadian";
note = uni15A0;
unicode = 5536;
},
{
glyphname = "lho-canadian";
kernLeft = noleft;
lastChange = "2023-01-13 15:54:20 +0000";
layers = (
{
anchors = (
{
name = top_center_can;
pos = (448,497);
},
{
name = top_right_can;
pos = (559,497);
}
);
layerId = "96DCC2AB-F6C9-4D02-A366-260ACDE51568";
shapes = (
{
closed = 1;
nodes = (
(213,-209,l),
(95,39,l),
(69,0,l),
(446,0,ls),
(653,0,o),
(746,130,o),
(746,276,cs),
(746,397,o),
(665,479,o),
(536,479,cs),
(492,479,l),
(473,394,l),
(517,394,ls),
(603,394,o),
(651,349,o),
(651,274,cs),
(651,185,o),
(602,86,o),
(455,86,cs),
(22,86,l),
(6,10,l),
(128,-249,l)
);
}
);
width = 806;
}
);
metricLeft = "ne-canadian";
metricRight = "=|ke-canadian";
note = uni15A2;
unicode = 5538;
},
{
glyphname = "lha-canadian";
kernRight = naright;
lastChange = "2023-01-13 15:54:24 +0000";
layers = (
{
anchors = (
{
name = top_center_can;
pos = (469,497);
},
{
name = top_left_can;
pos = (356,497);
}
);
layerId = "96DCC2AB-F6C9-4D02-A366-260ACDE51568";
shapes = (
{
closed = 1;
nodes = (
(701,10,l),
(718,87,l),
(290,87,ls),
(202,87,o),
(156,129,o),
(156,206,cs),
(156,297,o),
(204,394,o),
(350,394,cs),
(397,394,l),
(414,479,l),
(361,479,ls),
(147,479,o),
(59,342,o),
(59,198,cs),
(59,77,o),
(139,0,o),
(272,0,cs),
(632,0,l),
(611,38,l),
(405,-192,l),
(469,-249,l)
);
}
);
width = 805;
}
);
metricLeft = "ke-canadian";
metricRight = "=|ne-canadian";
note = uni15A4;
unicode = 5540;
},
{
glyphname = "lh-canadian";
kernLeft = mwestleft;
kernRight = mwestright;
lastChange = "2023-01-13 15:54:20 +0000";
layers = (
{
layerId = "96DCC2AB-F6C9-4D02-A366-260ACDE51568";
shapes = (
{
closed = 1;
nodes = (
(465,352,l),
(477,409,l),
(271,409,ls),
(215,409,o),
(185,437,o),
(185,487,cs),
(185,549,o),
(214,628,o),
(314,628,cs),
(336,628,l),
(349,690,l),
(321,690,ls),
(185,690,o),
(117,594,o),
(117,481,cs),
(117,396,o),
(172,345,o),
(267,345,cs),
(425,345,l),
(404,385,l),
(287,253,l),
(336,208,l)
);
}
);
width = 501;
}
);
metricLeft = "t-canadian";
metricRight = "=|";
note = uni15A6;
unicode = 5542;
},
{
glyphname = "theThCree-canadian";
lastChange = "2023-01-13 15:54:20 +0000";
layers = (
{
anchors = (
{
name = top_left_can;
pos = (185,690);
},
{
name = top_right_can;
pos = (543,690);
}
);
layerId = "96DCC2AB-F6C9-4D02-A366-260ACDE51568";
shapes = (
{
closed = 1;
nodes = (
(370,102,l),
(348,0,l),
(443,0,l),
(466,102,l),
(545,102,l),
(556,158,l),
(477,158,l),
(513,326,l),
(190,326,l),
(202,296,l),
(592,639,l),
(534,701,l),
(48,270,l),
(43,241,l),
(399,241,l),
(382,158,l),
(144,158,l),
(132,102,l)
);
}
);
width = 607;
}
);
metricLeft = "ye-canadian";
note = uni15A7;
unicode = 5543;
},
{
glyphname = "thiThCree-canadian";
kernRight = yiright;
lastChange = "2023-01-13 15:54:24 +0000";
layers = (
{
anchors = (
{
name = top_left_can;
pos = (257,690);
},
{
name = top_right_can;
pos = (614,690);
}
);
layerId = "96DCC2AB-F6C9-4D02-A366-260ACDE51568";
shapes = (
{
closed = 1;
nodes = (
(158,0,l),
(181,102,l),
(417,102,l),
(429,158,l),
(192,158,l),
(210,241,l),
(566,241,l),
(573,270,l),
(256,701,l),
(187,650,l),
(453,290,l),
(470,326,l),
(131,326,l),
(96,158,l),
(16,158,l),
(5,102,l),
(84,102,l),
(62,0,l)
);
}
);
width = 609;
}
);
metricLeft = "=|theThCree-canadian";
metricRight = "=|ye-canadian";
note = uni15A8;
unicode = 5544;
},
{
glyphname = "thoThCree-canadian";
kernLeft = yoleft;
lastChange = "2023-01-13 15:54:20 +0000";
layers = (
{
anchors = (
{
name = top_left_can;
pos = (185,690);
},
{
name = top_right_can;
pos = (543,690);
}
);
layerId = "96DCC2AB-F6C9-4D02-A366-260ACDE51568";
shapes = (
{
closed = 1;
nodes = (
(466,40,l),
(200,400,l),
(182,364,l),
(521,364,l),
(556,531,l),
(636,531,l),
(647,587,l),
(568,587,l),
(590,690,l),
(494,690,l),
(472,587,l),
(235,587,l),
(223,531,l),
(460,531,l),
(442,449,l),
(87,449,l),
(80,419,l),
(396,-12,l)
);
}
);
width = 607;
}
);
metricLeft = "ye-canadian";
metricRight = "theThCree-canadian";
note = uni15AA;
unicode = 5546;
},
{
glyphname = "thaThCree-canadian";
kernRight = yaright;
lastChange = "2023-01-13 15:54:24 +0000";
layers = (
{
anchors = (
{
name = top_left_can;
pos = (257,690);
},
{
name = top_right_can;
pos = (614,690);
}
);
layerId = "96DCC2AB-F6C9-4D02-A366-260ACDE51568";
shapes = (
{
closed = 1;
nodes = (
(605,419,l),
(611,449,l),
(253,449,l),
(270,531,l),
(508,531,l),
(520,587,l),
(282,587,l),
(304,690,l),
(209,690,l),
(186,587,l),
(107,587,l),
(96,531,l),
(175,531,l),
(139,364,l),
(463,364,l),
(451,394,l),
(60,50,l),
(118,-12,l)
);
}
);
width = 609;
}
);
metricLeft = "=|theThCree-canadian";
metricRight = "=|ye-canadian";
note = uni15AC;
unicode = 5548;
},
{
glyphname = "thThCree-canadian";
kernLeft = mwestleft;
kernRight = mwestright;
lastChange = "2023-01-13 15:54:20 +0000";
layers = (
{
layerId = "96DCC2AB-F6C9-4D02-A366-260ACDE51568";
shapes = (
{
closed = 1;
nodes = (
(172,613,l),
(151,514,l),
(318,514,l),
(305,544,l),
(121,378,l),
(163,335,l),
(398,550,l),
(403,569,l),
(231,569,l),
(240,613,l),
(353,613,l),
(359,645,l),
(246,645,l),
(256,690,l),
(188,690,l),
(179,645,l),
(139,645,l),
(132,613,l)
);
}
);
width = 369;
}
);
metricRight = "y-canadian";
note = uni15AE;
unicode = 5550;
},
{
glyphname = "bAivilik-canadian";
lastChange = "2023-01-13 15:54:20 +0000";
layers = (
{
layerId = "96DCC2AB-F6C9-4D02-A366-260ACDE51568";
shapes = (
{
closed = 1;
nodes = (
(454,-13,o),
(538,152,o),
(538,289,cs),
(538,411,o),
(463,492,o),
(348,492,cs),
(275,492,o),
(219,455,o),
(192,399,c),
(203,384,l),
(268,690,l),
(172,690,l),
(25,0,l),
(117,0,l),
(142,118,l),
(132,105,l),
(144,33,o),
(203,-13,o),
(288,-13,cs)
);
},
{
closed = 1;
nodes = (
(213,70,o),
(169,117,o),
(169,196,cs),
(169,275,o),
(210,410,o),
(327,410,cs),
(401,410,o),
(444,362,o),
(444,284,cs),
(444,207,o),
(404,70,o),
(286,70,cs)
);
}
);
width = 595;
}
);
metricLeft = "nunavuth-canadian";
metricRight = "=|ke-canadian";
note = uni15AF;
unicode = 5551;
},
{
glyphname = "eBlackfoot-canadian";
lastChange = "2023-01-13 15:54:20 +0000";
layers = (
{
layerId = "96DCC2AB-F6C9-4D02-A366-260ACDE51568";
shapes = (
{
closed = 1;
nodes = (
(121,0,l),
(210,416,l),
(234,374,o),
(279,349,o),
(336,349,cs),
(455,349,o),
(526,455,o),
(526,554,cs),
(526,640,o),
(468,702,o),
(378,702,cs),
(331,702,o),
(288,685,o),
(257,656,c),
(264,690,l),
(172,690,l),
(25,0,l)
);
}
);
width = 506;
}
);
metricLeft = "nunavuth-canadian";
note = uni15B0;
unicode = 5552;
},
{
glyphname = "iBlackfoot-canadian";
lastChange = "2023-01-13 15:54:20 +0000";
layers = (
{
layerId = "96DCC2AB-F6C9-4D02-A366-260ACDE51568";
shapes = (
{
closed = 1;
nodes = (
(218,-13,o),
(262,5,o),
(294,34,c),
(287,0,l),
(379,0,l),
(526,690,l),
(430,690,l),
(341,273,l),
(317,316,o),
(271,341,o),
(214,341,cs),
(96,341,o),
(25,235,o),
(25,136,cs),
(25,49,o),
(83,-13,o),
(173,-13,cs)
);
}
);
width = 506;
}
);
metricLeft = "=|eBlackfoot-canadian";
metricRight = "nunavuth-canadian";
note = uni15B1;
unicode = 5553;
},
{
glyphname = "oBlackfoot-canadian";
lastChange = "2023-01-13 15:54:24 +0000";
layers = (
{
layerId = "96DCC2AB-F6C9-4D02-A366-260ACDE51568";
shapes = (
{
closed = 1;
nodes = (
(378,-13,o),
(448,90,o),
(448,190,cs),
(448,278,o),
(390,341,o),
(302,341,cs),
(258,341,o),
(215,325,o),
(184,297,c),
(268,690,l),
(172,690,l),
(25,0,l),
(117,0,l),
(130,63,l),
(153,15,o),
(200,-13,o),
(261,-13,cs)
);
}
);
width = 505;
}
);
metricLeft = "nunavuth-canadian";
metricRight = "eBlackfoot-canadian";
note = uni15B2;
unicode = 5554;
},
{
glyphname = "aBlackfoot-canadian";
lastChange = "2023-01-13 15:54:20 +0000";
layers = (
{
layerId = "96DCC2AB-F6C9-4D02-A366-260ACDE51568";
shapes = (
{
closed = 1;
nodes = (
(379,0,l),
(526,690,l),
(433,690,l),
(420,627,l),
(397,674,o),
(350,702,o),
(290,702,cs),
(173,702,o),
(102,600,o),
(102,499,cs),
(102,412,o),
(159,349,o),
(247,349,cs),
(293,349,o),
(335,365,o),
(366,393,c),
(283,0,l)
);
}
);
width = 506;
}
);
metricLeft = "=|eBlackfoot-canadian";
metricRight = "nunavuth-canadian";
note = uni15B3;
unicode = 5555;
},
{
glyphname = "weBlackfoot-canadian";
lastChange = "2023-01-13 15:54:20 +0000";
layers = (
{
layerId = "96DCC2AB-F6C9-4D02-A366-260ACDE51568";
shapes = (
{
closed = 1;
nodes = (
(121,0,l),
(185,303,l),
(532,303,l),
(549,384,l),
(203,384,l),
(250,609,l),
(597,609,l),
(613,690,l),
(172,690,l),
(25,0,l)
);
}
);
width = 577;
}
);
metricLeft = "nunavuth-canadian";
note = uni15B4;
unicode = 5556;
},
{
glyphname = "wiBlackfoot-canadian";
lastChange = "2023-01-13 15:54:24 +0000";
layers = (
{
layerId = "96DCC2AB-F6C9-4D02-A366-260ACDE51568";
shapes = (
{
closed = 1;
nodes = (
(449,0,l),
(596,690,l),
(500,690,l),
(436,386,l),
(89,386,l),
(72,305,l),
(418,305,l),
(371,81,l),
(24,81,l),
(8,0,l)
);
}
);
width = 576;
}
);
metricLeft = "=|weBlackfoot-canadian";
metricRight = "nunavuth-canadian";
note = uni15B5;
unicode = 5557;
},
{
glyphname = "woBlackfoot-canadian";
lastChange = "2023-01-13 15:54:20 +0000";
layers = (
{
layerId = "96DCC2AB-F6C9-4D02-A366-260ACDE51568";
shapes = (
{
closed = 1;
nodes = (
(468,0,l),
(484,81,l),
(138,81,l),
(185,305,l),
(532,305,l),
(550,386,l),
(203,386,l),
(268,690,l),
(172,690,l),
(25,0,l)
);
}
);
width = 577;
}
);
metricLeft = "nunavuth-canadian";
metricRight = "weBlackfoot-canadian";
note = uni15B6;
unicode = 5558;
},
{
glyphname = "waBlackfoot-canadian";
lastChange = "2023-01-13 15:54:24 +0000";
layers = (
{
layerId = "96DCC2AB-F6C9-4D02-A366-260ACDE51568";
shapes = (
{
closed = 1;
nodes = (
(449,0,l),
(596,690,l),
(154,690,l),
(137,609,l),
(483,609,l),
(436,384,l),
(89,384,l),
(71,303,l),
(418,303,l),
(354,0,l)
);
}
);
width = 576;
}
);
metricLeft = "=|weBlackfoot-canadian";
metricRight = "nunavuth-canadian";
note = uni15B7;
unicode = 5559;
},
{
glyphname = "neBlackfoot-canadian";
lastChange = "2023-01-13 15:54:20 +0000";
layers = (
{
layerId = "96DCC2AB-F6C9-4D02-A366-260ACDE51568";
shapes = (
{
closed = 1;
nodes = (
(121,0,l),
(252,617,l),
(299,617,l),
(283,677,l),
(278,654,ls),
(245,503,o),
(326,399,o),
(476,399,cs),
(610,399,o),
(699,479,o),
(730,627,cs),
(744,690,l),
(649,690,l),
(637,629,ls),
(617,531,o),
(564,482,o),
(482,482,cs),
(391,482,o),
(350,542,o),
(370,639,cs),
(381,690,l),
(172,690,l),
(25,0,l)
);
}
);
width = 687;
}
);
metricLeft = "nunavuth-canadian";
note = uni15B8;
unicode = 5560;
},
{
glyphname = "niBlackfoot-canadian";
lastChange = "2023-01-13 15:54:24 +0000";
layers = (
{
layerId = "96DCC2AB-F6C9-4D02-A366-260ACDE51568";
shapes = (
{
closed = 1;
nodes = (
(82,0,l),
(95,61,ls),
(115,158,o),
(168,208,o),
(250,208,cs),
(341,208,o),
(383,148,o),
(362,50,cs),
(352,0,l),
(560,0,l),
(707,690,l),
(611,690,l),
(479,72,l),
(432,72,l),
(448,13,l),
(453,36,ls),
(486,186,o),
(407,291,o),
(256,291,cs),
(123,291,o),
(32,211,o),
(1,63,cs),
(-12,0,l)
);
}
);
width = 687;
}
);
metricLeft = "=|neBlackfoot-canadian";
metricRight = "nunavuth-canadian";
note = uni15B9;
unicode = 5561;
},
{
glyphname = "noBlackfoot-canadian";
lastChange = "2023-01-13 15:54:20 +0000";
layers = (
{
layerId = "96DCC2AB-F6C9-4D02-A366-260ACDE51568";
shapes = (
{
closed = 1;
nodes = (
(234,0,l),
(246,58,ls),
(268,158,o),
(317,208,o),
(399,208,cs),
(491,208,o),
(533,147,o),
(513,47,cs),
(502,0,l),
(597,0,l),
(605,37,ls),
(635,188,o),
(555,292,o),
(406,292,cs),
(273,292,o),
(185,212,o),
(150,51,cs),
(142,14,l),
(184,72,l),
(136,72,l),
(268,690,l),
(172,690,l),
(25,0,l)
);
}
);
width = 687;
}
);
metricLeft = "nunavuth-canadian";
metricRight = "neBlackfoot-canadian";
note = uni15BA;
unicode = 5562;
},
{
glyphname = "naBlackfoot-canadian";
lastChange = "2023-01-13 15:54:24 +0000";
layers = (
{
layerId = "96DCC2AB-F6C9-4D02-A366-260ACDE51568";
shapes = (
{
closed = 1;
nodes = (
(561,0,l),
(708,690,l),
(499,690,l),
(487,632,ls),
(466,531,o),
(416,482,o),
(334,482,cs),
(243,482,o),
(199,543,o),
(220,642,cs),
(230,690,l),
(135,690,l),
(129,653,ls),
(98,501,o),
(178,398,o),
(328,398,cs),
(460,398,o),
(548,478,o),
(583,639,cs),
(590,676,l),
(549,617,l),
(597,617,l),
(466,0,l)
);
}
);
width = 688;
}
);
metricLeft = "=|neBlackfoot-canadian";
metricRight = "nunavuth-canadian";
note = uni15BB;
unicode = 5563;
},
{
glyphname = "keBlackfoot-canadian";
lastChange = "2023-01-13 15:54:20 +0000";
layers = (
{
layerId = "96DCC2AB-F6C9-4D02-A366-260ACDE51568";
shapes = (
{
closed = 1;
nodes = (
(121,0,l),
(245,582,l),
(211,582,l),
(316,255,l),
(357,255,l),
(688,690,l),
(575,690,l),
(334,368,l),
(362,365,l),
(260,690,l),
(172,690,l),
(25,0,l)
);
}
);
width = 613;
}
);
metricLeft = "nunavuth-canadian";
note = uni15BC;
unicode = 5564;
},
{
glyphname = "kiBlackfoot-canadian";
lastChange = "2023-01-13 15:54:20 +0000";
layers = (
{
layerId = "96DCC2AB-F6C9-4D02-A366-260ACDE51568";
shapes = (
{
closed = 1;
nodes = (
(83,0,l),
(324,322,l),
(295,325,l),
(397,0,l),
(486,0,l),
(633,690,l),
(537,690,l),
(412,108,l),
(447,108,l),
(341,435,l),
(299,435,l),
(-30,0,l)
);
}
);
width = 613;
}
);
metricLeft = "=|keBlackfoot-canadian";
metricRight = "nunavuth-canadian";
note = uni15BD;
unicode = 5565;
},
{
glyphname = "koBlackfoot-canadian";
lastChange = "2023-01-13 15:54:20 +0000";
layers = (
{
layerId = "96DCC2AB-F6C9-4D02-A366-260ACDE51568";
shapes = (
{
closed = 1;
nodes = (
(114,0,l),
(381,337,l),
(327,343,l),
(441,0,l),
(541,0,l),
(395,435,l),
(354,435,l),
(106,107,l),
(144,107,l),
(268,690,l),
(172,690,l),
(25,0,l)
);
}
);
width = 613;
}
);
metricLeft = "nunavuth-canadian";
metricRight = "keBlackfoot-canadian";
note = uni15BE;
unicode = 5566;
},
{
glyphname = "kaBlackfoot-canadian";
lastChange = "2023-01-13 15:54:20 +0000";
layers = (
{
layerId = "96DCC2AB-F6C9-4D02-A366-260ACDE51568";
shapes = (
{
closed = 1;
nodes = (
(486,1,l),
(633,691,l),
(543,691,l),
(277,354,l),
(330,347,l),
(216,691,l),
(117,691,l),
(262,256,l),
(304,256,l),
(551,582,l),
(514,582,l),
(390,1,l)
);
}
);
width = 613;
}
);
metricLeft = "=|keBlackfoot-canadian";
metricRight = "nunavuth-canadian";
note = uni15BF;
unicode = 5567;
},
{
color = 9;
glyphname = "heSayisi-canadian";
lastChange = "2023-01-13 15:54:20 +0000";
layers = (
{
anchors = (
{
name = top_right_can;
pos = (643,690);
}
);
layerId = "96DCC2AB-F6C9-4D02-A366-260ACDE51568";
shapes = (
{
closed = 1;
nodes = (
(544,0,l),
(691,690,l),
(596,690,l),
(506,269,l),
(525,268,l),
(573,536,o),
(500,702,o),
(333,702,cs),
(219,702,o),
(141,625,o),
(106,478,cs),
(97,434,o),
(91,388,o),
(89,336,c),
(181,336,l),
(184,384,o),
(188,422,o),
(196,457,cs),
(220,563,o),
(270,618,o),
(346,618,cs),
(497,618,o),
(533,403,o),
(448,0,c)
);
}
);
width = 671;
}
);
metricRight = "nunavuth-canadian";
note = uni15C0;
unicode = 5568;
},
{
color = 9;
glyphname = "hiSayisi-canadian";
lastChange = "2023-01-13 15:54:24 +0000";
layers = (
{
layerId = "96DCC2AB-F6C9-4D02-A366-260ACDE51568";
shapes = (
{
closed = 1;
nodes = (
(121,0,l),
(207,403,o),
(328,618,o),
(469,618,cs),
(554,618,o),
(587,545,o),
(560,421,cs),
(554,389,o),
(545,363,o),
(534,336,c),
(626,336,l),
(639,368,o),
(649,397,o),
(655,424,cs),
(689,592,o),
(627,702,o),
(497,702,cs),
(352,702,o),
(227,552,o),
(167,298,c),
(183,297,l),
(267,690,l),
(172,690,l),
(25,0,l)
);
}
);
width = 671;
}
);
metricLeft = "nunavuth-canadian";
metricRight = "=|heSayisi-canadian";
note = uni15C1;
unicode = 5569;
},
{
color = 9;
glyphname = "hoSayisi-canadian";
lastChange = "2023-01-13 15:54:20 +0000";
layers = (
{
anchors = (
{
name = top_center_can;
pos = (426,690);
},
{
name = top_left_can;
pos = (209,690);
},
{
name = top_right_can;
pos = (643,690);
}
);
layerId = "96DCC2AB-F6C9-4D02-A366-260ACDE51568";
shapes = (
{
closed = 1;
nodes = (
(363,-13,o),
(488,138,o),
(549,392,c),
(532,393,l),
(449,0,l),
(544,0,l),
(691,690,l),
(595,690,l),
(509,287,o),
(387,71,o),
(246,71,cs),
(162,71,o),
(128,145,o),
(155,269,cs),
(162,300,o),
(171,327,o),
(182,354,c),
(90,354,l),
(76,322,o),
(67,293,o),
(61,266,cs),
(27,98,o),
(89,-13,o),
(218,-13,cs)
);
}
);
width = 671;
}
);
metricLeft = "heSayisi-canadian";
metricRight = "nunavuth-canadian";
note = uni15C2;
unicode = 5570;
},
{
color = 9;
glyphname = "haSayisi-canadian";
lastChange = "2023-01-13 15:54:24 +0000";
layers = (
{
layerId = "96DCC2AB-F6C9-4D02-A366-260ACDE51568";
shapes = (
{
closed = 1;
nodes = (
(497,-13,o),
(575,65,o),
(610,212,cs),
(619,256,o),
(625,301,o),
(627,354,c),
(534,354,l),
(532,306,o),
(527,268,o),
(519,233,cs),
(496,127,o),
(444,71,o),
(370,71,cs),
(219,71,o),
(183,287,o),
(268,690,c),
(172,690,l),
(25,0,l),
(120,0,l),
(209,421,l),
(191,422,l),
(142,154,o),
(215,-13,o),
(382,-13,cs)
);
}
);
width = 671;
}
);
metricLeft = "nunavuth-canadian";
metricRight = "=|heSayisi-canadian";
note = uni15C3;
unicode = 5571;
},
{
color = 9;
glyphname = "ghuCarrier-canadian";
lastChange = "2023-01-13 15:54:24 +0000";
layers = (
{
layerId = "96DCC2AB-F6C9-4D02-A366-260ACDE51568";
shapes = (
{
closed = 1;
nodes = (
(326,0,l),
(774,664,l),
(780,690,l),
(691,690,l),
(542,467,l),
(576,485,l),
(229,485,l),
(258,467,l),
(207,690,l),
(128,690,l),
(123,664,l),
(290,0,l)
);
},
{
closed = 1;
nodes = (
(530,412,l),
(519,427,l),
(308,107,l),
(345,101,l),
(267,429,l),
(247,412,l)
);
}
);
width = 716;
}
);
metricLeft = "e-canadian";
metricRight = "e-canadian";
note = uni15C4;
unicode = 5572;
},
{
color = 9;
glyphname = "ghoCarrier-canadian";
lastChange = "2023-01-13 15:54:24 +0000";
layers = (
{
layerId = "96DCC2AB-F6C9-4D02-A366-260ACDE51568";
shapes = (
{
closed = 1;
nodes = (
(71,0,l),
(220,223,l),
(185,205,l),
(532,205,l),
(503,223,l),
(554,0,l),
(633,0,l),
(639,26,l),
(471,690,l),
(436,690,l),
(-13,26,l),
(-18,0,l)
);
},
{
closed = 1;
nodes = (
(510,302,l),
(244,304,l),
(256,264,l),
(457,558,l),
(402,562,l),
(480,259,l)
);
}
);
width = 716;
}
);
metricLeft = "e-canadian";
metricRight = "e-canadian";
note = uni15C5;
unicode = 5573;
},
{
color = 9;
glyphname = "gheCarrier-canadian";
lastChange = "2023-01-13 15:54:20 +0000";
layers = (
{
anchors = (
{
name = middle_center_can;
pos = (102,354);
}
);
layerId = "96DCC2AB-F6C9-4D02-A366-260ACDE51568";
shapes = (
{
closed = 1;
nodes = (
(28,0,l),
(634,327,l),
(641,362,l),
(175,690,l),
(149,690,l),
(134,619,l),
(278,518,l),
(272,572,l),
(180,137,l),
(206,188,l),
(21,89,l),
(2,0,l)
);
},
{
closed = 1;
nodes = (
(337,534,l),
(312,503,l),
(558,328,l),
(561,374,l),
(248,205,l),
(260,173,l)
);
}
);
width = 649;
}
);
metricLeft = "po-canadian";
metricRight = "o-canadian";
note = uni15C6;
unicode = 5574;
},
{
color = 9;
glyphname = "ghaCarrier-canadian";
lastChange = "2023-01-13 15:54:24 +0000";
layers = (
{
layerId = "96DCC2AB-F6C9-4D02-A366-260ACDE51568";
shapes = (
{
closed = 1;
nodes = (
(546,0,l),
(561,71,l),
(417,172,l),
(423,118,l),
(516,553,l),
(490,501,l),
(674,601,l),
(693,690,l),
(668,690,l),
(61,363,l),
(53,327,l),
(520,0,l)
);
},
{
closed = 1;
nodes = (
(384,186,l),
(142,357,l),
(139,319,l),
(447,485,l),
(434,510,l),
(359,163,l)
);
}
);
width = 650;
}
);
metricLeft = "=|o-canadian";
metricRight = "=|po-canadian";
note = uni15C9;
unicode = 5577;
},
{
color = 9;
glyphname = "ruCarrier-canadian";
lastChange = "2023-01-13 15:54:24 +0000";
layers = (
{
layerId = "96DCC2AB-F6C9-4D02-A366-260ACDE51568";
shapes = (
{
closed = 1;
nodes = (
(326,0,l),
(774,664,l),
(780,690,l),
(690,690,l),
(627,597,l),
(667,614,l),
(198,614,l),
(228,596,l),
(206,690,l),
(128,690,l),
(123,664,l),
(290,0,l)
);
},
{
closed = 1;
nodes = (
(619,539,l),
(603,555,l),
(309,110,l),
(345,104,l),
(237,557,l),
(215,539,l)
);
}
);
width = 716;
}
);
metricLeft = "e-canadian";
metricRight = "e-canadian";
note = uni15CA;
unicode = 5578;
},
{
color = 9;
glyphname = "roCarrier-canadian";
lastChange = "2023-01-13 15:54:24 +0000";
layers = (
{
layerId = "96DCC2AB-F6C9-4D02-A366-260ACDE51568";
shapes = (
{
closed = 1;
nodes = (
(437,690,l),
(-13,26,l),
(-18,0,l),
(71,0,l),
(134,93,l),
(95,75,l),
(563,75,l),
(534,94,l),
(555,0,l),
(633,0,l),
(639,26,l),
(471,690,l)
);
},
{
closed = 1;
nodes = (
(143,151,l),
(159,134,l),
(453,580,l),
(416,585,l),
(525,132,l),
(546,151,l)
);
}
);
width = 716;
}
);
metricLeft = "e-canadian";
metricRight = "e-canadian";
note = uni15CB;
unicode = 5579;
},
{
color = 9;
glyphname = "reCarrier-canadian";
lastChange = "2023-01-13 15:54:20 +0000";
layers = (
{
layerId = "96DCC2AB-F6C9-4D02-A366-260ACDE51568";
shapes = (
{
closed = 1;
nodes = (
(28,0,l),
(635,327,l),
(641,362,l),
(175,690,l),
(149,690,l),
(134,620,l),
(207,569,l),
(198,624,l),
(83,84,l),
(112,135,l),
(21,86,l),
(3,0,l)
);
},
{
closed = 1;
nodes = (
(265,582,l),
(240,550,l),
(553,328,l),
(554,372,l),
(156,156,l),
(167,127,l)
);
}
);
width = 650;
}
);
metricLeft = "po-canadian";
metricRight = "o-canadian";
note = uni15CC;
unicode = 5580;
},
{
color = 9;
glyphname = "reeCarrier-canadian";
lastChange = "2023-01-13 15:54:20 +0000";
layers = (
{
layerId = "96DCC2AB-F6C9-4D02-A366-260ACDE51568";
shapes = (
{
closed = 1;
nodes = (
(28,0,l),
(635,327,l),
(641,362,l),
(175,690,l),
(149,690,l),
(136,630,l),
(205,582,l),
(200,633,l),
(81,74,l),
(104,125,l),
(18,77,l),
(2,0,l)
);
},
{
closed = 1;
nodes = (
(259,598,l),
(231,569,l),
(574,329,l),
(576,373,l),
(144,140,l),
(156,108,l)
);
},
{
closed = 1;
nodes = (
(288,269,l),
(324,435,l),
(280,435,l),
(244,269,l)
);
}
);
width = 650;
}
);
metricLeft = "po-canadian";
metricRight = "o-canadian";
note = uni15CD;
unicode = 5581;
},
{
color = 9;
glyphname = "riCarrier-canadian";
lastChange = "2023-01-13 15:54:20 +0000";
layers = (
{
layerId = "96DCC2AB-F6C9-4D02-A366-260ACDE51568";
shapes = (
{
closed = 1;
nodes = (
(28,0,l),
(635,327,l),
(641,362,l),
(175,690,l),
(149,690,l),
(136,630,l),
(205,581,l),
(200,633,l),
(81,74,l),
(109,127,l),
(18,77,l),
(2,0,l)
);
},
{
closed = 1;
nodes = (
(348,312,o),
(367,329,o),
(367,354,cs),
(367,378,o),
(348,396,o),
(326,396,cs),
(302,396,o),
(283,378,o),
(283,354,cs),
(283,329,o),
(302,312,o),
(326,312,cs)
);
},
{
closed = 1;
nodes = (
(259,598,l),
(231,569,l),
(574,329,l),
(576,373,l),
(145,141,l),
(156,108,l)
);
}
);
width = 650;
}
);
metricLeft = "po-canadian";
metricRight = "o-canadian";
note = uni15CE;
unicode = 5582;
},
{
color = 9;
glyphname = "raCarrier-canadian";
lastChange = "2023-01-13 15:54:20 +0000";
layers = (
{
layerId = "96DCC2AB-F6C9-4D02-A366-260ACDE51568";
shapes = (
{
closed = 1;
nodes = (
(545,0,l),
(560,70,l),
(488,121,l),
(497,66,l),
(611,606,l),
(582,554,l),
(673,604,l),
(692,690,l),
(667,690,l),
(60,362,l),
(53,327,l),
(520,0,l)
);
},
{
closed = 1;
nodes = (
(455,140,l),
(142,361,l),
(140,318,l),
(539,533,l),
(527,563,l),
(430,108,l)
);
}
);
width = 649;
}
);
metricLeft = "=|o-canadian";
metricRight = "=|po-canadian";
note = uni15CF;
unicode = 5583;
},
{
color = 9;
glyphname = "wuCarrier-canadian";
lastChange = "2023-01-13 15:54:24 +0000";
layers = (
{
layerId = "96DCC2AB-F6C9-4D02-A366-260ACDE51568";
shapes = (
{
closed = 1;
nodes = (
(329,0,l),
(782,664,l),
(788,690,l),
(702,690,l),
(360,171,l),
(382,171,l),
(492,690,l),
(413,690,l),
(303,170,l),
(326,170,l),
(201,690,l),
(128,690,l),
(123,664,l),
(294,0,l)
);
}
);
width = 724;
}
);
metricLeft = "e-canadian";
metricRight = "e-canadian";
note = uni15D0;
unicode = 5584;
},
{
color = 9;
glyphname = "woCarrier-canadian";
lastChange = "2023-01-13 15:54:24 +0000";
layers = (
{
layerId = "96DCC2AB-F6C9-4D02-A366-260ACDE51568";
shapes = (
{
closed = 1;
nodes = (
(69,0,l),
(410,519,l),
(388,519,l),
(278,0,l),
(356,0,l),
(468,520,l),
(444,520,l),
(569,0,l),
(641,0,l),
(647,26,l),
(476,690,l),
(440,690,l),
(-13,26,l),
(-18,0,l)
);
}
);
width = 724;
}
);
metricLeft = "e-canadian";
metricRight = "e-canadian";
note = uni15D1;
unicode = 5585;
},
{
color = 9;
glyphname = "weCarrier-canadian";
lastChange = "2023-01-13 15:54:20 +0000";
layers = (
{
layerId = "96DCC2AB-F6C9-4D02-A366-260ACDE51568";
shapes = (
{
closed = 1;
nodes = (
(48,0,l),
(655,327,l),
(662,362,l),
(195,690,l),
(169,690,l),
(155,619,l),
(508,373,l),
(514,390,l),
(106,390,l),
(90,317,l),
(501,317,l),
(502,332,l),
(42,86,l),
(23,0,l)
);
}
);
width = 670;
}
);
metricRight = "o-canadian";
note = uni15D2;
unicode = 5586;
},
{
color = 9;
glyphname = "weeCarrier-canadian";
lastChange = "2023-01-13 15:54:20 +0000";
layers = (
{
layerId = "96DCC2AB-F6C9-4D02-A366-260ACDE51568";
shapes = (
{
closed = 1;
nodes = (
(48,0,l),
(655,327,l),
(662,362,l),
(195,690,l),
(170,690,l),
(156,627,l),
(531,366,l),
(538,384,l),
(236,384,l),
(252,462,l),
(198,462,l),
(182,384,l),
(104,384,l),
(92,324,l),
(168,324,l),
(152,245,l),
(207,245,l),
(222,324,l),
(528,324,l),
(526,338,l),
(40,78,l),
(23,0,l)
);
}
);
width = 670;
}
);
metricLeft = "weCarrier-canadian";
metricRight = "o-canadian";
note = uni15D3;
unicode = 5587;
},
{
color = 9;
glyphname = "wiCarrier-canadian";
lastChange = "2023-01-13 15:54:20 +0000";
layers = (
{
layerId = "96DCC2AB-F6C9-4D02-A366-260ACDE51568";
shapes = (
{
closed = 1;
nodes = (
(48,0,l),
(655,327,l),
(662,362,l),
(195,690,l),
(170,690,l),
(156,627,l),
(526,371,l),
(537,384,l),
(300,384,l),
(290,411,o),
(265,430,o),
(234,430,cs),
(203,430,o),
(178,411,o),
(168,384,c),
(104,384,l),
(93,327,l),
(169,327,l),
(181,302,o),
(205,285,o),
(235,285,cs),
(264,285,o),
(288,302,o),
(298,327,c),
(527,327,l),
(522,336,l),
(40,79,l),
(23,0,l)
);
}
);
width = 670;
}
);
metricLeft = "weCarrier-canadian";
metricRight = "o-canadian";
note = uni15D4;
unicode = 5588;
},
{
color = 9;
glyphname = "waCarrier-canadian";
lastChange = "2023-01-13 15:54:20 +0000";
layers = (
{
layerId = "96DCC2AB-F6C9-4D02-A366-260ACDE51568";
shapes = (
{
closed = 1;
nodes = (
(545,0,l),
(560,71,l),
(207,317,l),
(201,299,l),
(609,299,l),
(624,373,l),
(213,373,l),
(213,357,l),
(673,604,l),
(692,690,l),
(667,690,l),
(60,362,l),
(53,327,l),
(520,0,l)
);
}
);
width = 669;
}
);
metricLeft = "=|o-canadian";
metricRight = "=|weCarrier-canadian";
note = uni15D5;
unicode = 5589;
},
{
color = 9;
glyphname = "hwuCarrier-canadian";
lastChange = "2023-01-13 15:54:24 +0000";
layers = (
{
layerId = "96DCC2AB-F6C9-4D02-A366-260ACDE51568";
shapes = (
{
closed = 1;
nodes = (
(329,0,l),
(782,664,l),
(788,690,l),
(707,690,l),
(568,481,l),
(594,497,l),
(442,497,l),
(484,690,l),
(421,690,l),
(380,497,l),
(227,497,l),
(245,485,l),
(196,690,l),
(128,690,l),
(123,664,l),
(294,0,l)
);
},
{
closed = 1;
nodes = (
(327,133,l),
(249,459,l),
(239,441,l),
(373,441,l),
(308,132,l)
);
},
{
closed = 1;
nodes = (
(425,441,l),
(561,441,l),
(556,458,l),
(344,136,l),
(359,129,l)
);
}
);
width = 724;
}
);
metricLeft = "e-canadian";
metricRight = "e-canadian";
note = uni15D6;
unicode = 5590;
},
{
color = 9;
glyphname = "hwoCarrier-canadian";
lastChange = "2023-01-13 15:54:24 +0000";
layers = (
{
layerId = "96DCC2AB-F6C9-4D02-A366-260ACDE51568";
shapes = (
{
closed = 1;
nodes = (
(63,0,l),
(202,209,l),
(177,193,l),
(327,193,l),
(286,0,l),
(349,0,l),
(390,193,l),
(543,193,l),
(525,205,l),
(574,0,l),
(641,0,l),
(647,26,l),
(476,690,l),
(440,690,l),
(-13,26,l),
(-18,0,l)
);
},
{
closed = 1;
nodes = (
(426,554,l),
(411,560,l),
(345,248,l),
(209,248,l),
(213,232,l)
);
},
{
closed = 1;
nodes = (
(531,248,l),
(397,248,l),
(462,557,l),
(442,556,l),
(521,231,l)
);
}
);
width = 724;
}
);
metricLeft = "e-canadian";
metricRight = "e-canadian";
note = uni15D7;
unicode = 5591;
},
{
color = 9;
glyphname = "hweCarrier-canadian";
lastChange = "2023-01-13 15:54:20 +0000";
layers = (
{
layerId = "96DCC2AB-F6C9-4D02-A366-260ACDE51568";
shapes = (
{
closed = 1;
nodes = (
(48,0,l),
(655,327,l),
(662,362,l),
(195,690,l),
(169,690,l),
(156,628,l),
(283,540,l),
(251,386,l),
(105,386,l),
(92,323,l),
(238,323,l),
(205,167,l),
(40,79,l),
(22,0,l)
);
},
{
closed = 1;
nodes = (
(288,327,l),
(519,327,l),
(259,190,l)
);
},
{
closed = 1;
nodes = (
(327,515,l),
(523,381,l),
(299,381,l)
);
}
);
width = 670;
}
);
metricLeft = "weCarrier-canadian";
metricRight = "o-canadian";
note = uni15D8;
unicode = 5592;
},
{
color = 9;
glyphname = "hweeCarrier-canadian";
lastChange = "2023-01-13 15:54:20 +0000";
layers = (
{
layerId = "96DCC2AB-F6C9-4D02-A366-260ACDE51568";
shapes = (
{
closed = 1;
nodes = (
(48,0,l),
(655,327,l),
(662,362,l),
(195,690,l),
(169,690,l),
(156,629,l),
(303,530,l),
(271,382,l),
(215,382,l),
(232,459,l),
(185,459,l),
(169,382,l),
(104,382,l),
(93,327,l),
(157,327,l),
(141,249,l),
(187,249,l),
(203,327,l),
(260,327,l),
(228,176,l),
(40,78,l),
(22,0,l)
);
},
{
closed = 1;
nodes = (
(305,330,l),
(525,330,l),
(278,199,l)
);
},
{
closed = 1;
nodes = (
(343,506,l),
(529,377,l),
(316,377,l)
);
}
);
width = 670;
}
);
metricLeft = "weCarrier-canadian";
metricRight = "o-canadian";
note = uni15D9;
unicode = 5593;
},
{
color = 9;
glyphname = "hwiCarrier-canadian";
lastChange = "2023-01-13 15:54:20 +0000";
layers = (
{
layerId = "96DCC2AB-F6C9-4D02-A366-260ACDE51568";
shapes = (
{
closed = 1;
nodes = (
(48,0,l),
(655,327,l),
(662,362,l),
(195,690,l),
(169,690,l),
(156,629,l),
(303,530,l),
(270,377,l),
(240,377,l),
(232,400,o),
(210,415,o),
(185,415,cs),
(159,415,o),
(140,399,o),
(131,377,c),
(103,377,l),
(93,330,l),
(130,330,l),
(139,308,o),
(160,292,o),
(185,292,cs),
(210,292,o),
(231,308,o),
(239,330,c),
(261,330,l),
(228,176,l),
(40,78,l),
(22,0,l)
);
},
{
closed = 1;
nodes = (
(306,330,l),
(525,330,l),
(278,199,l)
);
},
{
closed = 1;
nodes = (
(343,506,l),
(529,377,l),
(316,377,l)
);
}
);
width = 670;
}
);
metricLeft = "weCarrier-canadian";
metricRight = "o-canadian";
note = uni15DA;
unicode = 5594;
},
{
color = 9;
glyphname = "hwaCarrier-canadian";
lastChange = "2023-01-13 15:54:24 +0000";
layers = (
{
layerId = "96DCC2AB-F6C9-4D02-A366-260ACDE51568";
shapes = (
{
closed = 1;
nodes = (
(667,690,l),
(60,362,l),
(53,327,l),
(520,0,l),
(545,0,l),
(558,62,l),
(431,150,l),
(464,303,l),
(610,303,l),
(623,367,l),
(477,367,l),
(510,523,l),
(675,611,l),
(692,690,l)
);
},
{
closed = 1;
nodes = (
(427,362,l),
(196,362,l),
(456,499,l)
);
},
{
closed = 1;
nodes = (
(387,175,l),
(192,309,l),
(415,309,l)
);
}
);
width = 670;
}
);
metricLeft = "=|o-canadian";
metricRight = "=|weCarrier-canadian";
note = uni15DB;
unicode = 5595;
},
{
color = 9;
glyphname = "thuCarrier-canadian";
lastChange = "2023-01-13 15:54:20 +0000";
layers = (
{
layerId = "96DCC2AB-F6C9-4D02-A366-260ACDE51568";
shapes = (
{
closed = 1;
nodes = (
(509,-13,o),
(611,82,o),
(652,277,cs),
(740,690,l),
(164,690,l),
(82,306,ls),
(40,103,o),
(136,-13,o),
(330,-13,cs)
);
},
{
closed = 1;
nodes = (
(242,605,l),
(626,605,l),
(557,280,ls),
(526,139,o),
(458,75,o),
(338,75,cs),
(200,75,o),
(145,150,o),
(178,300,cs)
);
}
);
width = 712;
}
);
metricLeft = "te-canadian";
metricRight = "te-canadian";
note = uni15DC;
unicode = 5596;
},
{
color = 9;
glyphname = "thoCarrier-canadian";
lastChange = "2023-01-13 15:54:24 +0000";
layers = (
{
layerId = "96DCC2AB-F6C9-4D02-A366-260ACDE51568";
shapes = (
{
closed = 1;
nodes = (
(593,0,l),
(675,384,ls),
(718,586,o),
(621,702,o),
(427,702,cs),
(248,702,o),
(147,608,o),
(105,412,cs),
(17,0,l)
);
},
{
closed = 1;
nodes = (
(201,410,ls),
(231,551,o),
(300,614,o),
(419,614,cs),
(557,614,o),
(612,540,o),
(580,389,cs),
(515,85,l),
(131,85,l)
);
}
);
width = 712;
}
);
metricLeft = "te-canadian";
metricRight = "te-canadian";
note = uni15DD;
unicode = 5597;
},
{
color = 9;
glyphname = "theCarrier-canadian";
lastChange = "2023-01-13 15:54:24 +0000";
layers = (
{
anchors = (
{
name = middle_center_can;
pos = (371,345);
}
);
layerId = "96DCC2AB-F6C9-4D02-A366-260ACDE51568";
shapes = (
{
closed = 1;
nodes = (
(258,0,ls),
(572,0,o),
(666,246,o),
(666,425,cs),
(666,591,o),
(565,690,o),
(386,690,cs),
(172,690,l),
(25,0,l)
);
},
{
closed = 1;
nodes = (
(256,635,l),
(221,605,l),
(368,605,ls),
(499,605,o),
(571,539,o),
(571,418,cs),
(571,272,o),
(492,85,o),
(263,85,cs),
(115,85,l),
(132,56,l)
);
}
);
width = 699;
}
);
metricLeft = "nunavuth-canadian";
metricRight = "to-canadian";
note = uni15DE;
unicode = 5598;
},
{
color = 9;
glyphname = "thaCarrier-canadian";
lastChange = "2023-01-13 15:54:20 +0000";
layers = (
{
layerId = "96DCC2AB-F6C9-4D02-A366-260ACDE51568";
shapes = (
{
closed = 1;
nodes = (
(572,0,l),
(719,690,l),
(486,690,ls),
(171,690,o),
(78,443,o),
(78,265,cs),
(78,99,o),
(179,0,o),
(356,0,cs)
);
},
{
closed = 1;
nodes = (
(173,417,o),
(252,605,o),
(480,605,cs),
(629,605,l),
(611,634,l),
(488,55,l),
(523,85,l),
(376,85,ls),
(243,85,o),
(173,151,o),
(173,271,cs)
);
}
);
width = 699;
}
);
metricLeft = "=|theCarrier-canadian";
metricRight = "nunavuth-canadian";
note = uni15E1;
unicode = 5601;
},
{
color = 9;
glyphname = "ttuCarrier-canadian";
lastChange = "2023-01-13 15:54:24 +0000";
layers = (
{
layerId = "96DCC2AB-F6C9-4D02-A366-260ACDE51568";
shapes = (
{
closed = 1;
nodes = (
(509,-13,o),
(611,79,o),
(653,280,cs),
(740,690,l),
(706,690,l),
(376,499,l),
(452,486,l),
(200,690,l),
(164,690,l),
(82,304,ls),
(39,102,o),
(135,-13,o),
(332,-13,cs)
);
},
{
closed = 1;
nodes = (
(201,75,o),
(146,150,o),
(177,298,cs),
(242,603,l),
(194,590,l),
(388,430,l),
(410,430,l),
(656,576,l),
(625,601,l),
(559,288,ls),
(527,140,o),
(458,75,o),
(334,75,cs)
);
}
);
width = 712;
}
);
metricLeft = "te-canadian";
metricRight = "te-canadian";
note = uni15E2;
unicode = 5602;
},
{
color = 9;
glyphname = "ttoCarrier-canadian";
lastChange = "2023-01-13 15:54:24 +0000";
layers = (
{
layerId = "96DCC2AB-F6C9-4D02-A366-260ACDE51568";
shapes = (
{
closed = 1;
nodes = (
(51,0,l),
(382,190,l),
(306,204,l),
(557,0,l),
(593,0,l),
(675,385,ls),
(719,587,o),
(622,702,o),
(425,702,cs),
(248,702,o),
(147,611,o),
(104,410,cs),
(17,0,l)
);
},
{
closed = 1;
nodes = (
(556,614,o),
(612,540,o),
(581,391,cs),
(516,87,l),
(563,99,l),
(370,260,l),
(348,260,l),
(102,114,l),
(132,89,l),
(199,402,ls),
(230,550,o),
(300,614,o),
(423,614,cs)
);
}
);
width = 712;
}
);
metricLeft = "te-canadian";
metricRight = "te-canadian";
note = uni15E3;
unicode = 5603;
},
{
color = 9;
glyphname = "tteCarrier-canadian";
lastChange = "2023-01-13 15:54:20 +0000";
layers = (
{
anchors = (
{
name = middle_center_can;
pos = (422,345);
}
);
layerId = "96DCC2AB-F6C9-4D02-A366-260ACDE51568";
shapes = (
{
closed = 1;
nodes = (
(268,0,ls),
(558,0,o),
(675,224,o),
(675,424,cs),
(675,591,o),
(575,690,o),
(397,690,cs),
(163,690,l),
(157,664,l),
(218,308,l),
(227,387,l),
(23,26,l),
(17,0,l)
);
},
{
closed = 1;
nodes = (
(299,334,l),
(303,353,l),
(253,647,l),
(219,605,l),
(377,605,ls),
(510,605,o),
(581,539,o),
(581,417,cs),
(581,272,o),
(501,85,o),
(272,85,cs),
(114,85,l),
(137,47,l)
);
}
);
width = 708;
}
);
metricRight = "theCarrier-canadian";
note = uni15E4;
unicode = 5604;
},
{
color = 9;
glyphname = "ttaCarrier-canadian";
lastChange = "2023-01-13 15:54:24 +0000";
layers = (
{
layerId = "96DCC2AB-F6C9-4D02-A366-260ACDE51568";
shapes = (
{
closed = 1;
nodes = (
(590,0,l),
(596,26,l),
(535,382,l),
(526,302,l),
(731,664,l),
(737,690,l),
(486,690,ls),
(195,690,o),
(78,466,o),
(78,266,cs),
(78,99,o),
(180,0,o),
(356,0,cs)
);
},
{
closed = 1;
nodes = (
(534,85,l),
(377,85,ls),
(244,85,o),
(173,151,o),
(173,272,cs),
(173,417,o),
(252,605,o),
(481,605,cs),
(640,605,l),
(616,642,l),
(455,355,l),
(451,337,l),
(501,43,l)
);
}
);
width = 708;
}
);
metricLeft = "=|theCarrier-canadian";
metricRight = "=|tteCarrier-canadian";
note = uni15E7;
unicode = 5607;
},
{
color = 9;
glyphname = "puCarrier-canadian";
lastChange = "2023-01-13 15:54:20 +0000";
layers = (
{
layerId = "96DCC2AB-F6C9-4D02-A366-260ACDE51568";
shapes = (
{
closed = 1;
nodes = (
(509,-13,o),
(611,82,o),
(652,277,cs),
(740,690,l),
(644,690,l),
(611,530,l),
(226,530,l),
(260,690,l),
(164,690,l),
(82,306,ls),
(40,103,o),
(136,-13,o),
(330,-13,cs)
);
},
{
closed = 1;
nodes = (
(200,75,o),
(145,150,o),
(178,300,cs),
(209,446,l),
(592,446,l),
(557,280,ls),
(526,139,o),
(458,75,o),
(338,75,cs)
);
}
);
width = 712;
}
);
metricLeft = "te-canadian";
metricRight = "te-canadian";
note = uni15E8;
unicode = 5608;
},
{
color = 9;
glyphname = "poCarrier-canadian";
lastChange = "2023-01-13 15:54:24 +0000";
layers = (
{
layerId = "96DCC2AB-F6C9-4D02-A366-260ACDE51568";
shapes = (
{
closed = 1;
nodes = (
(113,0,l),
(147,159,l),
(531,159,l),
(498,0,l),
(593,0,l),
(675,384,ls),
(718,586,o),
(621,702,o),
(427,702,cs),
(248,702,o),
(147,608,o),
(105,412,cs),
(17,0,l)
);
},
{
closed = 1;
nodes = (
(201,410,ls),
(231,551,o),
(300,614,o),
(419,614,cs),
(557,614,o),
(612,540,o),
(580,389,cs),
(550,243,l),
(165,243,l)
);
}
);
width = 712;
}
);
metricLeft = "te-canadian";
metricRight = "te-canadian";
note = uni15E9;
unicode = 5609;
},
{
color = 9;
glyphname = "peCarrier-canadian";
lastChange = "2023-01-13 15:54:20 +0000";
layers = (
{
anchors = (
{
name = middle_center_can;
pos = (409,345);
}
);
layerId = "96DCC2AB-F6C9-4D02-A366-260ACDE51568";
shapes = (
{
closed = 1;
nodes = (
(264,0,ls),
(577,0,o),
(670,245,o),
(670,425,cs),
(670,591,o),
(570,690,o),
(393,690,cs),
(159,690,l),
(142,605,l),
(230,605,l),
(119,85,l),
(31,85,l),
(14,0,l)
);
},
{
closed = 1;
nodes = (
(334,647,l),
(269,605,l),
(373,605,ls),
(505,605,o),
(576,539,o),
(576,418,cs),
(576,272,o),
(497,85,o),
(269,85,cs),
(158,85,l),
(206,43,l)
);
}
);
width = 703;
}
);
metricRight = "theCarrier-canadian";
note = uni15EA;
unicode = 5610;
},
{
color = 9;
glyphname = "paCarrier-canadian";
lastChange = "2023-01-13 15:54:24 +0000";
layers = (
{
layerId = "96DCC2AB-F6C9-4D02-A366-260ACDE51568";
shapes = (
{
closed = 1;
nodes = (
(590,0,l),
(608,85,l),
(520,85,l),
(631,605,l),
(719,605,l),
(736,690,l),
(486,690,ls),
(173,690,o),
(78,444,o),
(78,265,cs),
(78,99,o),
(179,0,o),
(356,0,cs)
);
},
{
closed = 1;
nodes = (
(480,85,l),
(377,85,ls),
(244,85,o),
(173,151,o),
(173,271,cs),
(173,417,o),
(252,605,o),
(481,605,cs),
(591,605,l),
(544,647,l),
(415,43,l)
);
}
);
width = 704;
}
);
metricLeft = "=|theCarrier-canadian";
metricRight = "=|peCarrier-canadian";
note = uni15ED;
unicode = 5613;
},
{
color = 6;
glyphname = "pCarrier-canadian";
lastChange = "2023-01-13 15:54:20 +0000";
layers = (
{
layerId = "96DCC2AB-F6C9-4D02-A366-260ACDE51568";
shapes = (
{
closed = 1;
nodes = (
(371,183,l),
(384,247,l),
(259,247,l),
(319,527,l),
(250,527,l),
(191,247,l),
(64,247,l),
(50,183,l)
);
}
);
width = 445;
}
);
metricLeft = "shorthorizontalstrokeFinal-canadian";
metricRight = "shorthorizontalstrokeFinal-canadian";
note = uni15EE;
unicode = 5614;
},
{
color = 9;
glyphname = "guCarrier-canadian";
lastChange = "2023-01-13 15:54:24 +0000";
layers = (
{
anchors = (
{
name = top_center_can;
pos = (526,690);
}
);
layerId = "96DCC2AB-F6C9-4D02-A366-260ACDE51568";
shapes = (
{
closed = 1;
nodes = (
(320,-13,o),
(387,37,o),
(429,133,c),
(389,133,l),
(403,40,o),
(463,-13,o),
(557,-13,cs),
(673,-13,o),
(747,58,o),
(777,195,cs),
(881,690,l),
(789,690,l),
(684,198,ls),
(667,115,o),
(623,72,o),
(555,72,cs),
(483,72,o),
(450,123,o),
(469,209,cs),
(570,690,l),
(480,690,l),
(378,210,ls),
(358,120,o),
(313,72,o),
(242,72,cs),
(167,72,o),
(138,121,o),
(158,214,cs),
(259,690,l),
(167,690,l),
(68,221,ls),
(36,74,o),
(96,-13,o),
(227,-13,cs)
);
}
);
width = 857;
}
);
metricRight = "=|";
note = uni15EF;
unicode = 5615;
},
{
color = 9;
glyphname = "goCarrier-canadian";
lastChange = "2023-01-13 15:54:24 +0000";
layers = (
{
layerId = "96DCC2AB-F6C9-4D02-A366-260ACDE51568";
shapes = (
{
closed = 1;
nodes = (
(112,0,l),
(217,492,ls),
(235,575,o),
(278,617,o),
(346,617,cs),
(418,617,o),
(451,567,o),
(433,481,cs),
(330,0,l),
(421,0,l),
(524,480,ls),
(543,570,o),
(588,617,o),
(659,617,cs),
(733,617,o),
(762,569,o),
(743,475,cs),
(641,0,l),
(734,0,l),
(834,469,ls),
(865,615,o),
(806,702,o),
(674,702,cs),
(581,702,o),
(514,653,o),
(472,556,c),
(512,556,l),
(498,650,o),
(439,702,o),
(344,702,cs),
(228,702,o),
(155,632,o),
(125,495,cs),
(20,0,l)
);
}
);
width = 856;
}
);
metricLeft = "guCarrier-canadian";
metricRight = "guCarrier-canadian";
note = uni15F0;
unicode = 5616;
},
{
color = 9;
glyphname = "geCarrier-canadian";
lastChange = "2023-01-13 15:54:20 +0000";
layers = (
{
anchors = (
{
name = top_center_can;
pos = (453,690);
}
);
layerId = "96DCC2AB-F6C9-4D02-A366-260ACDE51568";
shapes = (
{
closed = 1;
nodes = (
(374,0,ls),
(530,0,o),
(625,75,o),
(625,210,cs),
(625,279,o),
(590,332,o),
(526,355,c),
(521,325,l),
(639,348,o),
(693,434,o),
(693,528,cs),
(693,626,o),
(621,690,o),
(511,690,cs),
(172,690,l),
(156,611,l),
(489,611,ls),
(558,611,o),
(597,577,o),
(597,520,cs),
(597,434,o),
(542,384,o),
(441,384,cs),
(107,384,l),
(91,306,l),
(426,306,ls),
(495,306,o),
(531,272,o),
(531,214,cs),
(531,135,o),
(486,79,o),
(376,79,cs),
(43,79,l),
(25,0,l)
);
}
);
width = 708;
}
);
metricLeft = "nunavuth-canadian";
note = uni15F1;
unicode = 5617;
},
{
color = 9;
glyphname = "geeCarrier-canadian";
lastChange = "2023-01-13 15:54:20 +0000";
layers = (
{
layerId = "96DCC2AB-F6C9-4D02-A366-260ACDE51568";
shapes = (
{
closed = 1;
nodes = (
(374,0,ls),
(530,0,o),
(625,75,o),
(625,210,cs),
(625,279,o),
(590,332,o),
(526,355,c),
(521,325,l),
(639,348,o),
(693,434,o),
(693,528,cs),
(693,626,o),
(621,690,o),
(511,690,cs),
(172,690,l),
(156,611,l),
(489,611,ls),
(558,611,o),
(597,577,o),
(597,520,cs),
(597,434,o),
(542,384,o),
(441,384,cs),
(375,384,l),
(392,467,l),
(333,467,l),
(316,384,l),
(107,384,l),
(91,306,l),
(298,306,l),
(281,224,l),
(340,224,l),
(357,306,l),
(426,306,ls),
(495,306,o),
(531,272,o),
(531,214,cs),
(531,135,o),
(486,79,o),
(376,79,cs),
(43,79,l),
(25,0,l)
);
}
);
width = 708;
}
);
metricLeft = "geCarrier-canadian";
metricRight = "geCarrier-canadian";
note = uni15F2;
unicode = 5618;
},
{
color = 9;
glyphname = "giCarrier-canadian";
lastChange = "2023-01-13 15:54:20 +0000";
layers = (
{
layerId = "96DCC2AB-F6C9-4D02-A366-260ACDE51568";
shapes = (
{
closed = 1;
nodes = (
(374,0,ls),
(530,0,o),
(625,75,o),
(625,210,cs),
(625,278,o),
(590,332,o),
(527,355,c),
(523,326,l),
(639,349,o),
(693,435,o),
(693,528,cs),
(693,626,o),
(621,690,o),
(511,690,cs),
(172,690,l),
(156,611,l),
(489,611,ls),
(558,611,o),
(597,577,o),
(597,520,cs),
(597,434,o),
(542,384,o),
(441,384,cs),
(388,384,l),
(421,357,l),
(416,397,o),
(383,428,o),
(340,428,cs),
(309,428,o),
(282,410,o),
(270,384,c),
(107,384,l),
(91,306,l),
(270,306,l),
(283,281,o),
(309,263,o),
(341,263,cs),
(382,263,o),
(413,294,o),
(420,332,c),
(383,306,l),
(426,306,ls),
(495,306,o),
(531,272,o),
(531,214,cs),
(531,135,o),
(486,79,o),
(376,79,cs),
(43,79,l),
(25,0,l)
);
}
);
width = 708;
}
);
metricLeft = "geCarrier-canadian";
metricRight = "geCarrier-canadian";
note = uni15F3;
unicode = 5619;
},
{
color = 9;
glyphname = "gaCarrier-canadian";
lastChange = "2023-01-13 15:54:24 +0000";
layers = (
{
anchors = (
{
name = top_center_can;
pos = (465,690);
}
);
layerId = "96DCC2AB-F6C9-4D02-A366-260ACDE51568";
shapes = (
{
closed = 1;
nodes = (
(581,0,l),
(597,79,l),
(264,79,ls),
(193,79,o),
(156,113,o),
(156,170,cs),
(156,256,o),
(211,305,o),
(311,305,cs),
(646,305,l),
(663,384,l),
(327,384,ls),
(258,384,o),
(221,417,o),
(221,475,cs),
(221,554,o),
(267,611,o),
(377,611,cs),
(710,611,l),
(727,690,l),
(379,690,ls),
(222,690,o),
(128,614,o),
(128,480,cs),
(128,411,o),
(162,357,o),
(226,334,c),
(232,365,l),
(113,342,o),
(60,256,o),
(60,161,cs),
(60,64,o),
(131,0,o),
(242,0,cs)
);
}
);
width = 708;
}
);
metricLeft = "=|geCarrier-canadian";
metricRight = "=|geCarrier-canadian";
note = uni15F4;
unicode = 5620;
},
{
color = 9;
glyphname = "khuCarrier-canadian";
lastChange = "2023-01-13 15:54:24 +0000";
layers = (
{
layerId = "96DCC2AB-F6C9-4D02-A366-260ACDE51568";
shapes = (
{
closed = 1;
nodes = (
(316,-13,o),
(382,33,o),
(422,122,c),
(392,124,l),
(408,37,o),
(466,-13,o),
(557,-13,cs),
(673,-13,o),
(747,58,o),
(777,195,cs),
(881,690,l),
(167,690,l),
(68,221,ls),
(36,74,o),
(96,-13,o),
(227,-13,cs)
);
},
{
closed = 1;
nodes = (
(167,72,o),
(138,121,o),
(158,214,cs),
(242,607,l),
(463,607,l),
(378,210,ls),
(358,120,o),
(313,72,o),
(242,72,cs)
);
},
{
closed = 1;
nodes = (
(483,72,o),
(450,123,o),
(469,209,cs),
(553,607,l),
(772,607,l),
(684,198,ls),
(667,115,o),
(623,72,o),
(555,72,cs)
);
}
);
width = 857;
}
);
metricLeft = "guCarrier-canadian";
metricRight = "guCarrier-canadian";
note = uni15F5;
unicode = 5621;
},
{
color = 9;
glyphname = "khoCarrier-canadian";
lastChange = "2023-01-13 15:54:24 +0000";
layers = (
{
layerId = "96DCC2AB-F6C9-4D02-A366-260ACDE51568";
shapes = (
{
closed = 1;
nodes = (
(734,0,l),
(834,469,ls),
(865,615,o),
(806,702,o),
(674,702,cs),
(585,702,o),
(520,657,o),
(479,568,c),
(509,566,l),
(494,653,o),
(436,702,o),
(344,702,cs),
(228,702,o),
(155,632,o),
(125,495,cs),
(20,0,l)
);
},
{
closed = 1;
nodes = (
(216,492,ls),
(235,575,o),
(278,617,o),
(346,617,cs),
(418,617,o),
(451,567,o),
(433,481,cs),
(348,83,l),
(129,83,l)
);
},
{
closed = 1;
nodes = (
(524,480,ls),
(543,570,o),
(588,617,o),
(659,617,cs),
(733,617,o),
(762,569,o),
(743,475,cs),
(660,83,l),
(439,83,l)
);
}
);
width = 856;
}
);
metricLeft = "guCarrier-canadian";
metricRight = "guCarrier-canadian";
note = uni15F6;
unicode = 5622;
},
{
color = 9;
glyphname = "kheCarrier-canadian";
lastChange = "2023-01-13 15:54:24 +0000";
layers = (
{
layerId = "96DCC2AB-F6C9-4D02-A366-260ACDE51568";
shapes = (
{
closed = 1;
nodes = (
(378,0,ls),
(534,0,o),
(629,76,o),
(629,211,cs),
(629,279,o),
(594,331,o),
(531,355,c),
(526,326,l),
(646,349,o),
(696,439,o),
(696,528,cs),
(696,626,o),
(625,690,o),
(515,690,cs),
(172,690,l),
(25,0,l)
);
},
{
closed = 1;
nodes = (
(185,306,l),
(430,306,ls),
(497,306,o),
(536,272,o),
(536,214,cs),
(536,134,o),
(489,78,o),
(380,78,cs),
(137,78,l)
);
},
{
closed = 1;
nodes = (
(251,611,l),
(493,611,ls),
(563,611,o),
(601,577,o),
(601,520,cs),
(601,436,o),
(547,384,o),
(445,384,cs),
(202,384,l)
);
}
);
width = 712;
}
);
metricLeft = "nunavuth-canadian";
metricRight = "geCarrier-canadian";
note = uni15F7;
unicode = 5623;
},
{
color = 9;
glyphname = "kheeCarrier-canadian";
lastChange = "2023-01-13 15:54:24 +0000";
layers = (
{
layerId = "96DCC2AB-F6C9-4D02-A366-260ACDE51568";
shapes = (
{
closed = 1;
nodes = (
(378,0,ls),
(534,0,o),
(629,76,o),
(629,211,cs),
(629,279,o),
(594,331,o),
(531,355,c),
(526,326,l),
(646,349,o),
(696,439,o),
(696,528,cs),
(696,626,o),
(625,690,o),
(515,690,cs),
(172,690,l),
(25,0,l)
);
},
{
closed = 1;
nodes = (
(185,307,l),
(327,307,l),
(308,222,l),
(372,222,l),
(393,324,l),
(367,307,l),
(430,307,ls),
(497,307,o),
(536,273,o),
(536,215,cs),
(536,135,o),
(489,78,o),
(380,78,cs),
(137,78,l)
);
},
{
closed = 1;
nodes = (
(424,469,l),
(360,469,l),
(342,384,l),
(202,384,l),
(251,611,l),
(493,611,ls),
(563,611,o),
(601,577,o),
(601,520,cs),
(601,436,o),
(547,384,o),
(445,384,cs),
(384,384,l),
(403,367,l)
);
}
);
width = 712;
}
);
metricLeft = "nunavuth-canadian";
metricRight = "geCarrier-canadian";
note = uni15F8;
unicode = 5624;
},
{
color = 9;
glyphname = "khiCarrier-canadian";
lastChange = "2023-01-13 15:54:24 +0000";
layers = (
{
layerId = "96DCC2AB-F6C9-4D02-A366-260ACDE51568";
shapes = (
{
closed = 1;
nodes = (
(378,0,ls),
(534,0,o),
(629,76,o),
(629,211,cs),
(629,278,o),
(595,331,o),
(531,355,c),
(526,325,l),
(647,349,o),
(696,439,o),
(696,528,cs),
(696,626,o),
(625,690,o),
(515,690,cs),
(172,690,l),
(25,0,l)
);
},
{
closed = 1;
nodes = (
(186,309,l),
(294,309,l),
(306,282,o),
(334,263,o),
(366,263,cs),
(408,263,o),
(440,296,o),
(445,336,c),
(389,309,l),
(431,309,ls),
(499,309,o),
(536,274,o),
(536,215,cs),
(536,135,o),
(489,78,o),
(380,78,cs),
(137,78,l)
);
},
{
closed = 1;
nodes = (
(493,611,ls),
(563,611,o),
(601,577,o),
(601,519,cs),
(601,435,o),
(549,382,o),
(447,382,cs),
(393,382,l),
(446,354,l),
(442,396,o),
(409,428,o),
(365,428,cs),
(323,428,o),
(289,396,o),
(286,354,c),
(320,382,l),
(202,382,l),
(251,611,l)
);
}
);
width = 712;
}
);
metricLeft = "nunavuth-canadian";
metricRight = "geCarrier-canadian";
note = uni15F9;
unicode = 5625;
},
{
color = 9;
glyphname = "khaCarrier-canadian";
lastChange = "2023-01-13 15:54:24 +0000";
layers = (
{
layerId = "96DCC2AB-F6C9-4D02-A366-260ACDE51568";
shapes = (
{
closed = 1;
nodes = (
(585,0,l),
(732,690,l),
(380,690,ls),
(223,690,o),
(128,613,o),
(128,479,cs),
(128,411,o),
(163,358,o),
(226,335,c),
(230,364,l),
(110,341,o),
(60,251,o),
(60,161,cs),
(60,64,o),
(131,0,o),
(242,0,cs)
);
},
{
closed = 1;
nodes = (
(194,78,o),
(156,113,o),
(156,170,cs),
(156,254,o),
(210,306,o),
(312,306,cs),
(554,306,l),
(506,78,l),
(264,78,ls)
);
},
{
closed = 1;
nodes = (
(259,384,o),
(221,417,o),
(221,475,cs),
(221,555,o),
(269,611,o),
(378,611,cs),
(620,611,l),
(572,384,l),
(327,384,ls)
);
}
);
width = 712;
}
);
metricLeft = "=|geCarrier-canadian";
metricRight = "nunavuth-canadian";
note = uni15FA;
unicode = 5626;
},
{
color = 9;
glyphname = "kkuCarrier-canadian";
lastChange = "2023-01-13 15:54:24 +0000";
layers = (
{
layerId = "96DCC2AB-F6C9-4D02-A366-260ACDE51568";
shapes = (
{
closed = 1;
nodes = (
(314,-13,o),
(381,31,o),
(423,123,c),
(392,123,l),
(408,38,o),
(465,-13,o),
(557,-13,cs),
(673,-13,o),
(747,58,o),
(777,195,cs),
(881,690,l),
(846,690,l),
(521,533,l),
(501,436,l),
(803,579,l),
(772,611,l),
(684,198,ls),
(668,115,o),
(623,72,o),
(555,72,cs),
(479,72,o),
(450,128,o),
(468,209,cs),
(570,690,l),
(480,690,l),
(378,210,ls),
(358,118,o),
(311,72,o),
(242,72,cs),
(167,72,o),
(138,121,o),
(158,214,cs),
(242,614,l),
(196,594,l),
(442,444,l),
(462,532,l),
(202,690,l),
(167,690,l),
(68,221,ls),
(36,73,o),
(97,-13,o),
(227,-13,cs)
);
}
);
width = 857;
}
);
metricLeft = "guCarrier-canadian";
metricRight = "guCarrier-canadian";
note = uni15FB;
unicode = 5627;
},
{
color = 9;
glyphname = "kkoCarrier-canadian";
lastChange = "2023-01-13 15:54:24 +0000";
layers = (
{
layerId = "96DCC2AB-F6C9-4D02-A366-260ACDE51568";
shapes = (
{
closed = 1;
nodes = (
(55,0,l),
(381,156,l),
(399,254,l),
(98,111,l),
(129,78,l),
(217,492,ls),
(234,575,o),
(277,617,o),
(345,617,cs),
(421,617,o),
(450,562,o),
(433,481,cs),
(330,0,l),
(421,0,l),
(523,480,ls),
(543,572,o),
(589,617,o),
(659,617,cs),
(733,617,o),
(762,569,o),
(743,475,cs),
(658,75,l),
(704,96,l),
(458,245,l),
(439,157,l),
(698,0,l),
(734,0,l),
(834,469,ls),
(865,616,o),
(805,702,o),
(674,702,cs),
(586,702,o),
(520,659,o),
(478,567,c),
(508,567,l),
(494,652,o),
(437,702,o),
(344,702,cs),
(227,702,o),
(155,632,o),
(125,495,cs),
(20,0,l)
);
}
);
width = 856;
}
);
metricLeft = "guCarrier-canadian";
metricRight = "guCarrier-canadian";
note = uni15FC;
unicode = 5628;
},
{
color = 9;
glyphname = "kkeCarrier-canadian";
lastChange = "2023-01-13 15:54:24 +0000";
layers = (
{
layerId = "96DCC2AB-F6C9-4D02-A366-260ACDE51568";
shapes = (
{
closed = 1;
nodes = (
(391,0,ls),
(548,0,o),
(642,75,o),
(642,210,cs),
(642,278,o),
(609,331,o),
(544,355,c),
(540,326,l),
(661,349,o),
(711,438,o),
(711,528,cs),
(711,627,o),
(639,690,o),
(528,690,cs),
(168,690,l),
(162,664,l),
(210,384,l),
(114,384,l),
(98,306,l),
(188,306,l),
(27,26,l),
(21,0,l)
);
},
{
closed = 1;
nodes = (
(287,306,l),
(444,306,ls),
(512,306,o),
(550,272,o),
(550,214,cs),
(550,135,o),
(504,79,o),
(394,79,cs),
(113,79,l),
(137,43,l)
);
},
{
closed = 1;
nodes = (
(257,653,l),
(223,611,l),
(506,611,ls),
(577,611,o),
(615,577,o),
(615,520,cs),
(615,434,o),
(559,384,o),
(459,384,cs),
(302,384,l)
);
}
);
width = 726;
}
);
metricRight = "geCarrier-canadian";
note = uni15FD;
unicode = 5629;
},
{
color = 9;
glyphname = "kkeeCarrier-canadian";
lastChange = "2023-01-13 15:54:24 +0000";
layers = (
{
layerId = "96DCC2AB-F6C9-4D02-A366-260ACDE51568";
shapes = (
{
closed = 1;
nodes = (
(391,0,ls),
(548,0,o),
(642,75,o),
(642,210,cs),
(642,278,o),
(609,331,o),
(544,355,c),
(540,326,l),
(661,349,o),
(711,438,o),
(711,528,cs),
(711,627,o),
(639,690,o),
(528,690,cs),
(168,690,l),
(162,664,l),
(210,384,l),
(114,384,l),
(98,306,l),
(188,306,l),
(27,26,l),
(21,0,l)
);
},
{
closed = 1;
nodes = (
(288,308,l),
(361,308,l),
(343,222,l),
(408,222,l),
(429,328,l),
(405,308,l),
(446,308,ls),
(514,308,o),
(550,272,o),
(550,214,cs),
(550,135,o),
(504,79,o),
(394,79,cs),
(113,79,l),
(137,43,l)
);
},
{
closed = 1;
nodes = (
(460,469,l),
(395,469,l),
(377,383,l),
(303,383,l),
(257,653,l),
(223,611,l),
(506,611,ls),
(577,611,o),
(615,577,o),
(615,520,cs),
(615,434,o),
(559,383,o),
(461,383,cs),
(420,383,l),
(438,366,l)
);
}
);
width = 726;
}
);
metricLeft = "kkeCarrier-canadian";
metricRight = "geCarrier-canadian";
note = uni15FE;
unicode = 5630;
},
{
color = 9;
glyphname = "kkiCarrier-canadian";
lastChange = "2023-01-13 15:54:24 +0000";
layers = (
{
layerId = "96DCC2AB-F6C9-4D02-A366-260ACDE51568";
shapes = (
{
closed = 1;
nodes = (
(391,0,ls),
(548,0,o),
(642,75,o),
(642,210,cs),
(642,278,o),
(609,331,o),
(544,355,c),
(540,326,l),
(661,349,o),
(711,438,o),
(711,528,cs),
(711,627,o),
(639,690,o),
(528,690,cs),
(168,690,l),
(162,664,l),
(210,384,l),
(114,384,l),
(98,306,l),
(188,306,l),
(27,26,l),
(21,0,l)
);
},
{
closed = 1;
nodes = (
(289,309,l),
(326,309,l),
(338,282,o),
(365,263,o),
(397,263,cs),
(437,263,o),
(468,293,o),
(473,330,c),
(417,309,l),
(446,309,ls),
(515,309,o),
(550,272,o),
(550,214,cs),
(550,135,o),
(504,79,o),
(394,79,cs),
(113,79,l),
(137,43,l)
);
},
{
closed = 1;
nodes = (
(470,398,o),
(438,428,o),
(396,428,cs),
(364,428,o),
(336,409,o),
(325,381,c),
(303,381,l),
(257,653,l),
(223,611,l),
(506,611,ls),
(577,611,o),
(615,577,o),
(615,520,cs),
(615,434,o),
(560,381,o),
(461,381,cs),
(418,381,l),
(475,358,l)
);
}
);
width = 726;
}
);
metricLeft = "kkeCarrier-canadian";
metricRight = "geCarrier-canadian";
note = uni15FF;
unicode = 5631;
},
{
color = 9;
glyphname = "kkaCarrier-canadian";
lastChange = "2023-01-13 15:54:20 +0000";
layers = (
{
layerId = "96DCC2AB-F6C9-4D02-A366-260ACDE51568";
shapes = (
{
closed = 1;
nodes = (
(602,0,l),
(608,26,l),
(561,305,l),
(657,305,l),
(673,384,l),
(582,384,l),
(743,664,l),
(749,690,l),
(379,690,ls),
(222,690,o),
(128,614,o),
(128,480,cs),
(128,412,o),
(161,358,o),
(227,335,c),
(231,364,l),
(110,341,o),
(60,252,o),
(60,161,cs),
(60,63,o),
(131,0,o),
(242,0,cs)
);
},
{
closed = 1;
nodes = (
(548,79,l),
(265,79,ls),
(193,79,o),
(156,113,o),
(156,170,cs),
(156,256,o),
(212,305,o),
(311,305,cs),
(468,305,l),
(514,37,l)
);
},
{
closed = 1;
nodes = (
(258,384,o),
(221,417,o),
(221,475,cs),
(221,554,o),
(267,611,o),
(377,611,cs),
(658,611,l),
(633,647,l),
(483,384,l),
(327,384,ls)
);
}
);
width = 725;
}
);
metricLeft = "=|geCarrier-canadian";
metricRight = "=|kkeCarrier-canadian";
note = uni1600;
unicode = 5632;
},
{
color = 6;
glyphname = "kkCarrier-canadian";
lastChange = "2023-01-13 15:54:20 +0000";
layers = (
{
layerId = "96DCC2AB-F6C9-4D02-A366-260ACDE51568";
shapes = (
{
closed = 1;
nodes = (
(367,527,l),
(186,251,l),
(236,251,l),
(171,527,l),
(110,527,l),
(106,513,l),
(190,183,l),
(209,183,l),
(433,513,l),
(436,527,l)
);
}
);
width = 423;
}
);
note = uni1601;
unicode = 5633;
},
{
color = 9;
glyphname = "nuCarrier-canadian";
lastChange = "2023-01-13 15:54:20 +0000";
layers = (
{
layerId = "96DCC2AB-F6C9-4D02-A366-260ACDE51568";
shapes = (
{
closed = 1;
nodes = (
(501,-13,o),
(611,83,o),
(648,258,cs),
(658,303,l),
(562,303,l),
(554,266,ls),
(527,139,o),
(455,74,o),
(341,74,cs),
(207,74,o),
(147,159,o),
(179,307,cs),
(260,690,l),
(164,690,l),
(83,311,ls),
(42,115,o),
(140,-13,o),
(335,-13,cs)
);
}
);
width = 708;
}
);
metricLeft = "te-canadian";
note = uni1602;
unicode = 5634;
},
{
color = 9;
glyphname = "noCarrier-canadian";
lastChange = "2023-01-13 15:54:20 +0000";
layers = (
{
layerId = "96DCC2AB-F6C9-4D02-A366-260ACDE51568";
shapes = (
{
closed = 1;
nodes = (
(588,0,l),
(668,379,ls),
(711,575,o),
(612,702,o),
(417,702,cs),
(251,702,o),
(141,607,o),
(104,432,cs),
(95,386,l),
(189,386,l),
(198,424,ls),
(225,551,o),
(298,615,o),
(412,615,cs),
(546,615,o),
(605,530,o),
(574,383,cs),
(493,0,l)
);
}
);
width = 707;
}
);
metricLeft = "=|nuCarrier-canadian";
metricRight = "te-canadian";
note = uni1603;
unicode = 5635;
},
{
color = 9;
glyphname = "neCarrier-canadian";
lastChange = "2023-01-13 15:54:24 +0000";
layers = (
{
anchors = (
{
name = middle_center_can;
pos = (337,344);
}
);
layerId = "96DCC2AB-F6C9-4D02-A366-260ACDE51568";
shapes = (
{
closed = 1;
nodes = (
(264,0,ls),
(571,0,o),
(667,241,o),
(667,423,cs),
(667,590,o),
(566,690,o),
(387,690,cs),
(147,690,l),
(128,603,l),
(375,603,ls),
(502,603,o),
(572,536,o),
(572,416,cs),
(572,284,o),
(504,86,o),
(273,86,cs),
(253,86,l),
(235,0,l)
);
}
);
width = 701;
}
);
metricRight = "theCarrier-canadian";
note = uni1604;
unicode = 5636;
},
{
color = 9;
glyphname = "naCarrier-canadian";
lastChange = "2023-01-13 15:54:24 +0000";
layers = (
{
layerId = "96DCC2AB-F6C9-4D02-A366-260ACDE51568";
shapes = (
{
closed = 1;
nodes = (
(599,0,l),
(617,87,l),
(371,87,ls),
(243,87,o),
(174,154,o),
(174,273,cs),
(174,406,o),
(241,604,o),
(471,604,cs),
(493,604,l),
(511,690,l),
(482,690,ls),
(175,690,o),
(79,449,o),
(79,267,cs),
(79,99,o),
(180,0,o),
(357,0,cs)
);
}
);
width = 701;
}
);
metricLeft = "=|theCarrier-canadian";
metricRight = "=|neCarrier-canadian";
note = uni1607;
unicode = 5639;
},
{
color = 9;
glyphname = "muCarrier-canadian";
lastChange = "2023-01-13 15:54:24 +0000";
layers = (
{
layerId = "96DCC2AB-F6C9-4D02-A366-260ACDE51568";
shapes = (
{
closed = 1;
nodes = (
(318,-13,o),
(387,35,o),
(429,133,c),
(389,133,l),
(403,43,o),
(461,-13,o),
(557,-13,cs),
(673,-13,o),
(747,58,o),
(777,195,cs),
(818,390,l),
(723,390,l),
(682,198,ls),
(665,115,o),
(621,72,o),
(556,72,cs),
(481,72,o),
(452,128,o),
(469,208,cs),
(508,390,l),
(415,390,l),
(377,210,ls),
(356,117,o),
(310,72,o),
(242,72,cs),
(169,72,o),
(140,120,o),
(160,214,cs),
(262,690,l),
(167,690,l),
(68,221,ls),
(36,73,o),
(96,-13,o),
(227,-13,cs)
);
}
);
width = 857;
}
);
metricLeft = "guCarrier-canadian";
metricRight = "=|";
note = uni1608;
unicode = 5640;
},
{
color = 9;
glyphname = "moCarrier-canadian";
lastChange = "2023-01-13 15:54:24 +0000";
layers = (
{
layerId = "96DCC2AB-F6C9-4D02-A366-260ACDE51568";
shapes = (
{
closed = 1;
nodes = (
(734,0,l),
(834,469,ls),
(866,616,o),
(806,702,o),
(674,702,cs),
(583,702,o),
(514,655,o),
(472,556,c),
(511,556,l),
(498,647,o),
(440,702,o),
(344,702,cs),
(228,702,o),
(155,632,o),
(126,495,cs),
(84,299,l),
(179,299,l),
(219,492,ls),
(237,575,o),
(280,617,o),
(345,617,cs),
(420,617,o),
(449,562,o),
(432,482,cs),
(393,299,l),
(486,299,l),
(525,480,ls),
(545,573,o),
(591,617,o),
(659,617,cs),
(732,617,o),
(760,570,o),
(740,475,cs),
(639,0,l)
);
}
);
width = 856;
}
);
metricLeft = "=|muCarrier-canadian";
metricRight = "guCarrier-canadian";
note = uni1609;
unicode = 5641;
},
{
color = 9;
glyphname = "meCarrier-canadian";
lastChange = "2023-01-13 15:54:24 +0000";
layers = (
{
layerId = "96DCC2AB-F6C9-4D02-A366-260ACDE51568";
shapes = (
{
closed = 1;
nodes = (
(375,0,ls),
(531,0,o),
(626,75,o),
(626,210,cs),
(626,279,o),
(591,332,o),
(528,355,c),
(523,325,l),
(640,348,o),
(695,434,o),
(695,528,cs),
(695,626,o),
(623,690,o),
(512,690,cs),
(147,690,l),
(130,611,l),
(491,611,ls),
(560,611,o),
(599,577,o),
(599,520,cs),
(599,434,o),
(543,384,o),
(443,384,cs),
(317,384,l),
(300,306,l),
(427,306,ls),
(496,306,o),
(533,272,o),
(533,214,cs),
(533,135,o),
(488,79,o),
(378,79,cs),
(252,79,l),
(236,0,l)
);
}
);
width = 710;
}
);
metricLeft = "neCarrier-canadian";
metricRight = "geCarrier-canadian";
note = uni160A;
unicode = 5642;
},
{
color = 9;
glyphname = "meeCarrier-canadian";
lastChange = "2023-01-13 15:54:24 +0000";
layers = (
{
layerId = "96DCC2AB-F6C9-4D02-A366-260ACDE51568";
shapes = (
{
closed = 1;
nodes = (
(375,0,ls),
(531,0,o),
(626,75,o),
(626,210,cs),
(626,279,o),
(591,332,o),
(528,355,c),
(523,325,l),
(640,348,o),
(695,434,o),
(695,528,cs),
(695,626,o),
(623,690,o),
(512,690,cs),
(147,690,l),
(130,611,l),
(491,611,ls),
(560,611,o),
(599,577,o),
(599,520,cs),
(599,434,o),
(543,383,o),
(443,383,cs),
(382,383,l),
(399,465,l),
(333,465,l),
(283,226,l),
(349,226,l),
(365,307,l),
(428,307,ls),
(497,307,o),
(533,272,o),
(533,214,cs),
(533,135,o),
(488,79,o),
(378,79,cs),
(252,79,l),
(236,0,l)
);
}
);
width = 710;
}
);
metricLeft = "neCarrier-canadian";
metricRight = "geCarrier-canadian";
note = uni160B;
unicode = 5643;
},
{
color = 9;
glyphname = "miCarrier-canadian";
lastChange = "2023-01-13 15:54:24 +0000";
layers = (
{
layerId = "96DCC2AB-F6C9-4D02-A366-260ACDE51568";
shapes = (
{
closed = 1;
nodes = (
(375,0,ls),
(529,0,o),
(613,70,o),
(624,188,cs),
(632,268,o),
(598,328,o),
(528,355,c),
(523,325,l),
(633,346,o),
(684,422,o),
(692,507,cs),
(704,616,o),
(631,690,o),
(512,690,cs),
(147,690,l),
(130,611,l),
(490,611,ls),
(563,611,o),
(602,574,o),
(598,512,cs),
(594,428,o),
(539,383,o),
(442,383,cs),
(370,383,l),
(422,355,l),
(417,397,o),
(384,429,o),
(341,429,cs),
(295,429,o),
(260,391,o),
(260,347,cs),
(260,301,o),
(296,264,o),
(341,264,cs),
(383,264,o),
(415,295,o),
(421,335,c),
(369,307,l),
(427,307,ls),
(498,307,o),
(536,271,o),
(532,207,cs),
(528,128,o),
(481,79,o),
(378,79,cs),
(252,79,l),
(236,0,l)
);
}
);
width = 708;
}
);
metricLeft = "neCarrier-canadian";
metricRight = "geCarrier-canadian";
note = uni160C;
unicode = 5644;
},
{
color = 9;
glyphname = "maCarrier-canadian";
lastChange = "2023-01-13 15:54:20 +0000";
layers = (
{
layerId = "96DCC2AB-F6C9-4D02-A366-260ACDE51568";
shapes = (
{
closed = 1;
nodes = (
(608,0,l),
(625,79,l),
(264,79,ls),
(193,79,o),
(156,113,o),
(156,170,cs),
(156,256,o),
(211,305,o),
(311,305,cs),
(437,305,l),
(453,384,l),
(327,384,ls),
(258,384,o),
(221,417,o),
(221,475,cs),
(221,554,o),
(267,611,o),
(377,611,cs),
(502,611,l),
(519,690,l),
(379,690,ls),
(222,690,o),
(128,614,o),
(128,480,cs),
(128,411,o),
(162,357,o),
(226,334,c),
(232,365,l),
(113,342,o),
(60,256,o),
(60,161,cs),
(60,64,o),
(131,0,o),
(242,0,cs)
);
}
);
width = 710;
}
);
metricLeft = "=|geCarrier-canadian";
metricRight = "=|neCarrier-canadian";
note = uni160D;
unicode = 5645;
},
{
color = 9;
glyphname = "yuCarrier-canadian";
lastChange = "2023-01-13 15:54:24 +0000";
layers = (
{
layerId = "96DCC2AB-F6C9-4D02-A366-260ACDE51568";
shapes = (
{
closed = 1;
nodes = (
(538,-13,o),
(659,106,o),
(711,358,cs),
(752,549,o),
(719,702,o),
(565,702,cs),
(423,702,o),
(365,562,o),
(365,457,cs),
(365,364,o),
(416,304,o),
(501,304,cs),
(515,304,o),
(527,307,o),
(545,311,c),
(561,387,l),
(552,384,o),
(540,384,o),
(528,384,cs),
(477,384,o),
(450,412,o),
(450,465,cs),
(450,519,o),
(475,623,o),
(557,623,cs),
(649,623,o),
(651,515,o),
(623,377,cs),
(581,165,o),
(500,75,o),
(353,75,cs),
(201,75,o),
(150,172,o),
(182,320,cs),
(261,690,l),
(164,690,l),
(86,321,ls),
(45,128,o),
(132,-13,o),
(345,-13,cs)
);
}
);
width = 754;
}
);
metricLeft = "te-canadian";
metricRight = "te-canadian";
note = uni160E;
unicode = 5646;
},
{
color = 9;
glyphname = "yoCarrier-canadian";
lastChange = "2023-01-13 15:54:24 +0000";
layers = (
{
layerId = "96DCC2AB-F6C9-4D02-A366-260ACDE51568";
shapes = (
{
closed = 1;
nodes = (
(376,-13,o),
(433,128,o),
(433,233,cs),
(433,326,o),
(383,385,o),
(298,385,cs),
(284,385,o),
(272,383,o),
(254,379,c),
(238,302,l),
(247,305,o),
(258,306,o),
(270,306,cs),
(322,306,o),
(349,278,o),
(349,225,cs),
(349,171,o),
(324,67,o),
(241,67,cs),
(150,67,o),
(147,175,o),
(175,313,cs),
(217,525,o),
(298,614,o),
(446,614,cs),
(598,614,o),
(648,518,o),
(617,370,cs),
(538,0,l),
(635,0,l),
(713,369,ls),
(753,562,o),
(666,702,o),
(454,702,cs),
(260,702,o),
(139,583,o),
(87,331,cs),
(46,141,o),
(80,-13,o),
(234,-13,cs)
);
}
);
width = 754;
}
);
metricLeft = "te-canadian";
metricRight = "te-canadian";
note = uni160F;
unicode = 5647;
},
{
color = 9;
glyphname = "yeCarrier-canadian";
lastChange = "2023-01-13 15:54:24 +0000";
layers = (
{
layerId = "96DCC2AB-F6C9-4D02-A366-260ACDE51568";
shapes = (
{
closed = 1;
nodes = (
(548,-13,o),
(666,218,o),
(666,412,cs),
(666,586,o),
(559,690,o),
(374,690,cs),
(172,690,l),
(154,603,l),
(357,603,ls),
(496,603,o),
(569,532,o),
(569,406,cs),
(569,265,o),
(501,70,o),
(307,70,cs),
(202,70,o),
(142,116,o),
(142,193,cs),
(142,254,o),
(175,330,o),
(246,330,cs),
(293,330,o),
(320,300,o),
(320,249,cs),
(320,218,o),
(312,186,o),
(300,158,c),
(378,158,l),
(392,192,o),
(401,229,o),
(401,264,cs),
(401,352,o),
(344,408,o),
(250,408,cs),
(128,408,o),
(56,297,o),
(56,184,cs),
(56,65,o),
(150,-13,o),
(303,-13,cs)
);
}
);
width = 702;
}
);
metricRight = "theCarrier-canadian";
note = uni1610;
unicode = 5648;
},
{
color = 9;
glyphname = "yeeCarrier-canadian";
lastChange = "2023-01-13 15:54:24 +0000";
layers = (
{
layerId = "96DCC2AB-F6C9-4D02-A366-260ACDE51568";
shapes = (
{
closed = 1;
nodes = (
(548,-13,o),
(667,218,o),
(667,413,cs),
(667,586,o),
(560,690,o),
(375,690,cs),
(173,690,l),
(155,603,l),
(358,603,ls),
(497,603,o),
(570,532,o),
(570,405,cs),
(570,285,o),
(515,70,o),
(308,70,cs),
(203,70,o),
(143,114,o),
(143,191,cs),
(143,249,o),
(175,330,o),
(250,330,cs),
(310,330,o),
(325,280,o),
(312,222,cs),
(302,180,l),
(362,180,l),
(429,496,l),
(370,496,l),
(330,309,l),
(339,308,l),
(343,370,o),
(305,408,o),
(239,408,cs),
(121,408,o),
(57,291,o),
(57,186,cs),
(57,65,o),
(151,-13,o),
(306,-13,cs)
);
}
);
width = 702;
}
);
metricRight = "theCarrier-canadian";
metricWidth = "yeCarrier-canadian";
note = uni1611;
unicode = 5649;
},
{
color = 9;
glyphname = "yiCarrier-canadian";
lastChange = "2023-01-13 15:54:24 +0000";
layers = (
{
layerId = "96DCC2AB-F6C9-4D02-A366-260ACDE51568";
shapes = (
{
closed = 1;
nodes = (
(536,-13,o),
(666,196,o),
(666,413,cs),
(666,586,o),
(559,690,o),
(374,690,cs),
(173,690,l),
(155,603,l),
(358,603,ls),
(497,603,o),
(569,532,o),
(569,405,cs),
(569,254,o),
(497,70,o),
(308,70,cs),
(202,70,o),
(141,115,o),
(141,190,cs),
(141,261,o),
(182,321,o),
(273,314,c),
(246,343,l),
(247,304,o),
(279,273,o),
(320,273,cs),
(360,273,o),
(391,305,o),
(391,346,cs),
(391,386,o),
(360,416,o),
(319,416,cs),
(292,416,o),
(270,403,o),
(258,383,c),
(131,378,o),
(56,297,o),
(56,181,cs),
(56,65,o),
(150,-13,o),
(304,-13,cs)
);
}
);
width = 702;
}
);
metricRight = "theCarrier-canadian";
metricWidth = "yeCarrier-canadian";
note = uni1612;
unicode = 5650;
},
{
color = 9;
glyphname = "yaCarrier-canadian";
lastChange = "2023-01-13 15:54:20 +0000";
layers = (
{
layerId = "96DCC2AB-F6C9-4D02-A366-260ACDE51568";
shapes = (
{
closed = 1;
nodes = (
(573,0,l),
(591,87,l),
(387,87,ls),
(249,87,o),
(177,157,o),
(177,284,cs),
(177,425,o),
(243,620,o),
(439,620,cs),
(543,620,o),
(604,574,o),
(604,497,cs),
(604,436,o),
(570,359,o),
(499,359,cs),
(452,359,o),
(425,389,o),
(425,440,cs),
(425,471,o),
(434,503,o),
(444,531,c),
(367,531,l),
(353,497,o),
(344,461,o),
(344,426,cs),
(344,338,o),
(402,282,o),
(495,282,cs),
(617,282,o),
(689,393,o),
(689,506,cs),
(689,625,o),
(595,702,o),
(441,702,cs),
(197,702,o),
(80,471,o),
(80,278,cs),
(80,103,o),
(185,0,o),
(372,0,cs)
);
}
);
width = 700;
}
);
metricLeft = "=|theCarrier-canadian";
metricRight = "=|yeCarrier-canadian";
note = uni1613;
unicode = 5651;
},
{
color = 9;
glyphname = "juCarrier-canadian";
lastChange = "2023-01-13 15:54:20 +0000";
layers = (
{
layerId = "96DCC2AB-F6C9-4D02-A366-260ACDE51568";
shapes = (
{
closed = 1;
nodes = (
(536,-13,o),
(653,99,o),
(653,248,cs),
(653,343,o),
(595,408,o),
(500,408,cs),
(384,408,o),
(324,311,o),
(312,207,cs),
(309,190,o),
(308,174,o),
(309,158,c),
(386,158,l),
(386,168,o),
(387,182,o),
(389,198,cs),
(397,266,o),
(428,330,o),
(495,330,cs),
(542,330,o),
(568,298,o),
(568,246,cs),
(568,148,o),
(498,70,o),
(378,70,cs),
(248,70,o),
(175,135,o),
(175,249,cs),
(175,459,o),
(347,603,o),
(611,603,cs),
(722,603,l),
(740,690,l),
(163,690,l),
(146,607,l),
(460,607,l),
(545,641,l),
(278,639,o),
(79,484,o),
(79,248,cs),
(79,93,o),
(192,-13,o),
(366,-13,cs)
);
}
);
width = 719;
}
);
metricRight = "=|yeCarrier-canadian";
note = uni1614;
unicode = 5652;
},
{
color = 9;
glyphname = "juSayisi-canadian";
lastChange = "2023-01-13 15:54:24 +0000";
layers = (
{
anchors = (
{
name = top_center_can;
pos = (468,690);
}
);
layerId = "96DCC2AB-F6C9-4D02-A366-260ACDE51568";
shapes = (
{
closed = 1;
nodes = (
(545,-13,o),
(661,172,o),
(667,354,cs),
(671,533,o),
(554,639,o),
(330,643,c),
(421,607,l),
(729,607,l),
(748,690,l),
(169,690,l),
(152,603,l),
(269,603,ls),
(477,603,o),
(577,520,o),
(573,360,cs),
(570,241,o),
(516,70,o),
(313,70,cs),
(200,70,o),
(140,117,o),
(142,196,cs),
(143,264,o),
(182,330,o),
(247,330,cs),
(295,330,o),
(319,299,o),
(319,245,cs),
(318,217,o),
(310,184,o),
(299,158,c),
(377,158,l),
(392,194,o),
(399,231,o),
(399,259,cs),
(402,350,o),
(346,408,o),
(251,408,cs),
(137,408,o),
(60,308,o),
(57,192,cs),
(52,69,o),
(146,-13,o),
(310,-13,cs)
);
}
);
width = 719;
}
);
metricLeft = "yeCarrier-canadian";
metricRight = "=|juCarrier-canadian";
note = uni1615;
unicode = 5653;
},
{
color = 9;
glyphname = "joCarrier-canadian";
lastChange = "2023-01-13 15:54:24 +0000";
layers = (
{
layerId = "96DCC2AB-F6C9-4D02-A366-260ACDE51568";
shapes = (
{
closed = 1;
nodes = (
(600,0,l),
(617,83,l),
(303,83,l),
(218,48,l),
(485,51,o),
(684,206,o),
(684,441,cs),
(684,597,o),
(571,702,o),
(398,702,cs),
(227,702,o),
(111,590,o),
(111,441,cs),
(111,347,o),
(168,282,o),
(263,282,cs),
(379,282,o),
(440,379,o),
(451,483,cs),
(454,499,o),
(455,516,o),
(454,531,c),
(377,531,l),
(377,522,o),
(377,508,o),
(374,492,cs),
(366,424,o),
(335,359,o),
(269,359,cs),
(221,359,o),
(195,391,o),
(195,443,cs),
(195,542,o),
(265,620,o),
(386,620,cs),
(515,620,o),
(588,554,o),
(588,440,cs),
(588,231,o),
(416,87,o),
(153,87,cs),
(42,87,l),
(23,0,l)
);
}
);
width = 718;
}
);
metricLeft = "yeCarrier-canadian";
metricRight = "=|juCarrier-canadian";
note = uni1616;
unicode = 5654;
},
{
color = 9;
glyphname = "jeCarrier-canadian";
lastChange = "2023-01-13 15:54:24 +0000";
layers = (
{
layerId = "96DCC2AB-F6C9-4D02-A366-260ACDE51568";
shapes = (
{
closed = 1;
nodes = (
(662,-13,o),
(716,287,o),
(716,427,cs),
(716,601,o),
(634,702,o),
(483,702,cs),
(350,702,o),
(253,621,o),
(199,463,c),
(215,450,l),
(267,690,l),
(172,690,l),
(25,0,l),
(121,0,l),
(181,281,ls),
(227,500,o),
(324,615,o),
(463,615,cs),
(572,615,o),
(624,550,o),
(624,422,cs),
(624,344,o),
(596,67,o),
(466,67,cs),
(417,67,o),
(389,98,o),
(389,152,cs),
(389,218,o),
(422,306,o),
(516,306,cs),
(528,306,o),
(540,305,o),
(551,302,c),
(566,379,l),
(548,383,o),
(530,385,o),
(511,385,cs),
(362,385,o),
(305,251,o),
(305,145,cs),
(305,48,o),
(363,-13,o),
(459,-13,cs)
);
}
);
width = 760;
}
);
metricLeft = "nunavuth-canadian";
metricRight = "te-canadian";
note = uni1617;
unicode = 5655;
},
{
color = 9;
glyphname = "jeeCarrier-canadian";
lastChange = "2023-01-13 15:54:20 +0000";
layers = (
{
layerId = "96DCC2AB-F6C9-4D02-A366-260ACDE51568";
shapes = (
{
closed = 1;
nodes = (
(662,-13,o),
(716,287,o),
(716,426,cs),
(716,601,o),
(634,702,o),
(483,702,cs),
(350,702,o),
(253,620,o),
(199,462,c),
(215,449,l),
(267,690,l),
(172,690,l),
(25,0,l),
(121,0,l),
(180,279,ls),
(227,500,o),
(324,615,o),
(463,615,cs),
(572,615,o),
(625,550,o),
(625,422,cs),
(625,330,o),
(593,67,o),
(453,67,cs),
(396,67,o),
(364,101,o),
(364,161,cs),
(364,221,o),
(388,302,o),
(465,318,c),
(446,232,l),
(499,232,l),
(548,457,l),
(494,457,l),
(476,375,l),
(350,355,o),
(305,238,o),
(305,144,cs),
(305,48,o),
(364,-13,o),
(459,-13,cs)
);
}
);
width = 760;
}
);
metricLeft = "nunavuth-canadian";
metricRight = "jeCarrier-canadian";
note = uni1618;
unicode = 5656;
},
{
color = 9;
glyphname = "jiCarrier-canadian";
lastChange = "2023-01-13 15:54:20 +0000";
layers = (
{
layerId = "96DCC2AB-F6C9-4D02-A366-260ACDE51568";
shapes = (
{
closed = 1;
nodes = (
(662,-13,o),
(716,287,o),
(716,426,cs),
(716,601,o),
(634,702,o),
(483,702,cs),
(350,702,o),
(253,620,o),
(199,462,c),
(215,449,l),
(267,690,l),
(172,690,l),
(25,0,l),
(121,0,l),
(180,279,ls),
(227,500,o),
(324,615,o),
(463,615,cs),
(572,615,o),
(625,550,o),
(625,422,cs),
(625,330,o),
(593,67,o),
(453,67,cs),
(396,67,o),
(364,101,o),
(364,161,cs),
(364,209,o),
(380,272,o),
(430,298,c),
(440,283,o),
(457,273,o),
(477,273,cs),
(518,273,o),
(547,306,o),
(547,346,cs),
(547,385,o),
(517,416,o),
(476,416,cs),
(437,416,o),
(407,384,o),
(407,344,c),
(331,305,o),
(305,215,o),
(305,144,cs),
(305,48,o),
(364,-13,o),
(459,-13,cs)
);
}
);
width = 760;
}
);
metricLeft = "nunavuth-canadian";
metricRight = "jeCarrier-canadian";
note = uni1619;
unicode = 5657;
},
{
color = 9;
glyphname = "jiSayisi-canadian";
lastChange = "2023-01-13 15:54:24 +0000";
layers = (
{
layerId = "96DCC2AB-F6C9-4D02-A366-260ACDE51568";
shapes = (
{
closed = 1;
nodes = (
(636,-13,o),
(735,319,o),
(735,500,cs),
(735,631,o),
(680,702,o),
(576,702,cs),
(432,702,o),
(372,556,o),
(372,454,cs),
(372,361,o),
(424,304,o),
(504,304,cs),
(523,304,o),
(541,307,o),
(552,312,c),
(568,388,l),
(558,384,o),
(547,384,o),
(534,384,cs),
(483,384,o),
(456,410,o),
(456,463,cs),
(456,511,o),
(481,623,o),
(568,623,cs),
(620,623,o),
(645,585,o),
(645,507,cs),
(645,382,o),
(583,74,o),
(369,74,cs),
(185,74,o),
(176,259,o),
(211,422,cs),
(268,690,l),
(172,690,l),
(25,0,l),
(120,0,l),
(183,298,l),
(165,306,l),
(134,142,o),
(190,-13,o),
(373,-13,cs)
);
}
);
width = 762;
}
);
metricLeft = "nunavuth-canadian";
metricRight = "jeCarrier-canadian";
note = uni161A;
unicode = 5658;
},
{
color = 9;
glyphname = "jaCarrier-canadian";
lastChange = "2023-01-13 15:54:20 +0000";
layers = (
{
anchors = (
{
name = top_center_can;
pos = (469,690);
}
);
layerId = "96DCC2AB-F6C9-4D02-A366-260ACDE51568";
shapes = (
{
closed = 1;
nodes = (
(456,-13,o),
(553,70,o),
(607,227,c),
(590,241,l),
(539,0,l),
(635,0,l),
(781,690,l),
(685,690,l),
(625,409,ls),
(579,189,o),
(482,74,o),
(343,74,cs),
(235,74,o),
(182,140,o),
(182,268,cs),
(182,347,o),
(210,624,o),
(340,624,cs),
(388,624,o),
(416,592,o),
(416,539,cs),
(416,471,o),
(384,384,o),
(291,384,cs),
(277,384,o),
(266,385,o),
(255,388,c),
(240,312,l),
(258,307,o),
(275,305,o),
(295,305,cs),
(443,305,o),
(500,439,o),
(500,545,cs),
(500,642,o),
(443,703,o),
(347,703,cs),
(144,703,o),
(89,403,o),
(89,263,cs),
(89,90,o),
(172,-13,o),
(323,-13,cs)
);
}
);
width = 762;
}
);
metricLeft = "=|jeCarrier-canadian";
metricRight = "nunavuth-canadian";
note = uni161B;
unicode = 5659;
},
{
color = 9;
glyphname = "jjuCarrier-canadian";
lastChange = "2023-01-13 15:54:20 +0000";
layers = (
{
layerId = "96DCC2AB-F6C9-4D02-A366-260ACDE51568";
shapes = (
{
closed = 1;
nodes = (
(526,-13,o),
(640,99,o),
(640,249,cs),
(640,344,o),
(582,408,o),
(487,408,cs),
(392,408,o),
(326,346,o),
(302,237,cs),
(296,210,o),
(293,183,o),
(293,158,c),
(371,158,l),
(371,177,o),
(374,199,o),
(379,224,cs),
(394,293,o),
(428,330,o),
(480,330,cs),
(527,330,o),
(555,298,o),
(555,245,cs),
(555,147,o),
(484,69,o),
(364,69,cs),
(241,69,o),
(173,137,o),
(173,255,cs),
(173,442,o),
(289,603,o),
(554,603,cs),
(704,603,l),
(723,690,l),
(568,690,ls),
(438,690,o),
(333,658,o),
(256,606,c),
(181,702,l),
(102,641,l),
(181,543,l),
(107,464,o),
(78,356,o),
(78,259,cs),
(78,96,o),
(185,-13,o),
(356,-13,cs)
);
}
);
width = 706;
}
);
metricRight = "=|yeCarrier-canadian";
note = uni161C;
unicode = 5660;
},
{
color = 9;
glyphname = "jjoCarrier-canadian";
lastChange = "2023-01-13 15:54:20 +0000";
layers = (
{
layerId = "96DCC2AB-F6C9-4D02-A366-260ACDE51568";
shapes = (
{
closed = 1;
nodes = (
(648,48,l),
(570,147,l),
(643,226,o),
(672,333,o),
(672,431,cs),
(672,594,o),
(566,702,o),
(394,702,cs),
(224,702,o),
(111,590,o),
(111,440,cs),
(111,346,o),
(170,282,o),
(264,282,cs),
(359,282,o),
(425,344,o),
(449,453,cs),
(455,480,o),
(458,507,o),
(458,531,c),
(381,531,l),
(380,513,o),
(377,491,o),
(372,466,cs),
(356,397,o),
(323,359,o),
(270,359,cs),
(223,359,o),
(195,392,o),
(195,444,cs),
(195,543,o),
(267,621,o),
(386,621,cs),
(511,621,o),
(578,553,o),
(578,435,cs),
(578,247,o),
(462,87,o),
(196,87,cs),
(46,87,l),
(28,0,l),
(183,0,ls),
(314,0,o),
(417,32,o),
(495,84,c),
(571,-13,l)
);
}
);
width = 706;
}
);
metricLeft = "yeCarrier-canadian";
metricRight = "=|jjuCarrier-canadian";
note = uni161D;
unicode = 5661;
},
{
color = 9;
glyphname = "jjeCarrier-canadian";
lastChange = "2023-01-13 15:54:24 +0000";
layers = (
{
layerId = "96DCC2AB-F6C9-4D02-A366-260ACDE51568";
shapes = (
{
closed = 1;
nodes = (
(670,-13,o),
(725,289,o),
(725,427,cs),
(725,605,o),
(637,702,o),
(470,702,cs),
(386,702,o),
(312,676,o),
(252,621,c),
(186,702,l),
(111,640,l),
(187,546,l),
(151,494,o),
(123,425,o),
(104,340,cs),
(33,0,l),
(128,0,l),
(199,329,ls),
(239,519,o),
(329,615,o),
(465,615,cs),
(578,615,o),
(632,552,o),
(632,422,cs),
(632,344,o),
(604,67,o),
(474,67,cs),
(425,67,o),
(397,98,o),
(397,152,cs),
(397,219,o),
(430,306,o),
(523,306,cs),
(538,306,o),
(550,305,o),
(558,302,c),
(574,379,l),
(560,383,o),
(540,385,o),
(522,385,cs),
(372,385,o),
(313,251,o),
(313,145,cs),
(313,48,o),
(370,-13,o),
(467,-13,cs)
);
}
);
width = 769;
}
);
metricRight = "jeCarrier-canadian";
note = uni161E;
unicode = 5662;
},
{
color = 9;
glyphname = "jjeeCarrier-canadian";
lastChange = "2023-01-13 15:54:24 +0000";
layers = (
{
layerId = "96DCC2AB-F6C9-4D02-A366-260ACDE51568";
shapes = (
{
closed = 1;
nodes = (
(670,-13,o),
(725,289,o),
(725,427,cs),
(725,605,o),
(637,702,o),
(470,702,cs),
(386,702,o),
(312,676,o),
(252,621,c),
(186,702,l),
(111,640,l),
(187,546,l),
(151,494,o),
(123,425,o),
(104,340,cs),
(33,0,l),
(128,0,l),
(199,329,ls),
(239,519,o),
(329,615,o),
(465,615,cs),
(578,615,o),
(632,552,o),
(632,422,cs),
(632,341,o),
(605,67,o),
(462,67,cs),
(406,67,o),
(372,100,o),
(372,161,cs),
(372,226,o),
(396,301,o),
(468,318,c),
(449,232,l),
(503,232,l),
(551,456,l),
(497,456,l),
(480,374,l),
(359,355,o),
(313,241,o),
(313,145,cs),
(313,48,o),
(370,-13,o),
(467,-13,cs)
);
}
);
width = 769;
}
);
metricLeft = "jjeCarrier-canadian";
metricRight = "jeCarrier-canadian";
note = uni161F;
unicode = 5663;
},
{
color = 9;
glyphname = "jjiCarrier-canadian";
lastChange = "2023-01-13 15:54:20 +0000";
layers = (
{
layerId = "96DCC2AB-F6C9-4D02-A366-260ACDE51568";
shapes = (
{
closed = 1;
nodes = (
(622,-13,o),
(689,175,o),
(714,334,cs),
(748,564,o),
(661,702,o),
(469,702,cs),
(383,702,o),
(309,675,o),
(251,622,c),
(186,702,l),
(111,640,l),
(186,548,l),
(150,494,o),
(123,424,o),
(104,340,cs),
(32,0,l),
(128,0,l),
(198,329,ls),
(239,519,o),
(329,615,o),
(465,615,cs),
(595,615,o),
(648,524,o),
(623,342,cs),
(606,228,o),
(573,67,o),
(461,67,cs),
(396,67,o),
(365,112,o),
(375,188,cs),
(379,236,o),
(395,282,o),
(440,300,c),
(449,284,o),
(469,273,o),
(491,273,cs),
(531,273,o),
(560,306,o),
(560,346,cs),
(560,385,o),
(530,416,o),
(491,416,cs),
(449,416,o),
(422,384,o),
(420,349,c),
(355,320,o),
(326,253,o),
(318,184,cs),
(300,65,o),
(360,-13,o),
(467,-13,cs)
);
}
);
width = 763;
}
);
metricLeft = "jjeCarrier-canadian";
metricRight = "jeCarrier-canadian";
note = uni1620;
unicode = 5664;
},
{
color = 9;
glyphname = "jjaCarrier-canadian";
lastChange = "2023-01-13 15:54:24 +0000";
layers = (
{
layerId = "96DCC2AB-F6C9-4D02-A366-260ACDE51568";
shapes = (
{
closed = 1;
nodes = (
(427,-13,o),
(501,14,o),
(561,69,c),
(627,-13,l),
(702,49,l),
(626,144,l),
(663,197,o),
(691,265,o),
(708,350,cs),
(781,690,l),
(685,690,l),
(614,360,ls),
(574,171,o),
(483,74,o),
(349,74,cs),
(236,74,o),
(182,138,o),
(182,268,cs),
(182,346,o),
(209,623,o),
(339,623,cs),
(388,623,o),
(416,592,o),
(416,538,cs),
(416,470,o),
(384,384,o),
(291,384,cs),
(274,384,o),
(264,384,o),
(255,387,c),
(240,311,l),
(253,307,o),
(272,304,o),
(292,304,cs),
(441,304,o),
(499,439,o),
(499,545,cs),
(499,641,o),
(442,702,o),
(347,702,cs),
(143,702,o),
(89,401,o),
(89,263,cs),
(89,85,o),
(177,-13,o),
(343,-13,cs)
);
}
);
width = 768;
}
);
metricLeft = "=|jeCarrier-canadian";
metricRight = "=|jjeCarrier-canadian";
note = uni1621;
unicode = 5665;
},
{
color = 9;
glyphname = "luCarrier-canadian";
lastChange = "2023-01-13 15:54:24 +0000";
layers = (
{
layerId = "96DCC2AB-F6C9-4D02-A366-260ACDE51568";
shapes = (
{
closed = 1;
nodes = (
(506,-13,o),
(612,83,o),
(653,270,cs),
(742,690,l),
(645,690,l),
(559,282,ls),
(529,143,o),
(459,74,o),
(344,74,cs),
(233,74,o),
(172,138,o),
(172,248,cs),
(172,406,o),
(273,601,o),
(466,612,c),
(482,690,l),
(156,690,l),
(140,610,l),
(339,610,l),
(411,637,l),
(202,619,o),
(76,427,o),
(76,241,cs),
(76,87,o),
(176,-13,o),
(341,-13,cs)
);
}
);
width = 715;
}
);
metricRight = "te-canadian";
note = uni1622;
unicode = 5666;
},
{
color = 9;
glyphname = "loCarrier-canadian";
lastChange = "2023-01-13 15:54:24 +0000";
layers = (
{
layerId = "96DCC2AB-F6C9-4D02-A366-260ACDE51568";
shapes = (
{
closed = 1;
nodes = (
(114,0,l),
(200,408,ls),
(230,547,o),
(300,615,o),
(415,615,cs),
(526,615,o),
(586,552,o),
(586,441,cs),
(586,284,o),
(485,89,o),
(294,77,c),
(277,0,l),
(602,0,l),
(619,80,l),
(420,80,l),
(349,53,l),
(557,71,o),
(683,263,o),
(683,449,cs),
(683,603,o),
(583,702,o),
(418,702,cs),
(252,702,o),
(147,607,o),
(106,419,cs),
(17,0,l)
);
}
);
width = 713;
}
);
metricLeft = "te-canadian";
metricRight = "=|luCarrier-canadian";
note = uni1623;
unicode = 5667;
},
{
color = 9;
glyphname = "leCarrier-canadian";
lastChange = "2023-01-13 15:54:20 +0000";
layers = (
{
anchors = (
{
name = middle_center_can;
pos = (368,348);
}
);
layerId = "96DCC2AB-F6C9-4D02-A366-260ACDE51568";
shapes = (
{
closed = 1;
nodes = (
(254,0,ls),
(572,0,o),
(662,248,o),
(662,435,cs),
(662,596,o),
(579,702,o),
(441,702,cs),
(336,702,o),
(251,639,o),
(209,526,c),
(219,526,l),
(254,690,l),
(167,690,l),
(102,382,l),
(184,382,l),
(222,531,o),
(303,615,o),
(412,615,cs),
(511,615,o),
(567,544,o),
(567,427,cs),
(567,273,o),
(487,87,o),
(264,87,cs),
(39,87,l),
(20,0,l)
);
}
);
width = 694;
}
);
metricRight = "theCarrier-canadian";
note = uni1624;
unicode = 5668;
},
{
color = 9;
glyphname = "laCarrier-canadian";
lastChange = "2023-01-13 15:54:24 +0000";
layers = (
{
layerId = "96DCC2AB-F6C9-4D02-A366-260ACDE51568";
shapes = (
{
closed = 1;
nodes = (
(573,0,l),
(591,87,l),
(385,87,ls),
(243,87,o),
(175,152,o),
(175,275,cs),
(175,402,o),
(242,615,o),
(423,615,cs),
(539,615,o),
(597,525,o),
(573,382,c),
(654,382,l),
(720,690,l),
(633,690,l),
(595,509,l),
(605,508,l),
(603,628,o),
(531,702,o),
(414,702,cs),
(182,702,o),
(79,443,o),
(79,270,cs),
(79,99,o),
(179,0,o),
(372,0,cs)
);
}
);
width = 695;
}
);
metricLeft = "=|theCarrier-canadian";
metricRight = "=|leCarrier-canadian";
note = uni1627;
unicode = 5671;
},
{
color = 1;
glyphname = "dluCarrier-canadian";
lastChange = "2023-01-13 15:54:24 +0000";
layers = (
{
layerId = "96DCC2AB-F6C9-4D02-A366-260ACDE51568";
shapes = (
{
closed = 1;
nodes = (
(583,-13,o),
(668,235,o),
(668,390,cs),
(668,528,o),
(594,620,o),
(465,642,c),
(498,616,l),
(718,616,l),
(700,535,l),
(773,535,l),
(823,771,l),
(751,771,l),
(733,690,l),
(423,690,l),
(407,611,l),
(517,599,o),
(577,526,o),
(577,408,cs),
(577,293,o),
(522,74,o),
(328,74,cs),
(203,74,o),
(148,156,o),
(178,299,cs),
(260,690,l),
(164,690,l),
(82,303,ls),
(41,109,o),
(135,-13,o),
(324,-13,cs)
);
}
);
width = 760;
}
);
metricLeft = "te-canadian";
note = uni1628;
unicode = 5672;
},
{
color = 9;
glyphname = "dloCarrier-canadian";
lastChange = "2023-01-13 15:54:20 +0000";
layers = (
{
layerId = "96DCC2AB-F6C9-4D02-A366-260ACDE51568";
shapes = (
{
closed = 1;
nodes = (
(642,-81,l),
(693,155,l),
(620,155,l),
(603,74,l),
(417,74,l),
(412,65,l),
(578,97,o),
(683,275,o),
(683,449,cs),
(683,603,o),
(583,702,o),
(418,702,cs),
(252,702,o),
(147,607,o),
(106,419,cs),
(17,0,l),
(114,0,l),
(200,408,ls),
(230,547,o),
(300,615,o),
(415,615,cs),
(526,615,o),
(586,552,o),
(586,441,cs),
(586,284,o),
(485,89,o),
(294,77,c),
(277,0,l),
(588,0,l),
(570,-81,l)
);
}
);
width = 761;
}
);
metricLeft = "te-canadian";
metricRight = "dluCarrier-canadian";
note = uni1629;
unicode = 5673;
},
{
color = 9;
glyphname = "dleCarrier-canadian";
lastChange = "2023-01-13 15:54:20 +0000";
layers = (
{
anchors = (
{
name = middle_center_can;
pos = (380,348);
}
);
layerId = "96DCC2AB-F6C9-4D02-A366-260ACDE51568";
shapes = (
{
closed = 1;
nodes = (
(266,0,ls),
(584,0,o),
(674,248,o),
(674,435,cs),
(674,596,o),
(590,702,o),
(453,702,cs),
(345,702,o),
(242,628,o),
(195,500,c),
(206,500,l),
(247,699,l),
(331,699,l),
(346,769,l),
(118,769,l),
(103,699,l),
(182,699,l),
(114,382,l),
(195,382,l),
(234,531,o),
(315,615,o),
(423,615,cs),
(523,615,o),
(579,544,o),
(579,427,cs),
(579,273,o),
(499,87,o),
(275,87,cs),
(51,87,l),
(33,0,l)
);
}
);
width = 706;
}
);
metricRight = "theCarrier-canadian";
note = uni162A;
unicode = 5674;
},
{
color = 9;
glyphname = "dlaCarrier-canadian";
lastChange = "2023-01-13 15:54:24 +0000";
layers = (
{
layerId = "96DCC2AB-F6C9-4D02-A366-260ACDE51568";
shapes = (
{
closed = 1;
nodes = (
(573,0,l),
(591,87,l),
(385,87,ls),
(243,87,o),
(175,152,o),
(175,275,cs),
(175,402,o),
(242,615,o),
(423,615,cs),
(539,615,o),
(597,525,o),
(573,382,c),
(654,382,l),
(722,699,l),
(799,699,l),
(813,769,l),
(586,769,l),
(572,699,l),
(650,699,l),
(609,507,l),
(618,505,l),
(616,628,o),
(531,702,o),
(414,702,cs),
(182,702,o),
(79,443,o),
(79,270,cs),
(79,99,o),
(179,0,o),
(372,0,cs)
);
}
);
width = 706;
}
);
metricLeft = "=|theCarrier-canadian";
metricRight = "=|dleCarrier-canadian";
note = uni162D;
unicode = 5677;
},
{
color = 9;
glyphname = "lhuCarrier-canadian";
lastChange = "2023-01-13 15:54:24 +0000";
layers = (
{
layerId = "96DCC2AB-F6C9-4D02-A366-260ACDE51568";
shapes = (
{
closed = 1;
nodes = (
(602,-13,o),
(703,205,o),
(703,389,cs),
(703,517,o),
(645,610,o),
(541,639,c),
(572,608,l),
(765,608,l),
(782,690,l),
(527,690,l),
(511,612,l),
(577,582,o),
(611,510,o),
(611,416,cs),
(611,281,o),
(552,74,o),
(367,74,cs),
(250,74,o),
(183,146,o),
(183,266,cs),
(183,384,o),
(243,570,o),
(395,612,c),
(412,690,l),
(156,690,l),
(139,608,l),
(337,608,l),
(381,643,l),
(180,611,o),
(87,418,o),
(87,256,cs),
(87,93,o),
(193,-13,o),
(366,-13,cs)
);
}
);
width = 747;
}
);
metricLeft = "luCarrier-canadian";
metricRight = "=|";
note = uni162E;
unicode = 5678;
},
{
color = 9;
glyphname = "lhoCarrier-canadian";
lastChange = "2023-01-13 15:54:24 +0000";
layers = (
{
layerId = "96DCC2AB-F6C9-4D02-A366-260ACDE51568";
shapes = (
{
closed = 1;
nodes = (
(265,0,l),
(281,77,l),
(216,108,o),
(182,180,o),
(182,273,cs),
(182,409,o),
(241,615,o),
(425,615,cs),
(542,615,o),
(610,544,o),
(610,424,cs),
(610,305,o),
(550,120,o),
(398,77,c),
(381,0,l),
(636,0,l),
(653,82,l),
(456,82,l),
(412,46,l),
(612,79,o),
(706,271,o),
(706,434,cs),
(706,597,o),
(600,702,o),
(427,702,cs),
(191,702,o),
(89,485,o),
(89,300,cs),
(89,173,o),
(148,80,o),
(251,50,c),
(220,82,l),
(27,82,l),
(10,0,l)
);
}
);
width = 747;
}
);
metricLeft = "luCarrier-canadian";
metricRight = "=|";
note = uni162F;
unicode = 5679;
},
{
color = 9;
glyphname = "lheCarrier-canadian";
lastChange = "2023-01-13 15:54:24 +0000";
layers = (
{
anchors = (
{
name = middle_center_can;
pos = (384,345);
}
);
layerId = "96DCC2AB-F6C9-4D02-A366-260ACDE51568";
shapes = (
{
closed = 1;
nodes = (
(591,-13,o),
(690,245,o),
(690,428,cs),
(690,594,o),
(600,702,o),
(454,702,cs),
(351,702,o),
(265,646,o),
(221,547,c),
(228,546,l),
(258,690,l),
(172,690,l),
(113,415,l),
(194,415,l),
(237,545,o),
(319,615,o),
(423,615,cs),
(532,615,o),
(594,543,o),
(594,421,cs),
(594,283,o),
(523,74,o),
(346,74,cs),
(231,74,o),
(157,156,o),
(165,274,c),
(83,274,l),
(25,0,l),
(111,0,l),
(148,173,l),
(134,170,l),
(147,60,o),
(236,-13,o),
(358,-13,cs)
);
}
);
width = 723;
}
);
metricLeft = "nunavuth-canadian";
metricRight = "theCarrier-canadian";
note = uni1630;
unicode = 5680;
},
{
color = 9;
glyphname = "lhaCarrier-canadian";
lastChange = "2023-01-13 15:54:20 +0000";
layers = (
{
layerId = "96DCC2AB-F6C9-4D02-A366-260ACDE51568";
shapes = (
{
closed = 1;
nodes = (
(417,-13,o),
(503,43,o),
(548,143,c),
(541,144,l),
(510,0,l),
(596,0,l),
(655,274,l),
(574,274,l),
(531,145,o),
(449,74,o),
(345,74,cs),
(236,74,o),
(174,147,o),
(174,269,cs),
(174,407,o),
(245,615,o),
(422,615,cs),
(537,615,o),
(611,533,o),
(604,415,c),
(685,415,l),
(743,690,l),
(657,690,l),
(620,517,l),
(634,520,l),
(621,630,o),
(532,702,o),
(411,702,cs),
(178,702,o),
(78,444,o),
(78,262,cs),
(78,96,o),
(168,-13,o),
(314,-13,cs)
);
}
);
width = 724;
}
);
metricLeft = "=|theCarrier-canadian";
metricRight = "nunavuth-canadian";
note = uni1633;
unicode = 5683;
},
{
color = 9;
glyphname = "tlhuCarrier-canadian";
lastChange = "2023-01-13 15:54:20 +0000";
layers = (
{
layerId = "96DCC2AB-F6C9-4D02-A366-260ACDE51568";
shapes = (
{
closed = 1;
nodes = (
(602,-13,o),
(703,205,o),
(703,389,cs),
(703,512,o),
(657,607,o),
(554,639,c),
(555,615,l),
(752,615,l),
(734,535,l),
(807,535,l),
(856,771,l),
(784,771,l),
(767,690,l),
(527,690,l),
(511,612,l),
(577,582,o),
(611,510,o),
(611,416,cs),
(611,281,o),
(552,74,o),
(367,74,cs),
(250,74,o),
(183,146,o),
(183,266,cs),
(183,384,o),
(243,570,o),
(395,612,c),
(412,690,l),
(156,690,l),
(139,608,l),
(337,608,l),
(369,639,l),
(159,600,o),
(87,399,o),
(87,256,cs),
(87,93,o),
(193,-13,o),
(366,-13,cs)
);
}
);
width = 785;
}
);
metricLeft = "lhuCarrier-canadian";
note = uni1634;
unicode = 5684;
},
{
color = 9;
glyphname = "tlhoCarrier-canadian";
lastChange = "2023-01-13 15:54:24 +0000";
layers = (
{
layerId = "96DCC2AB-F6C9-4D02-A366-260ACDE51568";
shapes = (
{
closed = 1;
nodes = (
(45,-81,l),
(63,0,l),
(302,0,l),
(319,77,l),
(253,108,o),
(218,180,o),
(218,273,cs),
(218,409,o),
(278,615,o),
(463,615,cs),
(580,615,o),
(647,544,o),
(647,424,cs),
(647,305,o),
(586,120,o),
(435,77,c),
(418,0,l),
(673,0,l),
(691,82,l),
(493,82,l),
(461,50,l),
(670,90,o),
(743,291,o),
(743,434,cs),
(743,597,o),
(637,702,o),
(464,702,cs),
(228,702,o),
(127,485,o),
(127,300,cs),
(127,178,o),
(173,83,o),
(275,50,c),
(274,74,l),
(78,74,l),
(96,155,l),
(23,155,l),
(-26,-81,l)
);
}
);
width = 784;
}
);
metricLeft = "=|tlhuCarrier-canadian";
metricRight = "lhuCarrier-canadian";
note = uni1635;
unicode = 5685;
},
{
color = 9;
glyphname = "tlheCarrier-canadian";
lastChange = "2023-01-13 15:54:20 +0000";
layers = (
{
anchors = (
{
name = middle_center_can;
pos = (392,345);
}
);
layerId = "96DCC2AB-F6C9-4D02-A366-260ACDE51568";
shapes = (
{
closed = 1;
nodes = (
(598,-13,o),
(697,245,o),
(697,428,cs),
(697,594,o),
(608,702,o),
(462,702,cs),
(346,702,o),
(250,633,o),
(200,514,c),
(218,527,l),
(254,699,l),
(332,699,l),
(347,769,l),
(118,769,l),
(103,699,l),
(182,699,l),
(121,415,l),
(202,415,l),
(244,545,o),
(327,615,o),
(431,615,cs),
(540,615,o),
(602,543,o),
(602,421,cs),
(602,283,o),
(530,74,o),
(353,74,cs),
(239,74,o),
(164,156,o),
(172,274,c),
(91,274,l),
(33,0,l),
(119,0,l),
(156,173,l),
(142,170,l),
(155,60,o),
(243,-13,o),
(366,-13,cs)
);
}
);
width = 730;
}
);
metricLeft = "dleCarrier-canadian";
metricRight = "theCarrier-canadian";
note = uni1636;
unicode = 5686;
},
{
color = 9;
glyphname = "tlhaCarrier-canadian";
lastChange = "2023-01-13 15:54:24 +0000";
layers = (
{
layerId = "96DCC2AB-F6C9-4D02-A366-260ACDE51568";
shapes = (
{
closed = 1;
nodes = (
(417,-13,o),
(503,43,o),
(548,143,c),
(541,144,l),
(510,0,l),
(597,0,l),
(655,274,l),
(574,274,l),
(531,145,o),
(449,74,o),
(345,74,cs),
(236,74,o),
(174,147,o),
(174,269,cs),
(174,407,o),
(245,615,o),
(422,615,cs),
(538,615,o),
(611,533,o),
(604,415,c),
(685,415,l),
(746,699,l),
(824,699,l),
(838,769,l),
(610,769,l),
(595,699,l),
(672,699,l),
(633,514,l),
(640,515,l),
(624,632,o),
(534,702,o),
(411,702,cs),
(178,702,o),
(78,444,o),
(78,262,cs),
(78,96,o),
(168,-13,o),
(314,-13,cs)
);
}
);
width = 731;
}
);
metricLeft = "=|theCarrier-canadian";
metricRight = "=|dleCarrier-canadian";
note = uni1639;
unicode = 5689;
},
{
color = 9;
glyphname = "tluCarrier-canadian";
lastChange = "2023-01-13 15:54:20 +0000";
layers = (
{
layerId = "96DCC2AB-F6C9-4D02-A366-260ACDE51568";
shapes = (
{
closed = 1;
nodes = (
(327,-13,o),
(387,30,o),
(426,116,c),
(398,117,l),
(411,35,o),
(469,-13,o),
(558,-13,cs),
(760,-13,o),
(816,249,o),
(816,392,cs),
(816,514,o),
(768,596,o),
(680,629,c),
(660,616,l),
(867,616,l),
(850,535,l),
(923,535,l),
(973,771,l),
(900,771,l),
(883,690,l),
(586,690,l),
(569,611,l),
(673,599,o),
(725,533,o),
(725,413,cs),
(725,311,o),
(688,72,o),
(555,72,cs),
(486,72,o),
(455,124,o),
(474,212,cs),
(494,302,l),
(401,302,l),
(383,213,ls),
(362,118,o),
(324,72,o),
(260,72,cs),
(199,72,o),
(168,112,o),
(168,194,cs),
(168,310,o),
(229,607,o),
(453,611,c),
(469,690,l),
(157,690,l),
(140,608,l),
(331,608,l),
(314,622,l),
(140,560,o),
(72,337,o),
(72,189,cs),
(72,62,o),
(134,-13,o),
(244,-13,cs)
);
}
);
width = 901;
}
);
metricRight = "tlhuCarrier-canadian";
note = uni163A;
unicode = 5690;
},
{
color = 1;
glyphname = "tloCarrier-canadian";
lastChange = "2023-01-13 15:54:24 +0000";
layers = (
{
layerId = "96DCC2AB-F6C9-4D02-A366-260ACDE51568";
shapes = (
{
closed = 1;
nodes = (
(790,-81,l),
(840,155,l),
(769,155,l),
(752,74,l),
(566,74,l),
(582,62,l),
(763,120,o),
(837,347,o),
(837,500,cs),
(837,628,o),
(774,702,o),
(664,702,cs),
(581,702,o),
(521,659,o),
(482,572,c),
(510,571,l),
(497,654,o),
(439,702,o),
(350,702,cs),
(148,702,o),
(92,440,o),
(92,298,cs),
(92,182,o),
(137,101,o),
(217,67,c),
(240,81,l),
(27,81,l),
(10,0,l),
(323,0,l),
(339,78,l),
(235,91,o),
(184,156,o),
(184,276,cs),
(184,379,o),
(220,617,o),
(353,617,cs),
(422,617,o),
(453,566,o),
(434,478,cs),
(414,387,l),
(507,387,l),
(525,476,ls),
(546,572,o),
(584,617,o),
(648,617,cs),
(709,617,o),
(740,578,o),
(740,496,cs),
(740,380,o),
(679,83,o),
(455,78,c),
(439,0,l),
(736,0,l),
(719,-81,l)
);
}
);
width = 899;
}
);
metricLeft = "tluCarrier-canadian";
metricRight = "tlhuCarrier-canadian";
note = uni163B;
unicode = 5691;
},
{
color = 9;
glyphname = "tleCarrier-canadian";
lastChange = "2023-01-13 15:54:20 +0000";
layers = (
{
anchors = (
{
name = middle_center_can;
pos = (311,345);
}
);
layerId = "96DCC2AB-F6C9-4D02-A366-260ACDE51568";
shapes = (
{
closed = 1;
nodes = (
(536,-13,o),
(649,72,o),
(649,212,cs),
(649,286,o),
(608,343,o),
(541,355,c),
(536,333,l),
(643,346,o),
(717,428,o),
(717,529,cs),
(717,632,o),
(628,702,o),
(488,702,cs),
(363,702,o),
(265,645,o),
(211,539,c),
(216,530,l),
(252,699,l),
(331,699,l),
(346,769,l),
(118,769,l),
(103,699,l),
(181,699,l),
(120,415,l),
(201,415,l),
(238,551,o),
(323,616,o),
(458,616,cs),
(560,616,o),
(619,577,o),
(619,511,cs),
(619,426,o),
(551,385,o),
(459,385,cs),
(416,385,l),
(399,305,l),
(440,305,ls),
(514,305,o),
(556,273,o),
(556,216,cs),
(556,123,o),
(481,73,o),
(378,73,cs),
(236,73,o),
(156,149,o),
(171,274,c),
(90,274,l),
(32,0,l),
(119,0,l),
(156,174,l),
(140,164,l),
(151,56,o),
(247,-13,o),
(387,-13,cs)
);
}
);
width = 731;
}
);
metricLeft = "dleCarrier-canadian";
metricRight = "geCarrier-canadian";
note = uni163C;
unicode = 5692;
},
{
color = 9;
glyphname = "tlaCarrier-canadian";
lastChange = "2023-01-13 15:54:24 +0000";
layers = (
{
layerId = "96DCC2AB-F6C9-4D02-A366-260ACDE51568";
shapes = (
{
closed = 1;
nodes = (
(404,-13,o),
(497,36,o),
(553,127,c),
(543,147,l),
(511,0,l),
(598,0,l),
(657,274,l),
(576,274,l),
(539,139,o),
(454,73,o),
(319,73,cs),
(216,73,o),
(157,113,o),
(157,179,cs),
(157,264,o),
(226,304,o),
(318,304,cs),
(360,304,l),
(378,384,l),
(336,384,ls),
(262,384,o),
(220,416,o),
(220,473,cs),
(220,567,o),
(295,616,o),
(399,616,cs),
(541,616,o),
(620,541,o),
(606,415,c),
(687,415,l),
(747,699,l),
(824,699,l),
(839,769,l),
(611,769,l),
(596,699,l),
(674,699,l),
(632,497,l),
(645,511,l),
(634,629,o),
(534,702,o),
(389,702,cs),
(240,702,o),
(128,617,o),
(128,478,cs),
(128,406,o),
(168,350,o),
(231,335,c),
(236,355,l),
(131,341,o),
(59,261,o),
(59,160,cs),
(59,58,o),
(149,-13,o),
(288,-13,cs)
);
}
);
width = 731;
}
);
metricLeft = "=|geCarrier-canadian";
metricRight = "=|dleCarrier-canadian";
note = uni163F;
unicode = 5695;
},
{
color = 9;
glyphname = "zuCarrier-canadian";
lastChange = "2023-01-13 15:54:20 +0000";
layers = (
{
layerId = "96DCC2AB-F6C9-4D02-A366-260ACDE51568";
shapes = (
{
closed = 1;
nodes = (
(548,-13,o),
(681,104,o),
(681,294,cs),
(681,380,o),
(648,457,o),
(648,520,cs),
(648,574,o),
(676,607,o),
(734,607,cs),
(764,607,l),
(781,690,l),
(734,690,ls),
(620,690,o),
(557,634,o),
(557,524,cs),
(557,453,o),
(588,381,o),
(588,299,cs),
(588,163,o),
(500,74,o),
(355,74,cs),
(238,74,o),
(165,129,o),
(165,215,cs),
(165,351,o),
(322,463,o),
(322,584,cs),
(322,648,o),
(275,690,o),
(199,690,cs),
(155,690,l),
(137,607,l),
(172,607,ls),
(211,607,o),
(228,593,o),
(228,566,cs),
(228,484,o),
(71,367,o),
(71,203,cs),
(71,74,o),
(178,-13,o),
(347,-13,cs)
);
}
);
width = 745;
}
);
metricRight = "=|";
note = uni1640;
unicode = 5696;
},
{
color = 9;
glyphname = "zoCarrier-canadian";
lastChange = "2023-01-13 15:54:20 +0000";
layers = (
{
layerId = "96DCC2AB-F6C9-4D02-A366-260ACDE51568";
shapes = (
{
closed = 1;
nodes = (
(56,0,ls),
(170,0,o),
(233,56,o),
(233,166,cs),
(233,237,o),
(202,309,o),
(202,390,cs),
(202,526,o),
(290,615,o),
(435,615,cs),
(553,615,o),
(625,560,o),
(625,474,cs),
(625,339,o),
(469,227,o),
(469,105,cs),
(469,42,o),
(515,0,o),
(590,0,cs),
(636,0,l),
(653,83,l),
(618,83,ls),
(580,83,o),
(562,97,o),
(562,124,cs),
(562,206,o),
(720,323,o),
(720,487,cs),
(720,615,o),
(612,702,o),
(443,702,cs),
(242,702,o),
(109,585,o),
(109,396,cs),
(109,310,o),
(142,233,o),
(142,170,cs),
(142,116,o),
(113,83,o),
(56,83,cs),
(26,83,l),
(9,0,l)
);
}
);
width = 746;
}
);
metricLeft = "zuCarrier-canadian";
metricRight = "zuCarrier-canadian";
note = uni1641;
unicode = 5697;
},
